<svg id="Layer_1" data-name="Layer 1" xmlns="http://www.w3.org/2000/svg" xmlns:xlink="http://www.w3.org/1999/xlink" viewBox="0 0 4500 2500"><defs><style>.cls-1{fill:none;}.cls-2{fill:#aed3f0;}.cls-3{clip-path:url(#clip-path);}.cls-4{fill:#99c2e9;}.cls-5{fill:#dbeaf8;}.cls-6{fill:#fff;}.cls-7{fill:#348579;}.cls-8{fill:#2a6c62;}.cls-9{fill:#255f56;}.cls-10{fill:#2a6b2a;}.cls-11{fill:#44ae9e;}.cls-12,.cls-21,.cls-23{fill:#365795;}.cls-12,.cls-13,.cls-15,.cls-16,.cls-17,.cls-19,.cls-20,.cls-22,.cls-24,.cls-25,.cls-26,.cls-27,.cls-28,.cls-29,.cls-30,.cls-31,.cls-32,.cls-33,.cls-34,.cls-35,.cls-37,.cls-38,.cls-39,.cls-40,.cls-41,.cls-42,.cls-43{fill-rule:evenodd;}.cls-13{fill:url(#linear-gradient);}.cls-14{fill:#6d7f8d;}.cls-15{fill:#8e9ca7;}.cls-16{fill:#55626d;}.cls-17{fill-opacity:0.09;}.cls-18,.cls-20,.cls-22{fill:#edf4fb;}.cls-18,.cls-20{fill-opacity:0.28;}.cls-19{fill:#434e57;}.cls-22,.cls-23{fill-opacity:0.89;}.cls-24{fill:#ffab65;}.cls-25{fill:url(#linear-gradient-2);}.cls-26{fill:url(#linear-gradient-3);}.cls-27{fill:url(#linear-gradient-4);}.cls-28{fill:url(#linear-gradient-5);}.cls-29{fill:url(#linear-gradient-6);}.cls-30{fill:url(#linear-gradient-7);}.cls-31{fill:#bc4273;}.cls-32{fill:#99365d;}.cls-33{fill:#ffaccd;}.cls-34{fill:#ec6198;}.cls-35{fill:url(#linear-gradient-8);}.cls-36{fill:url(#linear-gradient-9);}.cls-37{fill-opacity:0.16;}.cls-38{fill:#98d4cb;}.cls-39{fill:#f3d2df;}.cls-40{fill:url(#linear-gradient-10);}.cls-41{fill-opacity:0.31;}.cls-42{fill:#ffc787;}.cls-43{fill:bisque;}</style><clipPath id="clip-path"><rect class="cls-1" width="4500" height="2500"/></clipPath><linearGradient id="linear-gradient" x1="1289.32" y1="1790.89" x2="1290.5" y2="1790.89" gradientTransform="matrix(986.24, -361.58, -361.58, -986.24, -621598.7, 2233732.32)" gradientUnits="userSpaceOnUse"><stop offset="0" stop-color="#fff" stop-opacity="0"/><stop offset="1" stop-color="#fff"/></linearGradient><linearGradient id="linear-gradient-2" x1="1289.23" y1="1789.83" x2="1290.42" y2="1789.83" gradientTransform="matrix(1429.32, 1136.02, 1136.02, -1429.32, -3874631.27, 1094787.86)" xlink:href="#linear-gradient"/><linearGradient id="linear-gradient-3" x1="1289.24" y1="1789.68" x2="1290.42" y2="1789.68" gradientTransform="matrix(1226.31, 1278.83, 1278.83, -1226.31, -3868235.4, 547196.03)" gradientUnits="userSpaceOnUse"><stop offset="0" stop-color="#b49101" stop-opacity="0"/><stop offset="1" stop-color="#b49101"/></linearGradient><linearGradient id="linear-gradient-4" x1="1290.61" y1="1790.51" x2="1291.8" y2="1790.51" gradientTransform="matrix(-697.66, -1583.04, -1583.04, 697.66, 3736899.82, 795541.1)" xlink:href="#linear-gradient"/><linearGradient id="linear-gradient-5" x1="1290.71" y1="1790.37" x2="1291.89" y2="1790.02" gradientTransform="matrix(-984.82, -1193.24, -2234.64, 525.87, 5273735.59, 600246.17)" xlink:href="#linear-gradient"/><linearGradient id="linear-gradient-6" x1="1290.09" y1="1789.53" x2="1291.28" y2="1789.42" gradientTransform="matrix(583.83, -1449.09, 1522.82, 455.56, -3475567.49, 1057518.51)" gradientUnits="userSpaceOnUse"><stop offset="0" stop-opacity="0"/><stop offset="1"/></linearGradient><linearGradient id="linear-gradient-7" x1="1290.09" y1="1789.5" x2="1291.28" y2="1789.39" xlink:href="#linear-gradient-6"/><linearGradient id="linear-gradient-8" x1="1289.86" y1="1790.86" x2="1291.05" y2="1790.86" gradientTransform="matrix(782.98, -963.49, -963.49, -782.98, 718519.65, 2647433.02)" xlink:href="#linear-gradient"/><linearGradient id="linear-gradient-9" x1="1288.96" y1="1792.64" x2="1290.14" y2="1792.64" gradientTransform="matrix(350.41, -243.32, -243.33, -350.41, -12964.82, 943925.64)" xlink:href="#linear-gradient"/><linearGradient id="linear-gradient-10" x1="1291.03" y1="1791.09" x2="1292.21" y2="1791.39" gradientTransform="matrix(-1041.11, -207.09, 101.94, -349.75, 1164693.84, 895722.25)" xlink:href="#linear-gradient"/></defs><g id="c64"><rect class="cls-2" width="4500" height="2500"/><rect class="cls-1" width="4500" height="2500"/><g class="cls-3"><rect class="cls-4" x="3694.02" y="1814.99" width="396.86" height="730.42"/><path class="cls-5" d="M4717,2576.71V1815l-313-187-313.05,187v761.72Z"/><path class="cls-6" d="M4403.92,1628l-313.05,187H3689.09l318.54-187Z"/><rect class="cls-4" x="2001.15" y="1251.2" width="673.02" height="1238.7"/><path class="cls-5" d="M3735.92,2543V1251.2L3205,934.08,2674.16,1251.2V2543Z"/><path class="cls-6" d="M3205,934.08,2674.16,1251.2H1992.79L2533,934.08Z"/><path class="cls-7" d="M4022,1685.21S3942.27,2393.32,4140.57,2823c-52.35,19.82-83.91,12.6-83.91,12.6s-206.3-850.86-34.71-1150.42"/><path class="cls-7" d="M3740.45,2087.09S3983,2571,4017.15,2826c48.24,89.83,87.65-13.16,87.65-13.16s-126.94-505.15-364.35-725.78"/><path class="cls-8" d="M3768.79,2277s165.11,408.55,180.13,618.64c33.13,76,68-5.85,68-5.85s-75.27-419.45-248.12-612.79"/><path class="cls-7" d="M4071.85,2733.68s-15.77-208.84,137.75-382.14c75.68-85.46,47.85-137.83,116.18-168s162.9-106.4,186.76-138.77,430.51-194.42,544.27-171.65C4940.44,1921.58,4850,2113.59,4790.19,2127S4663,2222,4585.7,2295.6s-150.21,46.37-202.13,83-240.51,177.91-311.72,355.13"/><path class="cls-9" d="M4154.13,2552.33c21.18-38,44.17-74.93,67.81-111.24,12-18,24.45-35.79,38.11-52.33,13.67-16.3,29.17-31.53,45-46a523.32,523.32,0,0,1,50.65-39.91c17.67-12.44,36-24.65,52.73-39,16.92-14,32.08-30.8,46.16-46.8,14.52-15.31,31.37-28.9,48.57-41.81,69.64-51.08,145.14-94.38,219.74-138.6l225.22-130.87c-76.36,41.35-153.28,81.64-229,124.16s-151.45,85.38-222.32,136.66c-17.56,13-34.8,26.64-50.31,42.78-14.79,16.45-29,31.88-45.31,45.9-16.08,14.08-33.88,26.2-51.59,38.89a531.2,531.2,0,0,0-51.27,41.14c-16,15-31.74,30.19-45.26,47.83-13.45,17.43-25.4,35.74-36.87,54.3-23.05,37.06-42.83,75.94-62,114.95"/><path class="cls-10" d="M4310.78,2225.47a440.89,440.89,0,0,0-50.22,85,269.18,269.18,0,0,0-16.31,47c-4,16.14-6.16,33-5,49.9l.22,3.06h3.05c16.76,0,33.49-.2,50.23-1.16s33.47-2.51,50-5.45a305.83,305.83,0,0,0,48.81-12.25c15.59-5.94,31.51-12.89,43.27-25-12.48,11.24-28.59,17-44.29,21.85a306.66,306.66,0,0,1-48.57,10.27c-16.44,2.1-32.95,3.71-49.54,4.46s-33.18.73-49.79.55l3.26,3.05c-2.61-32.07,7.34-64.19,19.32-94.31a463.34,463.34,0,0,1,20.86-44.4,492.25,492.25,0,0,1,24.67-42.6"/><path class="cls-9" d="M4408.29,2155.67c-16.39,21.13-28.92,45.07-39.57,69.64s-18.31,50.5-24.26,76.68l-.86,3.8,3.91.15c32.47,1.37,65.19-1,97-8.05,31.55-7.36,62.86-18.56,89.09-37.73-27.74,16.63-58.84,26.32-90.18,32.49a407.39,407.39,0,0,1-47.57,6.27c-16,1-32,.88-48,.47l3.06,4c5.29-26,13.16-51.34,22.41-76.2,9.63-24.69,20.78-48.94,35-71.49"/><path class="cls-11" d="M3978.65,1750s31.39-292.56,214.88-364.4,233-154.55,348-211.68,245.84,20.65,245.84,20.65-144.29,23.89-268.51,145.49S4162.2,1685.92,3978.65,1750"/><path class="cls-7" d="M3978.65,1750s62.12-196.54,245.61-268.38,211.32-185.24,326.39-242.38,236.76-44.67,236.76-44.67-144.29,23.89-268.51,145.49S4162.2,1685.92,3978.65,1750"/><path class="cls-7" d="M3541.93,2639.27s-78.86-114.36-197.46-169.61-196-27-263.74-51.72-230.44-35.69-300.29-.85-194,55.7-222.38,208.31c44.8-37.73,130.48-10.74,221.35,6.61s183.62-58.58,264.6-39.74,161.07,82.09,243.75,74.11,254.17-27.11,254.17-27.11"/><path class="cls-11" d="M3793.41,2601.5s-15-167.13-166.35-227.41-292.84-98.85-361.94-184.78-257.21-104.18-420.44.05c128.55-26,312.11,72.68,510.23,202.34s438.5,209.8,438.5,209.8"/><path class="cls-7" d="M3793.41,2601.5s-15-167.13-166.35-227.41-284.57-19.6-353.68-105.54-265.47-183.42-428.7-79.19c128.55-26,312.11,72.68,510.23,202.34s438.5,209.8,438.5,209.8"/><path class="cls-11" d="M3912.42,2583.63s-79.71-382.32-254.75-433.13-186.82-206.67-374.82-263-346.91-170.86-566.68-113.65c209.69,36.59,278.8,121.76,379,221s206.11,137.46,248.51,175.67,174.07,167.58,245.46,180.31,270.36,143.53,323.24,232.84"/><path class="cls-7" d="M3912.42,2583.63s-121.07-322.24-296.11-373.06-175.84-205.5-363.85-261.82-316.52-232.1-536.29-174.89c209.69,36.59,278.8,121.76,379,221s206.11,137.46,248.51,175.67,174.07,167.58,245.46,180.31,270.36,143.53,323.24,232.84"/><path class="cls-11" d="M4153.23,2565s127.71-231.32,317.68-237.55,167.85,119.11,341.86,42.76,485.44,58.43,532,193.14c-178.49-101.61-294-106.41-530.57-35.46s-522.42-10.45-661,37.11"/><path class="cls-7" d="M4153.23,2565s134.3-136.6,324.26-142.82,164.74,76.73,338.74.38,482,6.08,528.56,140.79c-178.49-101.61-294-106.41-530.57-35.46s-522.42-10.45-661,37.11"/><path class="cls-8" d="M4140.57,2823s-69.23-191.52,122.27-334.84c-93.31,10.14-182.74,142-188.4,315.65-.33,79.65,66.13,19.19,66.13,19.19"/><path class="cls-11" d="M4083.45,2097.39s119-208.28,21.51-477-113.45-257.51-205.61-372.1-167.2-262.71-320.25-253-145-84.51-281.48,6.84c77.07-16,239,33.85,255.48,144.3s60.49,183.54,109.86,225.94,50.14,158.53,107.1,229.68S3934,1879.6,3992,1935.66s64.46,187.94,62.69,198.16,28.76-36.43,28.76-36.43"/><path class="cls-11" d="M3735.05,2069.93s31.64-350.07-64.15-548.24-198.3-204.91-314.42-302.62-191-37.74-191-37.74,67.76,69.54,108.7,284.8,156.71,360.18,310.5,453.77,150.39,150,150.39,150"/><path class="cls-11" d="M4117.35,2176.68s50.59-370.95,245.53-484.37,213.08-80.7,358.58-111.41,332.86,12,424.58,64.66c-225.57-32.54-434.64,104.6-564.79,208.55s-463.9,322.57-463.9,322.57"/><path class="cls-7" d="M4117.35,2176.68s120.3-258.75,315.26-372.16,167.11-177.39,312.6-208.1,309.11-3.5,400.83,49.14c-225.57-32.54-434.64,104.6-564.79,208.55s-463.9,322.57-463.9,322.57"/><path class="cls-7" d="M3768.86,2077.15c-44-77.08-84.82-157.76-113.32-241.67-3.62-10.48-6.64-21.09-9.61-31.7-3.21-10.66-6-22.23-9.95-33.07a273,273,0,0,0-30.26-62.93c-25.82-39.23-59.72-68.94-79.7-108.08-10.57-19-17.59-40.32-27.07-61.17-9-20.81-19-41.15-29.23-61.31a1142.62,1142.62,0,0,0-68.6-116.9c-25.3-37.4-53.07-73.33-85.21-105.1-32.06-31.36-69.23-59.7-112.85-71.79,43.25,13.36,79.21,42.49,110.12,74.5,31,32.39,57.49,68.81,81.54,106.61a1130.78,1130.78,0,0,1,64.73,117.8c9.58,20.26,18.87,40.67,27.17,61.43,4.4,10.32,8,20.78,12.11,31.28l6.37,16.07,7.37,15.7c20.27,42.26,54.65,74.47,77.07,111.24a252.44,252.44,0,0,1,26.45,59.27c3.48,10.43,5.64,20.89,8.61,31.87,2.77,11.17,5.62,22.32,9.05,33.23,13.1,43.9,30.19,86.12,48.47,127.7,18.53,41.55,38.34,82.11,60.2,122.33Z"/><path class="cls-7" d="M3687,1625.25q-7.71,56.91-16.81,113.51c-3.27,18.82-6.35,37.66-10.16,56.31s-8.16,37.37-15.09,54.49l5.26-1.88q-25.64-13.18-51.63-25.69c-17.38-8.18-34.73-16.49-52.52-23.81-35.39-15-71.45-28.68-108.63-38.38,18.24,6,36,13.22,53.66,20.7q26.55,10.95,52.59,23.1c34.75,16.08,69.2,32.85,103,50.89l3.75,2,1.51-3.88c7.22-18.47,11.13-37.3,14.89-56.15,3.55-18.89,6.76-37.81,9.16-56.84q7.56-57,11-114.37"/><path class="cls-7" d="M3585.42,1463.19c2.69,38.19,3.37,76.47,2.92,114.64-.84,38.16-2.77,76.32-8.67,113.91l4.8-3c-41.21-13.16-82-27.91-121.58-45.43-19.87-8.61-39.48-17.84-58.4-28.31-18.76-10.53-38.15-21.17-52.37-37.82,13.23,17.51,32.12,29.6,50.4,41.22,18.72,11.22,38.15,21.19,57.83,30.54s39.89,17.57,60.21,25.4,40.83,15.25,61.7,21.55l4.2,1.28.6-4.28a734,734,0,0,0,6.87-115,926.54,926.54,0,0,0-8.51-114.65"/><path class="cls-7" d="M3476.87,1341a848.27,848.27,0,0,1,14,98.14c2.25,32.82,3.08,66-3,98.08l5-2.81c-16.93-6.88-33.8-14-50-22.59s-32.14-17.72-47.66-27.57-30.86-20-45.76-30.86c-15-10.68-29.8-21.74-44-33.57a638.49,638.49,0,0,0,86.42,69.59c15.29,10.52,31.41,19.76,47.68,28.7a434.05,434.05,0,0,0,50.66,23.35l4.25,1.61.75-4.43c5.65-33.29,5.08-67,1.28-100a597.8,597.8,0,0,0-19.6-97.61"/><path class="cls-7" d="M3381.38,1254.37a275.93,275.93,0,0,1,13.4,52.78c2.3,17.88,2.95,36-1,53.29l3.63-2.86c-11.15-.5-22.42-2.89-33.56-5.71a321.72,321.72,0,0,1-32.94-10.69c-21.89-7.74-43.26-17.08-64.69-26.47a437,437,0,0,0,62.36,32.46,316.06,316.06,0,0,0,33.38,11.7c11.38,3.24,23.07,6,35.32,6.05h3.06l.57-2.86a136.77,136.77,0,0,0-.84-55.82,192.47,192.47,0,0,0-18.67-51.87"/><path class="cls-7" d="M4066.5,2143.59a66,66,0,0,0,7-11.93c1.82-3.67,3.05-7.27,4.56-10.92a173.33,173.33,0,0,0,6-21.8c3.23-14.54,4.5-29,5.19-43.43a450.29,450.29,0,0,0-5.75-84.92c-8.55-55.71-24.52-109.32-43.2-161.55-19-52-38.88-104-67.49-152.47-14.14-24.14-30.47-46.77-45.47-69.35a415.8,415.8,0,0,1-38.47-71.13,1161.88,1161.88,0,0,0-68.44-150.63c-26.23-48.56-55.18-95.67-87.63-140.29s-68.31-86.85-109.33-123.72c-40.92-36.59-87.86-68.09-140.73-83.64,52.51,16.74,98.39,49.13,138.24,86.37,39.91,37.54,74.53,80.37,105.79,125.3s58.9,92.42,83.84,141.16A1118.42,1118.42,0,0,1,3875,1521.73a432.2,432.2,0,0,0,37.77,74.85c14.74,23.63,30,46.08,43,69.79,26,47.19,44.4,98.92,62.16,150.45,17.26,51.6,31.69,104.31,38.71,157.63a423.65,423.65,0,0,1,3.77,79.58c-.89,13-2.33,26-5.34,38.3a144.89,144.89,0,0,1-5.27,17.85c-1.21,2.66-2.25,5.57-3.54,8a50.26,50.26,0,0,1-3.36,5.86Z"/><path class="cls-7" d="M4050.49,1525.37q-7.23,64.5-16,128.73c-3.24,21.34-6.15,42.73-10.05,63.93-4.06,21-8.15,42.56-16,61.76l5.31-1.76c-30.73-16.63-61.16-33.78-91.66-50.86l-45.58-25.87c-15.23-8.57-30.42-17.22-45.25-26.51,28.29,20.65,57.94,39.36,87.88,57.49s60.43,35.3,90.94,52.47l3.77,2.1,1.54-3.88c8.35-21,12-42.34,16-63.73,3.57-21.4,6.65-42.86,9-64.41q7.29-64.56,10.22-129.46"/><path class="cls-7" d="M3956.94,1392.23c1.88,38.24,1.77,76.53.52,114.68-1.64,38.13-4.37,76.23-11.06,113.69l4.86-2.9c-40.92-14-81.39-29.64-120.6-48-19.68-9-39.09-18.65-57.79-29.53-18.54-10.91-37.7-22-51.56-38.9,12.86,17.78,31.49,30.27,49.52,42.27,18.48,11.61,37.7,22,57.18,31.75s39.5,18.41,59.67,26.67,40.49,16.1,61.22,22.85l4.18,1.36.68-4.27a735.68,735.68,0,0,0,9.29-114.87,926.14,926.14,0,0,0-6.11-114.8"/><path class="cls-7" d="M3851,1267.78a847.73,847.73,0,0,1,11.93,98.42c1.56,32.87,1.72,66.07-5.08,98l5-2.7c-16.76-7.25-33.48-14.71-49.51-23.64s-31.74-18.41-47.06-28.57-30.45-20.66-45.11-31.82c-14.78-11-29.34-22.36-43.26-34.51a637.63,637.63,0,0,0,84.94,71.41c15,10.84,31,20.42,47.07,29.7a433.06,433.06,0,0,0,50.15,24.4l4.22,1.71.84-4.41c6.36-33.15,6.5-66.86,3.37-100a598.59,598.59,0,0,0-17.54-98"/><path class="cls-7" d="M3757.32,1179.16a276.85,276.85,0,0,1,12.29,53.06c1.93,17.92,2.2,36.06-2.13,53.24l3.67-2.77c-11.13-.74-22.35-3.37-33.41-6.42A327.73,327.73,0,0,1,3705,1264.9c-21.7-8.21-42.88-18-64.1-27.84a436.4,436.4,0,0,0,61.66,33.76,312.66,312.66,0,0,0,33.13,12.41c11.31,3.49,23,6.43,35.19,6.78l3,.09.64-2.86a137.11,137.11,0,0,0,.33-55.83,192.68,192.68,0,0,0-17.58-52.25"/><path class="cls-7" d="M3832.63,2057.31s-166.39-125-192-21.49,176.64,303.75,460.51,308.46,249.9,162.15,249.9,162.15,119.38-116.75-47.58-351-398.17-216.05-470.85-98.09"/><path class="cls-9" d="M3830.58,2065.38c3.47-1.29,10.84-2.08,16.82-1.55a112.26,112.26,0,0,1,19.16,2.89,216.59,216.59,0,0,1,37.63,13.58c24.54,11.33,47.64,26.25,69.76,42.41,11.27,7.81,21.69,16.72,32.72,25.08a303.57,303.57,0,0,0,34.77,23.91c24.26,14.22,50.24,24.94,76.56,33.8,52.31,18,107.54,28.94,153.32,60.07a195.83,195.83,0,0,1,56.73,59c14.73,23.35,25.41,49.18,33.29,75.72-7.26-26.73-17.36-52.84-31.64-76.75a199.61,199.61,0,0,0-56.19-61.13c-45.94-32.78-101.67-45.18-152.95-64.18-25.83-9.38-51-20.47-74.17-34.79-23.22-14-43.09-33.06-65.58-50-22.15-17-45.4-32.79-70.85-45.26a229,229,0,0,0-39.94-15.41,126.53,126.53,0,0,0-21.69-3.76c-7.73-.44-14.52-.86-24.15,2.46Z"/><path class="cls-9" d="M4329.76,2223.34c-11.13-4.06-22.9-6-34.64-7.63a312.48,312.48,0,0,0-35.54-1.9c-23.76.09-47.42,3.1-70.76,7.4l-5.25.95,2.7,4.66c12.36,21.35,24,43.08,35.42,65s22.39,44,32.74,66.52c-7.31-23.72-17.05-46.62-27.36-69.17-10.52-22.48-22.07-44.47-34.22-66.11l-2.55,5.63c11.46-2.29,23-4.36,34.56-5.84s23.22-2.46,34.89-3.24c23.31-1.12,46.89-.89,70,3.75"/><path class="cls-9" d="M4235,2113.77a869.08,869.08,0,0,0-107.14,9.09,522.33,522.33,0,0,0-52.93,10.62c-17.42,4.6-35,9.56-51.13,18.94l-2.37,1.38.58,2.6c3.27,15,6.91,29.84,11.31,44.51,4.57,14.63,9.48,29.17,15.91,43.1,6.27,14,13.09,27.73,21.49,40.56,8.53,12.67,17.85,25,29.49,34.87-10.85-10.67-19.1-23.57-26.55-36.66a318.94,318.94,0,0,1-19.32-40.92c-5.6-14-10.1-28.46-14.49-42.88-4.15-14.52-7.54-29.25-10.56-44.07l-1.79,4c15.16-8.32,32.18-13.86,49.23-18.5s34.6-8.22,52.15-11.39c35.07-6.43,70.53-11.26,106.12-15.22"/><path class="cls-9" d="M4075.2,2005.75c-15.21.5-30.11,4.58-44.85,8.32a407.49,407.49,0,0,0-43.35,14.77c-28.54,11.06-55.47,26-81.17,42.64l-1.08.69-.39,1.24c-5.47,17.38-9.88,35.14-11.93,53.26a269.38,269.38,0,0,0-1.68,54.52c2.81,36.22,12.26,72.19,30.15,103.55-7.83-16.22-13-33.5-16.91-50.95a268.48,268.48,0,0,1-7-53c-.58-17.77-.29-35.63,2.54-53.2,2.14-17.68,7-34.83,11.89-51.9l-1.47,1.93c25-17,51.67-31.24,79.19-43.72,13.76-6.27,27.91-11.64,42.22-16.6,14.29-4.79,28.78-10,43.84-11.59"/><path class="cls-9" d="M3850.22,2050.54a209.51,209.51,0,0,0-43.35,27.13,169.29,169.29,0,0,0-34.61,37.32,113.68,113.68,0,0,0-17.78,47.37c-3,16.9.69,33.87,4.69,50.06-3.39-16.38-6.35-33.3-2.79-49.77a110.79,110.79,0,0,1,19-45.49,164.57,164.57,0,0,1,35-34.94,204.73,204.73,0,0,1,42.7-24.57Z"/><path class="cls-8" d="M3549.79,2638.09c-36.2-22-72.8-43.57-111.06-62.09-19.1-9.29-38.45-18.16-58.5-25.66-20.15-7.71-41.13-12.36-62-16.49a496,496,0,0,0-63.62-7.67c-21.28-1.3-42.36-1.73-63-4.25a381.67,381.67,0,0,1-61.18-12.54c-20.69-6.15-42.16-9.39-63.32-11.66-84.95-8.05-170.47-4-254.34,9.84-41.86,7.15-83.48,16.6-123.55,30.87s-78.88,32.71-112.51,58.66c34.56-24.68,73.86-41.43,114-54.19a811.3,811.3,0,0,1,123.3-27.62c41.71-6.11,83.8-9.36,125.92-10.82s84.32-.49,126,4c20.86,2.41,41.44,5.65,61.33,11.73a342.34,342.34,0,0,0,63.07,12.82c21.38,2.39,42.71,2.62,63.67,3.75a483.3,483.3,0,0,1,62.42,6.93c20.62,3.92,41.15,8.39,60.88,15s39.34,14.82,58.6,23.42c38.4,17.51,76.63,35.82,113.91,55.94"/><path class="cls-8" d="M3242.57,2446.91a486.62,486.62,0,0,1,43.63,22.62,463.29,463.29,0,0,1,41.38,26.2c26.22,18.94,51.82,40.65,66.81,69.12l1.12-4.33c-13.91,9.09-27.89,18.09-42.3,26.37s-29.17,15.86-44.15,23a307.72,307.72,0,0,1-46.46,17.53c-15.84,4.38-32.51,8.21-49.06,5.46,16.39,3.86,33.55,1.11,49.86-2.29a305.69,305.69,0,0,0,47.73-16c15.53-6.44,30.4-14.26,45.08-22.37s28.87-17,43-26.1l2.56-1.66-1.44-2.69c-8-14.93-18.91-27.94-30.92-39.4a268.57,268.57,0,0,0-38.92-30.85,438.7,438.7,0,0,0-87.9-44.59"/><path class="cls-8" d="M3123,2440.63c24.09,11.34,46.48,25.76,67.83,41.39,21.1,16,41.34,33.12,59.72,52.17l.45-5c-13.27,9-26.69,17.76-40.72,25.47a407.44,407.44,0,0,1-43.49,20.37c-29.73,11.71-61.16,20.3-93.46,21.25,32.4,2,64.79-5.45,95.34-16.23,30.58-11.16,59.43-26.84,86.09-45.49l3.21-2.25-2.76-2.74c-19-18.87-39.39-36.52-61.53-51.57s-45.55-28.41-70.68-37.39"/><path class="cls-8" d="M2891.07,2412.21a692.86,692.86,0,0,1,80,38.39c25.44,14.82,50.4,31.17,70.18,52.68l.69-5q-37.41,23.07-76.1,44.07c-25.67,14.2-51.7,27.79-77.89,41.18,27.39-10.74,54.06-23.24,80.36-36.45q39.34-20.07,77.07-43.21l3.46-2.12-2.76-2.9c-21-22-46.26-38.73-72.64-52.59a491.72,491.72,0,0,0-82.41-34"/><path class="cls-8" d="M2719.57,2463.2a654.63,654.63,0,0,1,74.58,12.72,294.78,294.78,0,0,1,35.84,11c11.44,4.56,22.93,10.26,30.64,19.09l-.09-4.09c-8.43,9.69-19.34,17.9-30.3,25.6s-22.56,14.82-34.18,21.74c-23.15,14-46.91,27.17-70.69,40.34a768.54,768.54,0,0,0,73.47-35.51q17.8-10,34.95-21.36c11.33-7.68,22.6-15.69,31.78-26.83l1.71-2.1-1.8-2c-9.31-10.24-21.47-15.76-33.38-20.38s-24.48-7.65-36.95-10.13a440.31,440.31,0,0,0-75.58-8.11"/><path class="cls-12" d="M2611.45-112.18h-91.67V991a192.72,192.72,0,0,1-14.87,74.22c-.7,1.69-1.41,3.39-2.12,5.08a192.54,192.54,0,0,0-14.88,74.22V2600.18H2641V1146.72a192.87,192.87,0,0,0-10.67-63.2l-8.21-23.65a192.34,192.34,0,0,1-10.67-63.2Z"/><path class="cls-13" d="M2527.89-112.18V996.67a192.3,192.3,0,0,0,10.67,63.2l8.21,23.65a192.61,192.61,0,0,1,10.67,63.2V2600.18H2641V1146.72a192.61,192.61,0,0,0-10.67-63.2l-8.21-23.65a192.3,192.3,0,0,1-10.67-63.2V-112.18Z"/><rect class="cls-14" x="-172.79" y="-80.66" width="2533.4" height="2682.61"/><path class="cls-15" d="M510.64,146.48a25.24,25.24,0,0,0-25.19-25.27H176.84a25.24,25.24,0,0,0-25.19,25.27V197a25.25,25.25,0,0,0,25.19,25.27H485.45A25.25,25.25,0,0,0,510.64,197Z"/><path class="cls-16" d="M191.52,121.21H176.84a25.24,25.24,0,0,0-25.19,25.27V197a25.25,25.25,0,0,0,25.19,25.27h14.68A25.24,25.24,0,0,1,166.34,197V146.48A25.23,25.23,0,0,1,191.52,121.21Z"/><path class="cls-15" d="M1489.43,2193.41a25.24,25.24,0,0,0-25.19-25.27H1155.63a25.24,25.24,0,0,0-25.19,25.27V2244a25.25,25.25,0,0,0,25.19,25.27h308.61a25.25,25.25,0,0,0,25.19-25.27Z"/><path class="cls-16" d="M1170.32,2168.14h-14.69a25.24,25.24,0,0,0-25.19,25.27V2244a25.25,25.25,0,0,0,25.19,25.27h14.69a25.25,25.25,0,0,1-25.19-25.27v-50.54A25.24,25.24,0,0,1,1170.32,2168.14Z"/><path class="cls-15" d="M299.49,820.71a25.25,25.25,0,0,0-25.19-25.27H-34.31A25.25,25.25,0,0,0-59.5,820.71v50.54a25.24,25.24,0,0,0,25.19,25.27H274.3a25.24,25.24,0,0,0,25.19-25.27Z"/><path class="cls-16" d="M-19.63,795.44H-34.31A25.25,25.25,0,0,0-59.5,820.71v50.54a25.24,25.24,0,0,0,25.19,25.27h14.68a25.23,25.23,0,0,1-25.18-25.27V820.71A25.24,25.24,0,0,1-19.63,795.44Z"/><path class="cls-15" d="M2230.55,2200a25.24,25.24,0,0,0-25.19-25.27H1896.75a25.24,25.24,0,0,0-25.19,25.27v50.54a25.24,25.24,0,0,0,25.19,25.27h308.61a25.24,25.24,0,0,0,25.19-25.27Z"/><path class="cls-16" d="M1911.43,2174.73h-14.68a25.24,25.24,0,0,0-25.19,25.27v50.54a25.24,25.24,0,0,0,25.19,25.27h14.68a25.24,25.24,0,0,1-25.19-25.27V2200A25.24,25.24,0,0,1,1911.43,2174.73Z"/><path class="cls-15" d="M2228.26,466.89a25.24,25.24,0,0,0-25.19-25.27h-308.6a25.24,25.24,0,0,0-25.19,25.27v50.54a25.24,25.24,0,0,0,25.19,25.27h308.6a25.24,25.24,0,0,0,25.19-25.27Z"/><path class="cls-16" d="M1909.15,441.62h-14.68a25.24,25.24,0,0,0-25.19,25.27v50.54a25.24,25.24,0,0,0,25.19,25.27h14.68A25.24,25.24,0,0,1,1884,517.43V466.89A25.24,25.24,0,0,1,1909.15,441.62Z"/><path class="cls-15" d="M1975.72,1882.09a25.23,25.23,0,0,0-25.18-25.27H1641.93a25.24,25.24,0,0,0-25.19,25.27v50.54a25.25,25.25,0,0,0,25.19,25.27h308.61a25.24,25.24,0,0,0,25.18-25.27Z"/><path class="cls-16" d="M1656.61,1856.82h-14.68a25.24,25.24,0,0,0-25.19,25.27v50.54a25.25,25.25,0,0,0,25.19,25.27h14.68a25.25,25.25,0,0,1-25.19-25.27v-50.54A25.24,25.24,0,0,1,1656.61,1856.82Z"/><path class="cls-15" d="M647.49,258.33a25.23,25.23,0,0,0-25.19-25.26H313.7a25.23,25.23,0,0,0-25.19,25.26v50.54a25.24,25.24,0,0,0,25.19,25.27H622.3a25.24,25.24,0,0,0,25.19-25.27Z"/><path class="cls-16" d="M328.38,233.07H313.7a25.23,25.23,0,0,0-25.19,25.26v50.54a25.24,25.24,0,0,0,25.19,25.27h14.68a25.24,25.24,0,0,1-25.19-25.27V258.33A25.24,25.24,0,0,1,328.38,233.07Z"/><path class="cls-15" d="M1626.28,2305.27A25.23,25.23,0,0,0,1601.1,2280H1292.49a25.24,25.24,0,0,0-25.19,25.27v50.53a25.24,25.24,0,0,0,25.19,25.27H1601.1a25.23,25.23,0,0,0,25.18-25.27Z"/><path class="cls-16" d="M1307.17,2280h-14.68a25.24,25.24,0,0,0-25.19,25.27v50.53a25.24,25.24,0,0,0,25.19,25.27h14.68A25.24,25.24,0,0,1,1282,2355.8v-50.53A25.24,25.24,0,0,1,1307.17,2280Z"/><path class="cls-15" d="M436.34,932.57a25.24,25.24,0,0,0-25.19-25.27H102.55a25.24,25.24,0,0,0-25.19,25.27v50.54a25.24,25.24,0,0,0,25.19,25.27h308.6a25.24,25.24,0,0,0,25.19-25.27Z"/><path class="cls-16" d="M117.23,907.3H102.55a25.24,25.24,0,0,0-25.19,25.27v50.54a25.24,25.24,0,0,0,25.19,25.27h14.68A25.24,25.24,0,0,1,92,983.11V932.57A25.24,25.24,0,0,1,117.23,907.3Z"/><path class="cls-15" d="M306.4,1770.8a25.24,25.24,0,0,0-25.19-25.27H-27.4a25.24,25.24,0,0,0-25.19,25.27v50.54a25.25,25.25,0,0,0,25.19,25.27H281.21a25.25,25.25,0,0,0,25.19-25.27Z"/><path class="cls-16" d="M-12.71,1745.53H-27.4a25.24,25.24,0,0,0-25.19,25.27v50.54a25.25,25.25,0,0,0,25.19,25.27h14.69a25.25,25.25,0,0,1-25.19-25.27V1770.8A25.24,25.24,0,0,1-12.71,1745.53Z"/><path class="cls-15" d="M2371.64,133a25.24,25.24,0,0,0-25.19-25.27h-308.6A25.24,25.24,0,0,0,2012.66,133v50.54a25.24,25.24,0,0,0,25.19,25.27h308.6a25.24,25.24,0,0,0,25.19-25.27Z"/><path class="cls-16" d="M2052.53,107.68h-14.68A25.24,25.24,0,0,0,2012.66,133v50.54a25.24,25.24,0,0,0,25.19,25.27h14.68a25.24,25.24,0,0,1-25.19-25.27V133A25.24,25.24,0,0,1,2052.53,107.68Z"/><path class="cls-15" d="M2373.65,1347.7a25.24,25.24,0,0,0-25.19-25.27h-308.6a25.24,25.24,0,0,0-25.19,25.27v50.54a25.24,25.24,0,0,0,25.19,25.27h308.6a25.24,25.24,0,0,0,25.19-25.27Z"/><path class="cls-16" d="M2054.54,1322.43h-14.68a25.24,25.24,0,0,0-25.19,25.27v50.54a25.24,25.24,0,0,0,25.19,25.27h14.68a25.24,25.24,0,0,1-25.19-25.27V1347.7A25.24,25.24,0,0,1,2054.54,1322.43Z"/><path class="cls-15" d="M931.32,2190.61a25.24,25.24,0,0,0-25.19-25.27H597.52a25.24,25.24,0,0,0-25.19,25.27v50.54a25.25,25.25,0,0,0,25.19,25.27H906.13a25.25,25.25,0,0,0,25.19-25.27Z"/><path class="cls-16" d="M612.2,2165.34H597.52a25.24,25.24,0,0,0-25.19,25.27v50.54a25.25,25.25,0,0,0,25.19,25.27H612.2A25.24,25.24,0,0,1,587,2241.15v-50.54A25.23,25.23,0,0,1,612.2,2165.34Z"/><path class="cls-15" d="M2367.41,2311.86a25.24,25.24,0,0,0-25.19-25.27H2033.61a25.24,25.24,0,0,0-25.19,25.27v50.54a25.24,25.24,0,0,0,25.19,25.27h308.61a25.24,25.24,0,0,0,25.19-25.27Z"/><path class="cls-16" d="M2048.3,2286.59h-14.69a25.24,25.24,0,0,0-25.19,25.27v50.54a25.24,25.24,0,0,0,25.19,25.27h14.69a25.24,25.24,0,0,1-25.19-25.27v-50.54A25.24,25.24,0,0,1,2048.3,2286.59Z"/><path class="cls-15" d="M2365.12,578.75a25.24,25.24,0,0,0-25.19-25.27H2031.32a25.24,25.24,0,0,0-25.19,25.27v50.54a25.25,25.25,0,0,0,25.19,25.27h308.61a25.25,25.25,0,0,0,25.19-25.27Z"/><path class="cls-16" d="M2046,553.48h-14.68a25.24,25.24,0,0,0-25.19,25.27v50.54a25.25,25.25,0,0,0,25.19,25.27H2046a25.25,25.25,0,0,1-25.19-25.27V578.75A25.24,25.24,0,0,1,2046,553.48Z"/><path class="cls-15" d="M2112.58,1993.93a25.25,25.25,0,0,0-25.19-25.27H1778.78a25.25,25.25,0,0,0-25.19,25.27v50.54a25.24,25.24,0,0,0,25.19,25.27h308.61a25.24,25.24,0,0,0,25.19-25.27Z"/><path class="cls-16" d="M1793.46,1968.66h-14.68a25.25,25.25,0,0,0-25.19,25.27v50.54a25.24,25.24,0,0,0,25.19,25.27h14.68a25.23,25.23,0,0,1-25.18-25.27v-50.54A25.24,25.24,0,0,1,1793.46,1968.66Z"/><path class="cls-15" d="M440,715.2a25.24,25.24,0,0,0-25.19-25.27H106.19A25.24,25.24,0,0,0,81,715.2v50.54A25.25,25.25,0,0,0,106.19,791H414.8A25.25,25.25,0,0,0,440,765.74Z"/><path class="cls-16" d="M120.88,689.93H106.19A25.24,25.24,0,0,0,81,715.2v50.54A25.25,25.25,0,0,0,106.19,791h14.69a25.24,25.24,0,0,1-25.19-25.27V715.2A25.24,25.24,0,0,1,120.88,689.93Z"/><path class="cls-15" d="M2371.05,2094.48a25.24,25.24,0,0,0-25.19-25.27h-308.6a25.24,25.24,0,0,0-25.19,25.27V2145a25.24,25.24,0,0,0,25.19,25.27h308.6a25.25,25.25,0,0,0,25.19-25.27Z"/><path class="cls-16" d="M2051.94,2069.21h-14.68a25.24,25.24,0,0,0-25.19,25.27V2145a25.24,25.24,0,0,0,25.19,25.27h14.68a25.25,25.25,0,0,1-25.19-25.27v-50.54A25.24,25.24,0,0,1,2051.94,2069.21Z"/><path class="cls-15" d="M2368.77,361.37a25.25,25.25,0,0,0-25.19-25.27H2035a25.25,25.25,0,0,0-25.19,25.27v50.54A25.24,25.24,0,0,0,2035,437.18h308.61a25.24,25.24,0,0,0,25.19-25.27Z"/><path class="cls-16" d="M2049.66,336.1H2035a25.25,25.25,0,0,0-25.19,25.27v50.54A25.24,25.24,0,0,0,2035,437.18h14.69a25.24,25.24,0,0,1-25.19-25.27V361.37A25.25,25.25,0,0,1,2049.66,336.1Z"/><path class="cls-15" d="M2116.22,1776.56a25.24,25.24,0,0,0-25.19-25.27H1782.42a25.24,25.24,0,0,0-25.19,25.27v50.54a25.24,25.24,0,0,0,25.19,25.27H2091a25.24,25.24,0,0,0,25.19-25.27Z"/><path class="cls-16" d="M1797.11,1751.29h-14.69a25.24,25.24,0,0,0-25.19,25.27v50.54a25.24,25.24,0,0,0,25.19,25.27h14.69a25.24,25.24,0,0,1-25.19-25.27v-50.54A25.24,25.24,0,0,1,1797.11,1751.29Z"/><path class="cls-17" d="M1899,416.59a54.12,54.12,0,0,0-54-54.18H427.05a54.12,54.12,0,0,0-54,54.18V2117.51a54.12,54.12,0,0,0,54,54.17H1845a54.12,54.12,0,0,0,54-54.17Z"/><path class="cls-16" d="M1960.53,324.67a54.11,54.11,0,0,0-54-54.17H488.59a54.11,54.11,0,0,0-54,54.17V2025.6a54.12,54.12,0,0,0,54,54.17H1906.53a54.12,54.12,0,0,0,54-54.17Z"/><ellipse class="cls-18" cx="538.31" cy="336.04" rx="19.5" ry="19.56"/><ellipse class="cls-18" cx="538.31" cy="2011.36" rx="19.5" ry="19.56"/><ellipse class="cls-18" cx="1908.6" cy="336.04" rx="19.5" ry="19.56"/><ellipse class="cls-18" cx="1908.6" cy="2011.36" rx="19.5" ry="19.56"/><path class="cls-19" d="M522.13,270.5H488.59a54.11,54.11,0,0,0-54,54.17V2025.6a54.12,54.12,0,0,0,54,54.17h33.54c-29.12,0-52.77-24.28-52.77-54.17V324.67C469.36,294.77,493,270.5,522.13,270.5Zm1438.4,54.17v0Z"/><path class="cls-20" d="M922.64,402.28c0-13.7-12.3-24.82-27.45-24.82H646.41c-15.16,0-27.46,11.12-27.46,24.82V530.92c0,13.7,12.3,24.82,27.46,24.82H895.19c15.15,0,27.45-11.12,27.45-24.82Z"/><path class="cls-20" d="M922.64,642.36c0-13.7-12.3-24.83-27.45-24.83H646.41c-15.16,0-27.46,11.13-27.46,24.83V771c0,13.71,12.3,24.83,27.46,24.83H895.19c15.15,0,27.45-11.12,27.45-24.83Z"/><path class="cls-20" d="M922.64,882.44c0-13.71-12.3-24.83-27.45-24.83H646.41c-15.16,0-27.46,11.12-27.46,24.83v128.63c0,13.7,12.3,24.83,27.46,24.83H895.19c15.15,0,27.45-11.13,27.45-24.83Z"/><path class="cls-20" d="M922.64,1122.51c0-13.7-12.3-24.82-27.45-24.82H646.41c-15.16,0-27.46,11.12-27.46,24.82v128.64c0,13.7,12.3,24.82,27.46,24.82H895.19c15.15,0,27.45-11.12,27.45-24.82Z"/><path class="cls-20" d="M922.64,1362.59c0-13.7-12.3-24.82-27.45-24.82H646.41c-15.16,0-27.46,11.12-27.46,24.82v128.63c0,13.71,12.3,24.83,27.46,24.83H895.19c15.15,0,27.45-11.12,27.45-24.83Z"/><path class="cls-20" d="M922.64,1602.67c0-13.7-12.3-24.83-27.45-24.83H646.41c-15.16,0-27.46,11.13-27.46,24.83V1731.3c0,13.7,12.3,24.83,27.46,24.83H895.19c15.15,0,27.45-11.13,27.45-24.83Z"/><path class="cls-20" d="M922.64,1834.85c0-13.7-12.3-24.82-27.45-24.82H646.41c-15.16,0-27.46,11.12-27.46,24.82v128.64c0,13.7,12.3,24.82,27.46,24.82H895.19c15.15,0,27.45-11.12,27.45-24.82Z"/><path class="cls-21" d="M778.68,508.57q11.25,0,14.77-11.18t3.5-32.28q0-22.1-3.5-32.74t-14.77-10.63q-11.28,0-14.91,10.63t-3.65,32.74q0,21.11,3.65,32.28T778.68,508.57Zm44.37-43.46q0,30.3-9.9,46.67t-34.47,16.36q-24.58,0-34.49-16.36t-9.9-46.67q0-30.28,9.9-46.74t34.49-16.46q24.57,0,34.47,16.46T823.05,465.11Z"/><path class="cls-21" d="M734.05,683.69V667.32q12-.51,16.78-1.52a24,24,0,0,0,12.43-6.41,20.91,20.91,0,0,0,5-8.78,19.15,19.15,0,0,0,1-4.89h21V768.07H764.32V683.69Z"/><path class="cls-21" d="M731.74,989.38q5.43-12.23,25.56-25.9,17.49-11.9,22.63-17.05,7.91-8,7.9-17.55A18.83,18.83,0,0,0,783.31,916q-4.53-5.15-13-5.14-11.54,0-15.71,8.18-2.4,4.72-2.84,15H727.22q.62-15.62,5.94-25.23,10.13-18.31,36-18.31,20.4,0,32.49,10.76t12.06,28.48a37.34,37.34,0,0,1-8.52,24.13q-5.58,7-18.37,15.61l-10.11,6.83q-9.51,6.42-13,9.29a27.32,27.32,0,0,0-5.9,6.66h56.18v21.18H725.8A55.23,55.23,0,0,1,731.74,989.38Z"/><path class="cls-21" d="M748,1209.12a26.33,26.33,0,0,0,2.48,12.15q4.61,8.87,16.77,8.86a19.17,19.17,0,0,0,13-4.85q5.54-4.86,5.54-14,0-12.06-10.29-16.11-5.85-2.28-18.47-2.28V1175.7q12.35-.17,17.22-2.27,8.43-3.56,8.44-14.35a15.56,15.56,0,0,0-4.31-11.39c-2.86-2.93-6.91-4.39-12.11-4.39q-9,0-13.18,5.4t-4,14.43H725.47a57.63,57.63,0,0,1,3.28-17.3,39.08,39.08,0,0,1,9.77-13.24,34.37,34.37,0,0,1,11.8-6.59,53.83,53.83,0,0,1,16.77-2.27q18.46,0,29.78,9.07t11.32,24.34a26.11,26.11,0,0,1-6.74,18.23,22.94,22.94,0,0,1-8.88,6.32q3.45,0,9.94,5.66,9.68,8.52,9.67,23.29,0,15.52-11.31,27.29t-33.51,11.77q-27.33,0-38-17-5.58-9-6.2-23.62Z"/><path class="cls-21" d="M807.9,1456.39H793.34v26.33H768.58v-26.33h-51v-21L765,1361.13h28.39v76.45H807.9Zm-39.32-18.81v-52.82l-32.22,52.82Z"/><path class="cls-21" d="M817.83,1626.79q-5.69,5.31-15.81,18.94a166.4,166.4,0,0,0-16.95,28.14,163,163,0,0,0-9.76,27.85q-4.35,16.46-4.34,27H744.69q1.15-32.91,22.72-68.43,13.94-22,23.35-30.71H726.58l.36-21.61h90.89Z"/><path class="cls-21" d="M765.07,1941q8.7,0,13.63-5t4.92-14q0-9.37-5-14.22T765.07,1903q-8.52,0-13.54,4.85t-5,14.22q0,9,4.92,14T765.07,1941Zm-25.47-48.6q-9.33-5.91-12.12-12.78a34.4,34.4,0,0,1-2.79-12.87q0-13.33,10.56-22.74t29.82-9.41q19.26,0,29.82,9.41t10.56,22.74a34.4,34.4,0,0,1-2.79,12.87q-2.79,6.87-12.12,11.94A34.85,34.85,0,0,1,804.83,1905a36.76,36.76,0,0,1,4.79,18.65q0,15.45-12,26.29T764,1960.79q-21.56,0-32.66-10.84a35.41,35.41,0,0,1-11.09-26.29,36,36,0,0,1,4.93-18.65A30.62,30.62,0,0,1,739.6,1892.44Zm25.47-7.85q7.73,0,11.94-4.22a14.73,14.73,0,0,0,4.21-10.88q0-7.26-4.21-11.35t-11.94-4.09q-7.64,0-11.94,4.09c-2.86,2.73-4.31,6.51-4.31,11.35a14.61,14.61,0,0,0,4.31,10.88Q757.44,1884.6,765.07,1884.59Z"/><path class="cls-22" d="M1808.22,402.28c0-13.7-12.29-24.82-27.44-24.82H1177.32c-15.15,0-27.45,11.12-27.45,24.82V530.92c0,13.7,12.3,24.82,27.45,24.82h603.46c15.15,0,27.44-11.12,27.44-24.82Z"/><path class="cls-22" d="M1808.22,642.36c0-13.7-12.29-24.83-27.44-24.83H1177.32c-15.15,0-27.45,11.13-27.45,24.83V771c0,13.71,12.3,24.83,27.45,24.83h603.46c15.15,0,27.44-11.12,27.44-24.83Z"/><path class="cls-22" d="M1808.22,882.44c0-13.71-12.29-24.83-27.44-24.83H1177.32c-15.15,0-27.45,11.12-27.45,24.83v128.63c0,13.7,12.3,24.83,27.45,24.83h603.46c15.15,0,27.44-11.13,27.44-24.83Z"/><path class="cls-22" d="M1808.22,1122.51c0-13.7-12.29-24.82-27.44-24.82H1177.32c-15.15,0-27.45,11.12-27.45,24.82v128.64c0,13.7,12.3,24.82,27.45,24.82h603.46c15.15,0,27.44-11.12,27.44-24.82Z"/><path class="cls-22" d="M1808.22,1362.59c0-13.7-12.29-24.82-27.44-24.82H1177.32c-15.15,0-27.45,11.12-27.45,24.82v128.63c0,13.71,12.3,24.83,27.45,24.83h603.46c15.15,0,27.44-11.12,27.44-24.83Z"/><path class="cls-22" d="M1808.22,1602.67c0-13.7-12.29-24.83-27.44-24.83H1177.32c-15.15,0-27.45,11.13-27.45,24.83V1731.3c0,13.7,12.3,24.83,27.45,24.83h603.46c15.15,0,27.44-11.13,27.44-24.83Z"/><path class="cls-22" d="M1808.22,1834.85c0-13.7-12.29-24.82-27.44-24.82H1177.32c-15.15,0-27.45,11.12-27.45,24.82v128.64c0,13.7,12.3,24.82,27.45,24.82h603.46c15.15,0,27.44-11.12,27.44-24.82Z"/><path class="cls-23" d="M1471.54,503.84q11.37,0,14.9-11.27T1490,460q0-22.28-3.53-33t-14.9-10.71q-11.36,0-15,10.71t-3.67,33q0,21.27,3.67,32.53T1471.54,503.84Zm44.73-43.8q0,30.54-10,47t-34.75,16.5q-24.76,0-34.75-16.5t-10-47q0-30.53,10-47.11t34.75-16.58q24.78,0,34.75,16.58T1516.27,460Z"/><path class="cls-23" d="M1447.72,681v-16.5q12.08-.51,16.91-1.53a24.23,24.23,0,0,0,12.52-6.46,20.91,20.91,0,0,0,5-8.85,19.14,19.14,0,0,0,1-4.93h21.2V766h-26.12V681Z"/><path class="cls-23" d="M1384.07,919.16V902.67q12.08-.51,16.91-1.53a24.21,24.21,0,0,0,12.52-6.47,21.08,21.08,0,0,0,5-8.84,19.58,19.58,0,0,0,1-4.93h21.2v123.3h-26.12v-85Z"/><path class="cls-23" d="M1523.69,987.53q11.37,0,14.9-11.26t3.53-32.53q0-22.28-3.53-33T1523.69,900q-11.36,0-15,10.72t-3.67,33q0,21.25,3.67,32.53T1523.69,987.53Zm44.72-43.79q0,30.53-10,47t-34.75,16.49q-24.76,0-34.75-16.49t-10-47q0-30.53,10-47.11t34.75-16.58q24.78,0,34.75,16.58T1568.41,943.74Z"/><path class="cls-23" d="M1390.2,1167.43v-16.5q12.08-.51,16.91-1.53a24.23,24.23,0,0,0,12.52-6.46,21.12,21.12,0,0,0,5-8.85,19.14,19.14,0,0,0,1-4.93h21.2v123.3H1420.7v-85Z"/><path class="cls-23" d="M1492.08,1167.43v-16.5q12.08-.51,16.9-1.53a24.16,24.16,0,0,0,12.52-6.46,20.91,20.91,0,0,0,5-8.85,18.83,18.83,0,0,0,1-4.93h21.2v123.3h-26.12v-85Z"/><path class="cls-23" d="M1332,1399.91v-16.49q12.08-.51,16.91-1.53a24.28,24.28,0,0,0,12.52-6.47,20.93,20.93,0,0,0,5-8.84,19.66,19.66,0,0,0,1-4.93h21.2V1485h-26.11v-85Z"/><path class="cls-23" d="M1471.6,1468.28q11.34,0,14.89-11.27t3.53-32.52q0-22.27-3.53-33t-14.89-10.71q-11.37,0-15,10.71t-3.67,33q0,21.26,3.67,32.52T1471.6,1468.28Zm44.72-43.79q0,30.52-10,47T1471.6,1488q-24.8,0-34.76-16.5t-10-47q0-30.52,10-47.11t34.76-16.58q24.76,0,34.74,16.58T1516.32,1424.49Z"/><path class="cls-23" d="M1573.47,1468.28q11.35,0,14.89-11.27t3.54-32.52q0-22.27-3.54-33t-14.89-10.71q-11.35,0-15,10.71t-3.66,33q0,21.26,3.66,32.52T1573.47,1468.28Zm44.73-43.79q0,30.52-10,47t-34.75,16.5q-24.78,0-34.75-16.5t-10-47q0-30.52,10-47.11t34.75-16.58q24.77,0,34.75,16.58T1618.2,1424.49Z"/><path class="cls-23" d="M1330.75,1643.09v-16.5q12.07-.51,16.9-1.53a24.08,24.08,0,0,0,12.52-6.46,20.93,20.93,0,0,0,5-8.84,19.31,19.31,0,0,0,1-4.94h21.2v123.31h-26.12v-85Z"/><path class="cls-23" d="M1432.63,1643.09v-16.5q12.06-.51,16.9-1.53a24.16,24.16,0,0,0,12.52-6.46,20.93,20.93,0,0,0,5-8.84,19.31,19.31,0,0,0,1-4.94h21.19v123.31h-26.11v-85Z"/><path class="cls-23" d="M1534.5,1643.09v-16.5q12.07-.51,16.91-1.53a24.16,24.16,0,0,0,12.52-6.46,20.93,20.93,0,0,0,5-8.84,19.19,19.19,0,0,0,1-4.94h21.2v123.31H1565v-85Z"/><path class="cls-23" d="M1266.15,1872.19v-16.5q12.07-.51,16.9-1.53a24.16,24.16,0,0,0,12.52-6.46,20.91,20.91,0,0,0,5-8.85,18.83,18.83,0,0,0,1-4.93h21.2v123.3h-26.12v-85Z"/><path class="cls-23" d="M1405.77,1940.56q11.37,0,14.89-11.27t3.54-32.53q0-22.27-3.54-33t-14.89-10.71q-11.36,0-15,10.71t-3.67,33q0,21.27,3.67,32.53T1405.77,1940.56Zm44.72-43.8q0,30.54-10,47t-34.75,16.49q-24.76,0-34.74-16.49t-10-47q0-30.52,10-47.11t34.74-16.58q24.78,0,34.75,16.58T1450.49,1896.76Z"/><path class="cls-23" d="M1507.65,1940.56q11.36,0,14.89-11.27t3.53-32.53q0-22.27-3.53-33t-14.89-10.71q-11.36,0-15,10.71t-3.68,33q0,21.27,3.68,32.53T1507.65,1940.56Zm44.72-43.8q0,30.54-10,47t-34.75,16.49q-24.76,0-34.75-16.49t-10-47q0-30.52,10-47.11t34.75-16.58q24.78,0,34.75,16.58T1552.37,1896.76Z"/><path class="cls-23" d="M1609.53,1940.56q11.35,0,14.89-11.27t3.53-32.53q0-22.27-3.53-33t-14.89-10.71q-11.37,0-15,10.71t-3.67,33q0,21.27,3.67,32.53T1609.53,1940.56Zm44.72-43.8q0,30.54-10,47t-34.75,16.49q-24.78,0-34.75-16.49t-10-47q0-30.52,10-47.11t34.75-16.58q24.78,0,34.75,16.58T1654.25,1896.76Z"/><path class="cls-24" d="M2176.57,2372.57c-12.83-20.29-106.31,70.38-87.77,118.07,37.83,97.33,286.93,94.46,298.82-14.39"/><path class="cls-24" d="M2097.46,2268.88c-20.59,4.83-75.41,106.18-58.09,132.76,20.16,30.92,116.52,24.92,144.32,6.1,11.16-7.55,29.88-48.49,39.42-61.8"/><path class="cls-25" d="M2228.72,1677.3,1797.14,402.15l-634.39-26.4L1145.46,2035,1810,2019.55l349.9-165.69Z"/><path class="cls-26" d="M2228.72,1677.3,1797.14,402.15l-634.39-26.4L1145.46,2035,1810,2019.55l349.9-165.69Z"/><path class="cls-27" d="M2115.73,1712.6,1520.32,476.31l547,1282.39Z"/><path class="cls-28" d="M2115.73,1724,1275.24,792.08l772.17,966.62Z"/><path class="cls-29" d="M3959,2912.63l74.42,73.07c12.62,12.39,16,30.89,8.8,47.59s-23.87,28.59-42.73,30.59L2804.18,3191c-41.32,4.39-81-10.6-105.9-40C2548.89,2974.46,1918,2100.53,1918,2100.53s15.37-6.8,22-4.15C2280.19,2231.73,3959,2912.63,3959,2912.63Z"/><path class="cls-30" d="M1904.4,1917.13,3959,2912.63l74.42,73.07a41.9,41.9,0,0,1,7.58,10.05l-1185.94,134.5c-62.29,7.07-122.21-15.77-159.07-60.62-196.38-238.94-770.41-968.54-770.41-968.54l-27.29-171.74Z"/><path class="cls-31" d="M1893.41,1645.69s-14.94,33-25.77,56.86a85.25,85.25,0,0,0-6.72,49.52c11.36,67,42.2,248.66,53.46,315a92.69,92.69,0,0,0,20.34,44L2708,3036.26c38.27,45.8,100,68.92,164,61.45,249.51-29.11,880.92-94,1089.27-118.36,41.4-4.83,86-40.24,102-76.86,11.14-25.5,19.62-50,19.62-50Z"/><path class="cls-32" d="M2469.05,2750.38l6,7.25,26.1-5.38A306.56,306.56,0,0,1,2469.05,2750.38ZM1907.2,2024.8l7.18,42.29a92.68,92.68,0,0,0,20.33,44l527,630.54c-14.77-27.09-23.31-57.56-34.07-86.33-18.41-49.19-44-106-75.55-148-53.83-71.55-115.27-140-178.27-203.67-48.6-49.12-102.62-84.94-148.28-138.9C2007.23,2143.07,1956,2066.08,1907.2,2024.8Z"/><path class="cls-33" d="M3305.59,1909.58a52,52,0,0,0,9,15.67l754.94,907.05c7.75,9.31,9.11,22.18,3.53,33.48s-17.19,19.17-30.19,20.49c-227.2,23.11-974.14,99.1-1176.28,119.65-31.76,3.24-62.18-8.48-81.11-31.21L2015.3,2049.36l-.25,0s-93.73-260.21-131.68-365.59c-3.74-10.34-1.95-22,4.8-31.54a41.58,41.58,0,0,1,29.62-17l1192.35-120.08c30.44-3.07,58.08,13.11,67.61,39.55Z"/><path class="cls-34" d="M3314.83,1897.34a52.11,52.11,0,0,0,9,15.67l755,907.05c7.75,9.31,9.1,22.18,3.52,33.47s-17.18,19.17-30.19,20.49L2875.82,2993.68c-31.77,3.23-62.19-8.48-81.12-31.22l-770.17-925.34-.24,0s-93.74-260.21-131.69-365.59c-3.73-10.33-1.95-22,4.81-31.54a41.57,41.57,0,0,1,29.61-17l1192.35-120.09c30.44-3.06,58.09,13.11,67.61,39.56Z"/><path class="cls-35" d="M2316.41,1583.76l803-80.86c30.44-3.07,58.09,13.11,67.61,39.54l127.84,354.9a52.28,52.28,0,0,0,9,15.68l729.8,876.83c-67.09,40.57-178.06-78.78-215.27-118.18-102-108.05-194.68-224.42-286.57-341.07-63.37-80.43-112.86-192.72-198.84-251.95-88.08-60.69-582.63,8.12-719.29,8.12-35.33,0-201.34,15.22-222.85-14.87a1.89,1.89,0,0,1-.11-1.41c3.81-22.45,218.71-42.73,246-45.2,95.73-8.67,573.69-12.15,619.14-100.54,10.66-20.7-5.95-61.36-14-80.68-77.68-186.13-350.38-198-517.68-178.62-89.64,10.39-181.46,37.23-272,16.82-38.57-8.69-86.79-22-117.9-47.77C2344.5,1626.39,2329.59,1606.83,2316.41,1583.76Z"/><ellipse class="cls-36" cx="2597.84" cy="2063.97" rx="220.17" ry="35.01" transform="translate(-94.69 125.14) rotate(-2.71)"/><path class="cls-37" d="M2812.44,2828.75c-5.35-6.36-2.06-12.25,7.35-13.18l127.65-12.52c9.41-.92,21.39,3.48,26.74,9.82l19.39,23c5.36,6.34,2.07,12.24-7.34,13.16l-127.66,12.54c-9.4.92-21.38-3.48-26.74-9.82Zm214.83-21.1c-5.35-6.34-2.06-12.24,7.34-13.16L3162.27,2782c9.4-.93,21.38,3.47,26.73,9.81l19.4,23c5.35,6.34,2.06,12.23-7.34,13.16l-127.67,12.53c-9.4.93-21.38-3.47-26.73-9.81Zm-349.61-128.74c-9.66-11.45-3.73-22.09,13.24-23.76l230.34-22.6c17-1.67,38.58,6.26,48.24,17.71l35,41.46c9.65,11.45,3.71,22.09-13.25,23.75l-230.34,22.61c-17,1.67-38.58-6.27-48.24-17.71Zm387.6-38c-9.66-11.45-3.72-22.09,13.25-23.76l230.33-22.6c17-1.67,38.59,6.26,48.24,17.71l35,41.46c9.66,11.45,3.72,22.09-13.25,23.76L3148.49,2700c-17,1.67-38.59-6.27-48.24-17.71Zm-512.77-110.28c-9.66-11.44-3.73-22.09,13.25-23.75l230.33-22.61c17-1.67,38.58,6.27,48.24,17.71l35,41.46c9.65,11.45,3.72,22.09-13.25,23.76l-230.34,22.6c-17,1.67-38.58-6.26-48.24-17.71Zm900.37,72.23c-9.65-11.43-3.71-22.09,13.25-23.74l230.34-22.62c17-1.67,38.59,6.28,48.24,17.72l35,41.45c9.66,11.46,3.72,22.09-13.25,23.76L3536.1,2662c-17,1.67-38.59-6.27-48.25-17.72Zm-512.77-110.28c-9.66-11.44-3.72-22.08,13.25-23.75l230.34-22.61c17-1.66,38.58,6.28,48.24,17.71l35,41.48c9.65,11.43,3.72,22.07-13.25,23.74l-230.34,22.62c-17,1.65-38.59-6.28-48.24-17.73Zm-512.77-110.28c-9.66-11.44-3.72-22.08,13.25-23.75l230.33-22.6c17-1.67,38.58,6.26,48.24,17.7l35,41.47c9.66,11.44,3.71,22.09-13.25,23.75l-230.34,22.61c-17,1.66-38.59-6.27-48.25-17.71Zm900.38,72.23c-9.66-11.44-3.72-22.07,13.25-23.74l230.34-22.61c17-1.67,38.58,6.27,48.24,17.71l35,41.46c9.65,11.44,3.71,22.08-13.25,23.75l-230.34,22.62c-17,1.65-38.59-6.28-48.24-17.72Zm-512.78-110.27c-9.66-11.45-3.71-22.09,13.25-23.76l230.34-22.6c17-1.67,38.59,6.27,48.24,17.71l35,41.46c9.66,11.45,3.72,22.09-13.25,23.75l-230.34,22.62c-17,1.65-38.57-6.28-48.23-17.72Zm-494.66-94.38c-4.66-5.52-2.32-10.61,5.22-11.35l170.19-16.7c7.53-.74,17.43,3.14,22.09,8.66l16.88,20c4.67,5.52,2.32,10.6-5.21,11.34l-170.19,16.7c-7.54.75-17.44-3.13-22.09-8.66Zm285.84-28.06c-4.66-5.52-2.32-10.6,5.21-11.34l170.19-16.7c7.54-.74,17.44,3.14,22.1,8.66l16.88,20c4.66,5.52,2.32,10.61-5.21,11.35l-170.19,16.7c-7.54.74-17.44-3.14-22.1-8.66Zm596.43,84.39c-9.65-11.44-3.72-22.08,13.25-23.75l230.34-22.61c17-1.66,38.58,6.27,48.24,17.71l35,41.47c9.65,11.44,3.72,22.08-13.25,23.75l-230.34,22.61c-17,1.66-38.58-6.28-48.24-17.72Zm-310.61-112.44c-4.65-5.52-2.32-10.61,5.23-11.35l170.18-16.7c7.54-.74,17.45,3.14,22.1,8.66l16.89,20c4.65,5.52,2.32,10.6-5.22,11.34l-170.19,16.7c-7.54.74-17.45-3.14-22.1-8.66Zm285.84-28.06c-4.66-5.52-2.32-10.6,5.22-11.34l170.19-16.71c7.54-.74,17.44,3.14,22.1,8.66l16.88,20c4.66,5.52,2.32,10.6-5.22,11.34l-170.18,16.71c-7.54.74-17.45-3.14-22.11-8.66Z"/><path class="cls-31" d="M2819.48,2808.27c-5.26-6.34-.45-34.14,8.84-35.07l124.61,9.06c9.29-.94,21.11,3.43,26.37,9.75l25.33,3.63c5.27,6.32-4.26,31.5-13.55,32.45l-126.15,12.84c-9.29.94-21.11-3.43-26.37-9.75Zm212.28-21.61c-5.26-6.32-.66-33.34,8.63-34.29l124.81,8.3c9.3-1,21.12,3.42,26.38,9.74l25.89,3.66c5.27,6.33-4.82,31.48-14.12,32.42l-126.14,12.84c-9.3,1-21.11-3.42-26.38-9.74Zm-344.89-127.79c-9.49-11.42-3.38-42.22,13.39-43.93l227.38-3c16.77-1.71,38.1,6.16,47.59,17.58l40.65,24.32c9.5,11.41-2.64,39.09-19.4,40.79l-227.61,23.16c-16.76,1.71-38.09-6.18-47.59-17.59Zm383-39c-9.5-11.42-3.6-22.06,13.17-23.77L3310.66,2573c16.76-1.71,38.09,6.17,47.58,17.58l42.38,26.78c9.5,11.4-4.37,36.63-21.14,38.34l-227.6,23.15c-16.77,1.71-38.09-6.18-47.59-17.58Zm-506.12-109c-9.5-11.41-3.58-42.2,13.19-43.9l227.59-3c16.76-1.72,38.08,6.17,47.58,17.58l40.71,21.47c9.5,11.4-2.7,41.94-19.47,43.65l-227.61,23.14c-16.76,1.71-38.08-6.16-47.58-17.58Zm889.13,70c-9.5-11.41-3.53-41.43,13.24-43.13l227.54-3.8c16.76-1.71,38.09,6.18,47.59,17.59l42.08,24.1c9.5,11.42-4.08,39.31-20.84,41l-227.61,23.14c-16.77,1.71-38.09-6.16-47.59-17.58Zm-506.12-109c-9.5-11.41-3.6-22.05,13.17-23.76l227.6-23.16c16.77-1.7,38.09,6.18,47.59,17.58l40.22,23c9.49,11.42-2.21,40.44-19,42.15l-227.6,23.16c-16.77,1.7-38.09-6.18-47.59-17.6Zm-506.13-109c-9.5-11.4-1.55-45.57,15.21-47.28l225.57.38c16.76-1.71,38.09,6.16,47.59,17.57l41.69,24.15c9.5,11.4-3.68,39.27-20.44,41L2522.65,2422c-16.77,1.69-38.1-6.18-47.6-17.59Zm889.14,70c-9.5-11.4-3.31-42.18,13.46-43.9l227.31-3c16.77-1.71,38.1,6.17,47.59,17.58l42.84,24.41c9.49,11.41-4.83,39-21.6,40.71L3411.78,2492c-16.77,1.69-38.09-6.18-47.59-17.59Zm-506.13-108.94c-9.5-11.42-4.31-41.83,12.47-43.54l228.31-3.38c16.77-1.71,38.09,6.17,47.59,17.58l40.57,22.73c9.5,11.41-2.56,40.68-19.33,42.38L2905.66,2383c-16.77,1.7-38.09-6.18-47.59-17.58ZM2335.37,2231c-4.58-5.5.22-32.14,7.66-32.89l165.7,4.44c7.44-.76,17.21,3.09,21.79,8.6l22.89-.32c4.58,5.51-4,30.86-11.47,31.61l-168.17,17.11c-7.45.77-17.22-3.09-21.8-8.6Zm282.44-28.73c-4.58-5.5-.13-31.54,7.31-32.3l166.06,3.84c7.44-.75,17.21,3.1,21.79,8.61l23,.91c4.58,5.5-4.12,29.63-11.57,30.39l-168.17,17.1c-7.44.76-17.21-3.09-21.79-8.6Zm588.85,82.87c-9.49-11.41-3.28-43.38,13.49-45.09l227.29-1.83c16.77-1.7,38.09,6.18,47.59,17.59l42.29,23.92c9.5,11.41-4.28,39.48-21.05,41.19L3288.67,2344c-16.77,1.71-38.09-6.17-47.59-17.58Zm-306.41-111.6c-4.58-5.51.17-32,7.63-32.73l165.73,4.27c7.45-.76,17.22,3.1,21.81,8.6l23.51.94c4.59,5.51-4.66,29.6-12.11,30.36l-168.16,17.11c-7.46.76-17.23-3.1-21.81-8.6Zm282.44-28.74c-4.58-5.5.08-32.42,7.54-33.18l165.83,4.73c7.45-.76,17.22,3.09,21.8,8.6l23.28.13c4.58,5.51-4.42,30.41-11.87,31.17l-168.17,17.1c-7.45.76-17.22-3.09-21.8-8.6Z"/><path class="cls-33" d="M2825.08,2785.12c-5.26-6.34-2-12.24,7.3-13.18l126.14-12.83c9.3-1,21.11,3.42,26.38,9.75l19.07,22.91c5.27,6.32,2,12.22-7.3,13.17l-126.14,12.83c-9.3.95-21.11-3.42-26.38-9.74Zm212.27-21.61c-5.26-6.32-2-12.22,7.3-13.17l126.15-12.82c9.29-.95,21.11,3.42,26.37,9.74l19.08,22.91c5.26,6.33,2,12.22-7.3,13.17l-126.15,12.84c-9.29,1-21.11-3.42-26.37-9.75Zm-344.88-127.79c-9.5-11.42-3.6-22.07,13.16-23.78l227.61-23.15c16.77-1.71,38.09,6.17,47.59,17.59l34.41,41.34c9.5,11.42,3.6,22.07-13.17,23.76l-227.61,23.16c-16.76,1.71-38.08-6.18-47.58-17.58Zm383-39c-9.49-11.42-3.59-22.07,13.18-23.78l227.6-23.14c16.77-1.71,38.09,6.16,47.59,17.58l34.41,41.35c9.5,11.41,3.6,22.06-13.17,23.77l-227.6,23.15c-16.77,1.71-38.09-6.18-47.59-17.59Zm-506.12-109c-9.5-11.4-3.6-22.06,13.18-23.76l227.6-23.16c16.77-1.71,38.09,6.18,47.59,17.59l34.41,41.34c9.5,11.42,3.6,22.06-13.17,23.77l-227.61,23.15c-16.77,1.71-38.09-6.16-47.59-17.58Zm889.13,70c-9.5-11.4-3.59-22.06,13.17-23.76l227.61-23.16c16.77-1.71,38.09,6.18,47.59,17.59l34.42,41.34c9.49,11.42,3.59,22.06-13.18,23.77l-227.6,23.15c-16.77,1.71-38.1-6.16-47.59-17.58Zm-506.12-109c-9.5-11.41-3.6-22,13.17-23.76l227.61-23.16c16.76-1.7,38.09,6.17,47.59,17.58l34.41,41.36c9.5,11.4,3.6,22.05-13.17,23.76l-227.61,23.16c-16.76,1.7-38.09-6.18-47.58-17.6Zm-506.12-109c-9.5-11.4-3.59-22,13.17-23.76L2687,2293c16.77-1.71,38.09,6.17,47.59,17.57l34.42,41.36c9.5,11.41,3.59,22.07-13.17,23.76l-227.61,23.16c-16.77,1.7-38.1-6.18-47.6-17.58Zm889.13,70c-9.5-11.4-3.6-22.05,13.17-23.76L3576.15,2363c16.76-1.71,38.09,6.17,47.59,17.58l34.41,41.35c9.5,11.41,3.6,22-13.17,23.76l-227.61,23.16c-16.76,1.7-38.09-6.18-47.59-17.58Zm-506.13-108.94c-9.5-11.42-3.59-22.06,13.18-23.77L3070,2254c16.77-1.7,38.1,6.18,47.59,17.59l34.42,41.35c9.5,11.41,3.59,22.06-13.17,23.76l-227.61,23.16c-16.77,1.69-38.08-6.18-47.58-17.59ZM2341,2207.81c-4.58-5.5-2.25-10.6,5.19-11.35l168.17-17.11c7.45-.76,17.22,3.1,21.8,8.6l16.6,20c4.6,5.51,2.26,10.59-5.19,11.35l-168.17,17.11c-7.45.76-17.21-3.09-21.79-8.61Zm282.45-28.73c-4.58-5.51-2.26-10.59,5.19-11.35l168.17-17.11c7.44-.76,17.21,3.1,21.79,8.6l16.61,20c4.58,5.51,2.25,10.59-5.19,11.35l-168.17,17.11c-7.45.76-17.22-3.1-21.8-8.6ZM3212.26,2262c-9.5-11.41-3.6-22.06,13.17-23.77L3453,2215c16.77-1.71,38.1,6.17,47.59,17.58L3535,2274c9.5,11.41,3.59,22.06-13.18,23.77l-227.6,23.15c-16.77,1.71-38.09-6.17-47.59-17.58Zm-306.42-111.61c-4.58-5.5-2.25-10.59,5.21-11.34l168.16-17.11c7.45-.76,17.22,3.09,21.8,8.6l16.6,20c4.59,5.5,2.26,10.59-5.19,11.35l-168.17,17.11c-7.45.75-17.22-3.1-21.8-8.61Zm282.45-28.73c-4.58-5.5-2.25-10.59,5.2-11.35l168.16-17.11c7.45-.75,17.22,3.1,21.8,8.61l16.61,19.95c4.58,5.5,2.25,10.59-5.2,11.34l-168.17,17.11c-7.45.76-17.22-3.09-21.8-8.6Z"/><path class="cls-38" d="M1972.82,1745.57c-8.23-22.84,2.65-43.16,24.28-45.34L3113.44,1587.8c21.64-2.17,45.88,14.6,54.11,37.45L3237.7,1820c8.23,22.84-2.65,43.16-24.28,45.34L2097.07,1977.76c-21.62,2.18-45.87-14.6-54.1-37.45Z"/><path class="cls-39" d="M1972.82,1745.57c-8.23-22.84,2.65-43.16,24.28-45.34L3113.44,1587.8c21.64-2.17,45.88,14.6,54.11,37.45L3237.7,1820c8.23,22.84-2.65,43.16-24.28,45.34L2097.07,1977.76c-21.62,2.18-45.87-14.6-54.1-37.45Z"/><path class="cls-31" d="M3231.25,1857.6c1.63-6.87,1.16-14.81-1.82-23.08l-70.15-194.74c-8.23-22.84-32.48-39.62-54.11-37.44L1988.83,1714.76a30.2,30.2,0,0,0-17.83,7.73c2.89-12.09,12.32-20.87,26.11-22.26L3113.45,1587.8c21.63-2.17,45.87,14.6,54.1,37.45L3237.7,1820C3243.17,1835.17,3240.2,1849.23,3231.25,1857.6Z"/><path class="cls-40" d="M2227.9,1677l487,238.55-319.38,32.16-420.9-234.07c4.55-7.38,12.33-12.38,22.46-13.4Zm333.27-33.56,562.42,231,89.25-9-566.28-230.56Zm646.32,92.69L3237.7,1820a43.35,43.35,0,0,1,2.72,16.54L2732.26,1626.2l166.27-16.75Z"/><path class="cls-41" d="M2807.77,2283.2c-52.12,1.18-90.38,72.86-71.17,120.05,8.71,21.4,35.12,36.52,53.41,48.73,84.73,56.58,192,79.65,290.58,99.12,81.39,16.08,160.43,42.5,242.14,58,45.85,8.7,162.12,36.89,187.6-15.8,52.29-108.11-75.31-189.67-150.41-238.1-100.61-64.87-144.86-167-282.75-161.91-43.17,1.6-86.32,15-128.5,23.5-42.83,8.65-90.21,19.12-124.35,48.06"/><path class="cls-42" d="M4069,2537.34c-28.94-39.61-83.45-133.67-115.73-170.38-56.44-64.18-139.8-168.05-194.94-233.87C3682,2042,3569.2,1908.31,3471.06,1846.2c-37.4-23.67-107.75-12.47-150.25-12.7-49.59-.26-109-4.18-147.12,0-37.44,4.14-169.39,173.72-212.5,213-48.05,43.74-94.18,90-145.32,130.28-13.22,10.41-64.28,35-68.86,52.36-49.19,186.47,204.45,204.71,316.71,143.65,43.59-23.69,80.26-66.76,126.1-85.33,23.61-9.57,120.06-37.34,137,1,0,0,13.1,71.81,6.67,147.24-8.36,98.12,82.75,273.35,86.91,271.48"/><path class="cls-43" d="M2898.68,2104.6c-26.84,24.94-54,49.5-82.81,72.14-8.48,6.67-32.54,19.19-49.92,31.9-5.73,13.89-7.49,31.94,2.34,39.16,13.51,9.9,47.75,2.71,60.72-5.21,26.18-16,62.71-36.82,74.33-67.25,6.4-16.74-2.31-40.48-4.51-57.7C2898.63,2116.14,2899,2109.61,2898.68,2104.6Z"/><path class="cls-24" d="M2741,2282c99.21,65.09,233.58,59.44,339.36,9.7,26.52-12.48,55-19.89,78.12-38.86,39.08-32,.27-76.79-23.38-108.43-10.45-14-14.52-30.41-17.64-47.21-.43-2.25-1.24-6.14,2.68-5.18,16.92,4.19,33.05,33.69,45.88,45,16.07,14.18,36.13,34.08,55.66,43.55,42.05,20.37,97.47,3.54,114.24-41.05.91-2.39,1.77,4.88,2,7.44.35,3.84.28,7.74.3,11.6,0,9.91,5.26,16.89,3.37,27.49-6.25,35.07-6,60.73,23.6,87.28,49,44,127.41,39,168.74,96,41.89,57.75,22.11,125.07,89.28,174.66,28.05,20.7,75.32,35.69,127,47.36l-329.79,115.78c-4.16,1.87-95.27-173.36-86.91-271.48,6.43-75.43-6.67-147.24-6.67-147.24-17-38.33-113.43-10.56-137-1-45.84,18.57-82.51,61.64-126.1,85.33C2963.14,2427.45,2749.1,2418.51,2741,2282Z"/><path class="cls-24" d="M3202.4,2141.55c-20.61-6.82-25.92-19.28-36.2-37.65-5.63-10.05-12.31-18.15-16-29.29-1.84-5.57-6.61-22.73-5.76-23.57.59-.58,7.07,7.85,7.68,8.49a179.9,179.9,0,0,1,26.06,35c9.85,17.05,18.34,33.11,31.08,48.18,6.17,7.3,16.32,15.18,17.71,25.3"/></g></g></svg>