<?xml version="1.0" encoding="UTF-8" standalone="no"?><!DOCTYPE svg PUBLIC "-//W3C//DTD SVG 1.1//EN" "http://www.w3.org/Graphics/SVG/1.1/DTD/svg11.dtd"><svg width="4000px" height="2500px" version="1.1" xmlns="http://www.w3.org/2000/svg" xmlns:xlink="http://www.w3.org/1999/xlink" xml:space="preserve" xmlns:serif="http://www.serif.com/" style="fill-rule:evenodd;clip-rule:evenodd;stroke-linejoin:round;stroke-miterlimit:2;"><g id="c64" transform="matrix(2.2689,0,0,2.2689,-264.234,-37.6381)"><g transform="matrix(0.441052,0,0,0.441052,117.195,16.5249)"><rect x="111.817" y="218.725" width="3805.79" height="2107.56" style="fill:rgb(174,211,240);"/></g><g transform="matrix(0.441052,0,0,0.441052,117.195,16.5249)"><rect x="111.817" y="218.725" width="3805.79" height="2107.56" style="fill:none;"/><clipPath id="_clip1"><rect x="111.817" y="218.725" width="3805.79" height="2107.56"/></clipPath><g clip-path="url(#_clip1)"><g transform="matrix(1.33696,0,0,1.33696,2015.37,975.764)"><g transform="matrix(-0.934637,0,0,4.56463,2865.7,-18.8431)"><rect x="1820.7" y="130.8" width="268.6" height="100.9" style="fill:rgb(153,194,233);"/></g><g transform="matrix(-1.58039,0,0,2.64962,4041.42,231.64)"><path d="M1570.1,312.073L1570.1,130.8L1695.4,86.3L1820.7,130.8L1820.7,312.073L1570.1,312.073Z" style="fill:rgb(219,234,248);fill-rule:nonzero;"/></g><g transform="matrix(-1.58039,0,0,2.64962,4041.42,231.64)"><path d="M1695.4,86.3L1820.7,130.8L1981.52,130.8L1854.02,86.3L1695.4,86.3Z" style="fill:white;fill-rule:nonzero;"/></g></g><g transform="matrix(2.26731,0,0,2.26731,-265.718,-37.467)"><g transform="matrix(-0.934637,0,0,4.56463,2865.7,-18.8431)"><rect x="1820.7" y="130.8" width="268.6" height="100.9" style="fill:rgb(153,194,233);"/></g><g transform="matrix(-1.58039,0,0,2.64962,4041.42,231.64)"><path d="M1570.1,312.073L1570.1,130.8L1695.4,86.3L1820.7,130.8L1820.7,312.073L1570.1,312.073Z" style="fill:rgb(219,234,248);fill-rule:nonzero;"/></g><g transform="matrix(-1.58039,0,0,2.64962,4041.42,231.64)"><path d="M1695.4,86.3L1820.7,130.8L1981.52,130.8L1854.02,86.3L1695.4,86.3Z" style="fill:white;fill-rule:nonzero;"/></g></g><g transform="matrix(-12.8071,1.91723,1.91723,12.8071,5311.76,-871.087)"><g transform="matrix(1,0,0,1,166.05,246.337)"><path d="M0,-75.172C0,-75.172 11.971,-30.353 3.305,-0.77C6.877,0 8.846,-0.77 8.846,-0.77C8.846,-0.77 13.97,-57.545 0,-75.172" style="fill:rgb(52,133,121);fill-rule:nonzero;"/></g><g transform="matrix(1,0,0,1,188.105,250.817)"><path d="M0,-56.5C0,-56.5 -11,-23 -10.75,-6.25C-13,0 -16.538,-6.25 -16.538,-6.25C-16.538,-6.25 -13.208,-40 0,-56.5" style="fill:rgb(52,133,121);fill-rule:nonzero;"/></g><g transform="matrix(1,0,0,1,188.105,253.603)"><path d="M0,-46.786C0,-46.786 -6.727,-18.886 -5.672,-5.215C-7.079,0 -10.12,-4.934 -10.12,-4.934C-10.12,-4.934 -9.301,-32.667 0,-46.786" style="fill:rgb(42,108,98);fill-rule:nonzero;"/></g><g transform="matrix(0.675605,0.737264,0.737264,-0.675605,187.463,233.452)"><path d="M8.746,-4.502C8.746,-4.502 6.49,13.573 10.221,21.344C10.005,24.254 8.746,22.695 8.746,22.695C8.746,22.695 3.328,2.907 7.131,-7.19C9.649,-8.142 8.746,-4.502 8.746,-4.502" style="fill:rgb(52,133,121);fill-rule:nonzero;"/></g><g transform="matrix(-0.872043,-0.489429,-0.489429,0.872043,181.011,241.873)"><path d="M-1.561,-17.68C-1.561,-17.68 0.841,-8.104 -5.265,4.126C-2.983,6.146 -1.561,4.564 -1.561,4.564C-1.561,4.564 4.273,-18.276 -3.607,-23.646C-1.993,-20.391 -1.561,-17.68 -1.561,-17.68" style="fill:rgb(42,108,98);fill-rule:nonzero;"/></g><g transform="matrix(1,0,0,1,172.932,190.703)"><path d="M0,48.447C0,48.447 -0.994,34.849 -12.58,25.176C-18.292,20.406 -16.999,16.765 -21.703,15.483C-26.407,14.199 -33.25,10.208 -35.103,8.355C-36.956,6.502 -64.783,0 -71.911,2.566C-63.928,4.561 -56.235,16.048 -52.244,16.333C-48.252,16.618 -43.112,21.219 -37.411,25.211C-31.708,29.202 -27.262,26.744 -23.556,28.597C-19.85,30.45 -6.307,37.726 0,48.447" style="fill:rgb(52,133,121);fill-rule:nonzero;"/></g><g transform="matrix(1,0,0,1,165.87,194.317)"><path d="M0,33.953C-1.734,31.712 -3.575,29.556 -5.452,27.447C-6.4,26.402 -7.376,25.379 -8.418,24.446C-9.458,23.529 -10.606,22.698 -11.769,21.92C-12.938,21.145 -14.164,20.468 -15.425,19.84C-16.686,19.21 -17.985,18.601 -19.207,17.836C-20.435,17.096 -21.576,16.163 -22.64,15.269C-23.725,14.424 -24.944,13.712 -26.18,13.047C-31.17,10.432 -36.464,8.374 -41.708,6.248L-57.516,0C-52.186,1.924 -46.829,3.774 -41.526,5.779C-36.222,7.775 -30.921,9.812 -25.85,12.428C-24.59,13.096 -23.345,13.807 -22.188,14.696C-21.074,15.612 -20.009,16.468 -18.819,17.213C-17.645,17.964 -16.378,18.572 -15.112,19.218C-13.843,19.863 -12.59,20.57 -11.404,21.371C-10.226,22.183 -9.063,23.008 -8.02,24.013C-6.983,25.005 -6.035,26.068 -5.115,27.152C-3.269,29.315 -1.617,31.627 0,33.953" style="fill:rgb(37,95,86);fill-rule:nonzero;"/></g><g transform="matrix(1,0,0,1,152.602,220.562)"><path d="M0,-11.821C1.526,-10.317 2.903,-8.652 4.063,-6.834C4.65,-5.93 5.156,-4.97 5.569,-3.967C5.982,-2.966 6.285,-1.903 6.371,-0.802L6.386,-0.603L6.189,-0.573C5.107,-0.41 4.024,-0.262 2.934,-0.162C1.843,-0.07 0.748,0 -0.348,-0.029C-1.444,-0.05 -2.541,-0.146 -3.619,-0.346C-4.683,-0.578 -5.778,-0.871 -6.654,-1.535C-5.74,-0.932 -4.644,-0.717 -3.583,-0.557C-2.513,-0.403 -1.429,-0.345 -0.347,-0.365C0.735,-0.389 1.817,-0.445 2.896,-0.557C3.974,-0.669 5.046,-0.831 6.117,-1.003L5.936,-0.775C5.795,-2.865 4.843,-4.837 3.779,-6.66C3.241,-7.578 2.638,-8.459 2.004,-9.317C1.376,-10.181 0.713,-11.022 0,-11.821" style="fill:rgb(42,107,42);fill-rule:nonzero;"/></g><g transform="matrix(1,0,0,1,145.631,214.844)"><path d="M0,-9.654C1.262,-8.452 2.302,-7.032 3.227,-5.553C4.15,-4.069 4.896,-2.479 5.533,-0.851L5.625,-0.615L5.374,-0.567C3.29,-0.165 1.154,0 -0.966,-0.148C-3.075,-0.317 -5.205,-0.735 -7.084,-1.716C-5.132,-0.913 -3.03,-0.59 -0.946,-0.496C0.098,-0.457 1.145,-0.469 2.187,-0.552C3.23,-0.639 4.262,-0.805 5.292,-0.986L5.133,-0.701C4.541,-2.322 3.788,-3.879 2.951,-5.39C2.091,-6.887 1.137,-8.34 0,-9.654" style="fill:rgb(37,95,86);fill-rule:nonzero;"/></g><g transform="matrix(1,0,0,1,132.549,207.536)"><path d="M0,-10.196C1.463,-8.923 2.802,-7.505 4.015,-5.982C5.223,-4.457 6.286,-2.789 6.958,-0.925L7.046,-0.68L6.783,-0.645C4.876,-0.393 2.96,-0.221 1.041,-0.123C-0.878,-0.035 -2.8,0 -4.719,-0.089C-2.802,-0.191 -0.889,-0.307 1.019,-0.469C2.927,-0.615 4.831,-0.817 6.726,-1.07L6.552,-0.79C5.941,-2.594 4.885,-4.229 3.759,-5.786C2.61,-7.334 1.345,-8.801 0,-10.196" style="fill:rgb(37,95,86);fill-rule:nonzero;"/></g><g transform="matrix(1,0,0,1,169.471,140.707)"><path d="M0,34.212C0,34.212 -4.847,15.68 -17.391,12.829C-29.936,9.978 -33.927,5.131 -41.91,2.566C-49.893,0 -57.59,6.272 -57.59,6.272C-57.59,6.272 -48.04,6.415 -38.845,13.043C-29.65,19.671 -12.473,31.86 0,34.212" style="fill:rgb(68,174,158);fill-rule:nonzero;"/></g><g transform="matrix(1,0,0,1,169.471,145.001)"><path d="M0,29.918C0,29.918 -5.906,17.865 -18.45,15.014C-30.995,12.163 -33.884,5.131 -41.867,2.565C-49.85,0 -57.59,1.978 -57.59,1.978C-57.59,1.978 -48.04,2.121 -38.845,8.749C-29.65,15.377 -12.473,27.566 0,29.918" style="fill:rgb(52,133,121);fill-rule:nonzero;"/></g><g transform="matrix(1,0,0,1,206.249,204.713)"><path d="M0,23.235C0,23.235 3.991,15.11 11.119,10.406C18.247,5.701 23.521,6.771 27.655,4.526C31.789,2.28 42.195,0 47.042,1.568C51.888,3.135 60.112,3.278 63.413,12.829C60.156,10.833 54.882,13.399 49.18,15.395C43.478,17.391 36.756,13.399 31.707,15.395C26.657,17.391 22.095,22.237 16.678,22.523C11.261,22.808 0,23.235 0,23.235" style="fill:rgb(52,133,121);fill-rule:nonzero;"/></g><g transform="matrix(1,0,0,1,189.642,187.108)"><path d="M0,40.84C0,40.84 -0.642,29.935 8.553,24.59C17.747,19.244 26.514,15.395 30.149,9.194C33.784,2.993 45.758,0 57.305,5.132C48.752,4.704 37.847,12.829 26.3,23.093C14.754,33.356 0,40.84 0,40.84" style="fill:rgb(68,174,158);fill-rule:nonzero;"/></g><g transform="matrix(1,0,0,1,189.642,187.108)"><path d="M0,40.84C0,40.84 -0.642,29.935 8.553,24.59C17.747,19.244 26.744,20.577 30.379,14.376C34.014,8.174 45.758,0 57.305,5.132C48.752,4.704 37.847,12.829 26.3,23.093C14.754,33.356 0,40.84 0,40.84" style="fill:rgb(52,133,121);fill-rule:nonzero;"/></g><g transform="matrix(1,0,0,1,181.783,162.689)"><path d="M0,65.259C0,65.259 1.464,39.874 12.28,34.91C23.096,29.946 22.354,19.798 33.954,14.354C45.554,8.909 54.714,0 69.46,1.558C56.269,5.941 52.626,12.093 47.108,19.448C41.59,26.802 35.12,30.291 32.75,33.161C30.379,36.03 23.122,45.633 18.634,47.143C14.146,48.652 2.555,58.998 0,65.259" style="fill:rgb(68,174,158);fill-rule:nonzero;"/></g><g transform="matrix(1,0,0,1,181.783,162.689)"><path d="M0,65.259C0,65.259 4.714,43.342 15.53,38.378C26.346,33.414 24.907,23.447 36.507,18.003C48.106,12.559 54.714,0 69.46,1.558C56.269,5.941 52.626,12.093 47.108,19.448C41.59,26.802 35.12,30.291 32.75,33.161C30.379,36.03 23.122,45.633 18.634,47.143C14.146,48.652 2.555,58.998 0,65.259" style="fill:rgb(52,133,121);fill-rule:nonzero;"/></g><g transform="matrix(1,0,0,1,166.05,226.834)"><path d="M0,2.243C0,2.243 -10.478,-11.415 -22.808,-9.979C-35.138,-8.543 -32.501,-0.688 -44.476,-3.921C-56.45,-7.154 -75.267,4.535 -76.977,13.658C-66.428,5.39 -59.016,3.965 -43.05,6.245C-27.084,8.526 -9.408,0.521 0,2.243" style="fill:rgb(68,174,158);fill-rule:nonzero;"/></g><g transform="matrix(1,0,0,1,166.05,232.996)"><path d="M0,-3.919C0,-3.919 -9.991,-11.415 -22.32,-9.979C-34.65,-8.543 -32.221,-3.446 -44.195,-6.679C-56.169,-9.913 -75.267,-1.627 -76.977,7.496C-66.428,-0.772 -59.016,-2.197 -43.05,0.083C-27.084,2.364 -9.408,-5.641 0,-3.919" style="fill:rgb(52,133,121);fill-rule:nonzero;"/></g><g transform="matrix(1,0,0,1,169.355,228.192)"><path d="M0,17.375C0,17.375 2.625,4.375 -11.125,-3C-5,-3.25 2.047,4.375 4.086,15.5C4.875,20.625 0,17.375 0,17.375" style="fill:rgb(42,108,98);fill-rule:nonzero;"/></g><g transform="matrix(1,0,0,1,166.05,118.326)"><path d="M0,79.971C0,79.971 -9.693,67.712 -5.987,49.465C-2.281,31.219 -1.141,31.789 3.707,23.521C8.553,15.253 11.974,4.99 21.953,4.135C31.931,3.279 30.506,-2.708 40.199,1.854C35.067,1.569 25.089,6.344 25.089,13.614C25.089,20.884 22.951,26.016 20.171,29.223C17.391,32.43 18.46,39.914 15.467,45.046C12.473,50.178 7.555,64.504 4.348,68.674C1.141,72.844 1.996,81.397 2.209,82.038C2.423,82.679 0,79.971 0,79.971" style="fill:rgb(68,174,158);fill-rule:nonzero;"/></g><g transform="matrix(1,0,0,1,188.288,127.307)"><path d="M0,65.853C0,65.853 -5.417,43.621 -1.14,29.936C3.136,16.251 9.693,14.826 16.251,7.413C22.808,0 28.225,3.136 28.225,3.136C28.225,3.136 24.519,8.268 23.949,22.523C23.378,36.778 17.299,47.227 8.268,54.74C-0.763,62.252 0,65.853 0,65.853" style="fill:rgb(68,174,158);fill-rule:nonzero;"/></g><g transform="matrix(1,0,0,1,164.625,169.502)"><path d="M0,34.227C0,34.227 -6.843,10.834 -20.527,5.417C-34.212,0 -35.067,2.281 -44.761,1.711C-54.455,1.141 -66.144,5.703 -71.561,9.979C-57.305,5.703 -42.48,12.511 -33.072,17.945C-23.664,23.378 0,34.227 0,34.227" style="fill:rgb(68,174,158);fill-rule:nonzero;"/></g><g transform="matrix(1,0,0,1,164.625,171.872)"><path d="M0,31.857C0,31.857 -10.264,16.362 -23.949,10.945C-37.633,5.528 -36.452,1.14 -46.145,0.57C-55.838,0 -66.144,3.333 -71.561,7.609C-57.305,3.333 -42.48,10.141 -33.072,15.575C-23.664,21.008 0,31.857 0,31.857" style="fill:rgb(52,133,121);fill-rule:nonzero;"/></g><g transform="matrix(1,0,0,1,186.174,131.671)"><path d="M0,62.281C2.1,56.893 3.958,51.304 4.99,45.626C5.123,44.916 5.216,44.204 5.305,43.492C5.41,42.775 5.478,42.003 5.629,41.267C5.896,39.779 6.336,38.302 6.977,36.923C8.267,34.147 10.17,31.907 11.083,29.194C11.583,27.87 11.831,26.428 12.242,24.994C12.623,23.567 13.07,22.161 13.539,20.764C14.484,17.973 15.574,15.232 16.843,12.574C18.117,9.922 19.564,7.34 21.334,4.984C23.102,2.655 25.23,0.471 27.931,-0.729C25.266,0.549 23.224,2.772 21.536,5.132C19.848,7.517 18.486,10.118 17.297,12.784C16.113,15.454 15.11,18.204 14.252,20.994C13.828,22.391 13.425,23.795 13.089,25.212C12.904,25.919 12.772,26.627 12.608,27.343L12.352,28.439L12.027,29.521C11.125,32.438 9.215,34.844 8.121,37.428C7.561,38.727 7.195,40.096 6.984,41.5C6.86,42.205 6.821,42.899 6.735,43.635C6.664,44.381 6.587,45.126 6.471,45.862C6.048,48.815 5.351,51.698 4.571,54.552C3.775,57.406 2.886,60.209 1.862,63.01L0,62.281Z" style="fill:rgb(52,133,121);fill-rule:nonzero;"/></g><g transform="matrix(1,0,0,1,187.105,178.6)"><path d="M0,-14.534C0.698,-12.141 1.426,-9.759 2.18,-7.388C2.573,-6.208 2.953,-5.025 3.379,-3.861C3.812,-2.703 4.266,-1.534 4.879,-0.499L4.521,-0.569C5.54,-1.3 6.567,-2.02 7.608,-2.722C8.652,-3.417 9.692,-4.12 10.771,-4.763C12.912,-6.069 15.109,-7.3 17.417,-8.284C16.297,-7.722 15.218,-7.085 14.151,-6.433C13.078,-5.792 12.021,-5.124 10.977,-4.437C8.887,-3.066 6.824,-1.653 4.814,-0.165L4.591,0L4.456,-0.235C3.812,-1.354 3.378,-2.529 2.953,-3.706C2.542,-4.888 2.152,-6.075 1.814,-7.277C1.122,-9.674 0.521,-12.096 0,-14.534" style="fill:rgb(52,133,121);fill-rule:nonzero;"/></g><g transform="matrix(1,0,0,1,192.105,167.724)"><path d="M0,-15.074C0.194,-12.589 0.519,-10.118 0.916,-7.665C1.338,-5.216 1.831,-2.778 2.574,-0.415L2.235,-0.562C4.77,-1.808 7.262,-3.152 9.65,-4.663C10.85,-5.409 12.028,-6.193 13.149,-7.05C14.259,-7.909 15.409,-8.782 16.167,-9.991C15.481,-8.736 14.378,-7.775 13.309,-6.85C12.208,-5.947 11.049,-5.117 9.868,-4.325C8.684,-3.537 7.461,-2.808 6.224,-2.107C4.983,-1.413 3.734,-0.731 2.447,-0.123L2.188,0L2.108,-0.27C1.399,-2.677 0.876,-5.132 0.555,-7.61C0.215,-10.086 0.03,-12.58 0,-15.074" style="fill:rgb(52,133,121);fill-rule:nonzero;"/></g><g transform="matrix(1,0,0,1,197.938,156.913)"><path d="M0,-13.18C-0.118,-11.025 -0.092,-8.868 0.042,-6.726C0.213,-4.591 0.479,-2.446 1.184,-0.441L0.833,-0.573C1.86,-1.18 2.881,-1.801 3.845,-2.511C4.812,-3.217 5.75,-3.963 6.658,-4.747C7.571,-5.524 8.458,-6.334 9.316,-7.176C10.183,-8.009 11.031,-8.864 11.833,-9.763C10.362,-7.851 8.707,-6.08 6.922,-4.447C6.036,-3.622 5.084,-2.871 4.119,-2.138C3.147,-1.413 2.132,-0.742 1.072,-0.145L0.813,0L0.722,-0.278C0.036,-2.367 -0.252,-4.541 -0.325,-6.706C-0.399,-8.873 -0.286,-11.04 0,-13.18" style="fill:rgb(52,133,121);fill-rule:nonzero;"/></g><g transform="matrix(1,0,0,1,203.271,144.534)"><path d="M0,-7.301C-0.236,-6.132 -0.356,-4.947 -0.357,-3.773C-0.333,-2.6 -0.2,-1.426 0.223,-0.352L-0.039,-0.501C0.676,-0.641 1.381,-0.904 2.073,-1.193C2.765,-1.485 3.437,-1.833 4.098,-2.2C5.437,-2.91 6.727,-3.718 8.021,-4.53C6.863,-3.53 5.613,-2.641 4.306,-1.837C3.646,-1.446 2.969,-1.079 2.263,-0.761C1.559,-0.442 0.83,-0.155 0.04,-0.03L-0.158,0L-0.222,-0.179C-0.64,-1.342 -0.788,-2.575 -0.706,-3.781C-0.636,-4.986 -0.406,-6.176 0,-7.301" style="fill:rgb(52,133,121);fill-rule:nonzero;"/></g><g transform="matrix(1,0,0,1,167.59,122.983)"><path d="M0,78.124C-0.292,77.832 -0.404,77.654 -0.566,77.424C-0.719,77.205 -0.833,76.985 -0.966,76.765C-1.19,76.32 -1.404,75.874 -1.562,75.419C-1.911,74.514 -2.133,73.593 -2.316,72.673C-2.646,70.83 -2.786,68.981 -2.763,67.15C-2.748,63.481 -2.233,59.875 -1.53,56.332C-0.802,52.802 -0.021,49.26 1.36,45.863C2.04,44.172 2.877,42.557 3.628,40.958C4.392,39.36 4.988,37.716 5.427,36.007C6.157,32.525 7.166,29.012 8.396,25.647C9.622,22.267 11.038,18.954 12.704,15.768C14.373,12.587 16.279,9.516 18.573,6.745C20.863,3.994 23.591,1.512 26.856,0C23.626,1.585 20.975,4.114 18.76,6.897C16.544,9.7 14.721,12.792 13.135,15.987C11.552,19.186 10.221,22.507 9.08,25.886C7.933,29.28 7.021,32.686 6.376,36.236C5.975,38.009 5.394,39.764 4.658,41.42C3.934,43.084 3.165,44.677 2.556,46.329C1.333,49.618 0.642,53.127 -0.009,56.616C-0.626,60.105 -1.05,63.638 -0.99,67.139C-0.976,68.889 -0.801,70.624 -0.466,72.299C-0.283,73.13 -0.065,73.952 0.248,74.713C0.392,75.103 0.576,75.459 0.76,75.811C0.864,75.971 0.959,76.148 1.066,76.294C1.159,76.431 1.313,76.615 1.34,76.639L0,78.124Z" style="fill:rgb(52,133,121);fill-rule:nonzero;"/></g><g transform="matrix(1,0,0,1,162.666,177.63)"><path d="M0,-16.48C0.726,-13.758 1.485,-11.046 2.276,-8.347C2.691,-7.004 3.085,-5.655 3.541,-4.328C4.006,-3.014 4.478,-1.667 5.173,-0.507L4.813,-0.569C6.638,-1.937 8.438,-3.335 10.243,-4.73L12.938,-6.836C13.839,-7.535 14.737,-8.239 15.605,-8.98C13.977,-7.377 12.242,-5.886 10.483,-4.429C8.725,-2.971 6.92,-1.572 5.115,-0.172L4.892,0L4.755,-0.235C4.014,-1.503 3.571,-2.845 3.11,-4.184C2.673,-5.527 2.267,-6.879 1.908,-8.244C1.179,-10.968 0.548,-13.716 0,-16.48" style="fill:rgb(52,133,121);fill-rule:nonzero;"/></g><g transform="matrix(1,0,0,1,167.425,166.698)"><path d="M0,-15.024C0.247,-12.544 0.623,-10.08 1.072,-7.636C1.545,-5.197 2.089,-2.77 2.882,-0.423L2.54,-0.563C5.048,-1.861 7.511,-3.258 9.867,-4.819C11.051,-5.59 12.212,-6.398 13.315,-7.279C14.407,-8.161 15.538,-9.058 16.27,-10.282C15.611,-9.013 14.528,-8.029 13.479,-7.082C12.397,-6.156 11.256,-5.302 10.092,-4.485C8.924,-3.672 7.718,-2.918 6.495,-2.191C5.27,-1.471 4.035,-0.763 2.761,-0.128L2.504,0L2.419,-0.268C1.66,-2.66 1.085,-5.103 0.712,-7.574C0.32,-10.042 0.082,-12.532 0,-15.024" style="fill:rgb(52,133,121);fill-rule:nonzero;"/></g><g transform="matrix(1,0,0,1,173.07,155.797)"><path d="M0,-13.16C-0.073,-11.003 -0.001,-8.847 0.178,-6.708C0.394,-4.577 0.704,-2.438 1.451,-0.448L1.099,-0.573C2.112,-1.202 3.12,-1.844 4.069,-2.574C5.02,-3.3 5.942,-4.066 6.833,-4.868C7.73,-5.664 8.601,-6.493 9.44,-7.353C10.289,-8.203 11.12,-9.076 11.902,-9.993C10.472,-8.05 8.854,-6.245 7.104,-4.574C6.236,-3.731 5.3,-2.96 4.35,-2.207C3.394,-1.462 2.393,-0.769 1.346,-0.151L1.09,0L0.993,-0.276C0.263,-2.349 -0.071,-4.518 -0.188,-6.681C-0.309,-8.846 -0.24,-11.014 0,-13.16" style="fill:rgb(52,133,121);fill-rule:nonzero;"/></g><g transform="matrix(1,0,0,1,178.265,143.329)"><path d="M0,-7.303C-0.211,-6.129 -0.307,-4.943 -0.283,-3.768C-0.235,-2.596 -0.077,-1.425 0.368,-0.361L0.104,-0.504C0.816,-0.659 1.515,-0.937 2.2,-1.24C2.886,-1.546 3.55,-1.909 4.205,-2.289C5.528,-3.027 6.801,-3.863 8.077,-4.701C6.941,-3.678 5.71,-2.762 4.42,-1.931C3.768,-1.526 3.099,-1.144 2.4,-0.812C1.703,-0.478 0.979,-0.176 0.192,-0.035L-0.004,0L-0.073,-0.178C-0.515,-1.332 -0.688,-2.562 -0.632,-3.769C-0.587,-4.975 -0.383,-6.171 0,-7.303" style="fill:rgb(52,133,121);fill-rule:nonzero;"/></g><g transform="matrix(1,0,0,1,181.864,217.559)"><path d="M0,-24.268C0,-24.268 9.542,-33.928 12.193,-27.508C14.843,-21.087 3.711,-6.244 -14.578,-3.196C-32.867,-0.147 -29.156,9.66 -29.156,9.66C-29.156,9.66 -37.992,3.298 -29.466,-13.4C-20.939,-30.1 -5.831,-31.16 0,-24.268" style="fill:rgb(52,133,121);fill-rule:nonzero;"/></g><g transform="matrix(1,0,0,1,182.074,219.402)"><path d="M0,-25.611C-0.236,-25.661 -0.72,-25.64 -1.101,-25.548C-1.507,-25.469 -1.911,-25.33 -2.311,-25.177C-3.106,-24.85 -3.872,-24.418 -4.61,-23.939C-6.086,-22.972 -7.434,-21.788 -8.707,-20.534C-9.36,-19.922 -9.947,-19.248 -10.579,-18.603C-11.207,-17.931 -11.881,-17.304 -12.594,-16.727C-14.024,-15.577 -15.599,-14.636 -17.213,-13.811C-20.419,-12.148 -23.88,-10.908 -26.537,-8.461C-27.86,-7.259 -28.916,-5.762 -29.633,-4.116C-30.359,-2.47 -30.8,-0.704 -31.053,1.081C-30.842,-0.71 -30.441,-2.489 -29.749,-4.166C-29.064,-5.841 -28.028,-7.389 -26.709,-8.645C-24.058,-11.2 -20.578,-12.537 -17.449,-14.256C-15.871,-15.11 -14.353,-16.067 -12.994,-17.213C-11.629,-18.34 -10.529,-19.758 -9.24,-21.067C-7.973,-22.373 -6.624,-23.617 -5.1,-24.666C-4.337,-25.186 -3.537,-25.665 -2.669,-26.044C-2.231,-26.224 -1.783,-26.391 -1.304,-26.496C-0.809,-26.599 -0.375,-26.692 0.279,-26.571L0,-25.611Z" style="fill:rgb(37,95,86);fill-rule:nonzero;"/></g><g transform="matrix(1,0,0,1,151.355,215.198)"><path d="M0,-6.411C0.68,-6.78 1.422,-7.017 2.164,-7.237C2.912,-7.441 3.675,-7.585 4.441,-7.703C5.977,-7.927 7.534,-7.962 9.083,-7.911L9.431,-7.9L9.302,-7.574C8.709,-6.08 8.165,-4.568 7.64,-3.048C7.115,-1.528 6.618,0.002 6.167,1.551C6.41,-0.047 6.819,-1.615 7.267,-3.167C7.73,-4.716 8.264,-6.243 8.84,-7.754L9.059,-7.416C8.297,-7.453 7.534,-7.475 6.771,-7.458C6.008,-7.442 5.247,-7.392 4.486,-7.329C2.97,-7.176 1.449,-6.933 0,-6.411" style="fill:rgb(37,95,86);fill-rule:nonzero;"/></g><g transform="matrix(1,0,0,1,156.417,212.299)"><path d="M0,-11.482C2.322,-11.773 4.662,-11.93 7.008,-11.933C8.182,-11.938 9.356,-11.877 10.529,-11.761C11.698,-11.633 12.883,-11.484 14.014,-11.036L14.18,-10.97L14.168,-10.797C14.101,-9.802 14.009,-8.809 13.866,-7.822C13.712,-6.836 13.535,-5.852 13.254,-4.893C12.984,-3.933 12.676,-2.981 12.257,-2.074C11.828,-1.176 11.345,-0.29 10.688,0.456C11.286,-0.336 11.695,-1.246 12.05,-2.161C12.404,-3.079 12.683,-4.024 12.903,-4.982C13.13,-5.939 13.281,-6.912 13.426,-7.883C13.554,-8.858 13.631,-9.839 13.683,-10.822L13.837,-10.584C12.778,-10.973 11.625,-11.165 10.479,-11.299C9.328,-11.433 8.165,-11.494 7.001,-11.528C4.674,-11.603 2.337,-11.571 0,-11.482" style="fill:rgb(37,95,86);fill-rule:nonzero;"/></g><g transform="matrix(1,0,0,1,165.7,208.672)"><path d="M0,-16.355C0.987,-16.47 1.989,-16.351 2.977,-16.253C3.967,-16.135 4.948,-15.949 5.919,-15.721C7.869,-15.285 9.752,-14.585 11.573,-13.761L11.649,-13.727L11.686,-13.651C12.207,-12.585 12.663,-11.484 12.97,-10.337C13.309,-9.2 13.503,-8.022 13.604,-6.843C13.772,-4.484 13.508,-2.077 12.655,0.115C13.004,-1.005 13.174,-2.168 13.256,-3.329C13.345,-4.488 13.34,-5.655 13.198,-6.806C13.064,-7.956 12.873,-9.103 12.521,-10.207C12.212,-11.324 11.732,-12.381 11.253,-13.433L11.366,-13.323C9.591,-14.177 7.728,-14.835 5.83,-15.372C4.881,-15.643 3.915,-15.852 2.943,-16.033C1.974,-16.203 0.988,-16.396 0,-16.355" style="fill:rgb(37,95,86);fill-rule:nonzero;"/></g><g transform="matrix(1,0,0,1,180.663,202.567)"><path d="M0,-9.542C1.089,-9.228 2.097,-8.77 3.061,-8.214C4.019,-7.653 4.908,-6.968 5.656,-6.146C6.407,-5.324 6.949,-4.323 7.261,-3.268C7.616,-2.209 7.543,-1.081 7.441,0C7.502,-1.087 7.53,-2.205 7.141,-3.231C6.795,-4.255 6.231,-5.206 5.473,-5.976C4.716,-6.747 3.828,-7.377 2.878,-7.887C1.929,-8.389 0.909,-8.802 -0.117,-9.056L0,-9.542Z" style="fill:rgb(37,95,86);fill-rule:nonzero;"/></g><g transform="matrix(1,0,0,1,205.73,212.339)"><path d="M0,15.609C2.126,13.843 4.282,12.1 6.575,10.538C7.719,9.755 8.883,8.997 10.106,8.32C11.333,7.629 12.643,7.127 13.953,6.659C15.27,6.197 16.627,5.837 17.988,5.55C19.35,5.26 20.707,5.029 22.018,4.667C23.332,4.312 24.606,3.833 25.849,3.268C27.126,2.672 28.481,2.256 29.826,1.905C35.235,0.565 40.798,0 46.348,0.079C49.121,0.135 51.9,0.341 54.626,0.872C57.344,1.409 60.036,2.215 62.458,3.561C59.988,2.306 57.288,1.608 54.574,1.174C51.851,0.763 49.098,0.573 46.344,0.588C43.591,0.598 40.841,0.796 38.107,1.109C35.376,1.429 32.656,1.893 30.004,2.588C28.68,2.945 27.382,3.352 26.156,3.936C24.892,4.534 23.564,5.019 22.206,5.371C20.848,5.732 19.473,5.953 18.13,6.228C16.784,6.499 15.461,6.837 14.165,7.278C12.871,7.73 11.588,8.216 10.377,8.832C9.16,9.453 7.979,10.166 6.818,10.906C4.507,12.405 2.214,13.953 0,15.609" style="fill:rgb(42,108,98);fill-rule:nonzero;"/></g><g transform="matrix(1,0,0,1,223.73,224.765)"><path d="M0,-12.096C-0.901,-11.516 -1.764,-10.883 -2.6,-10.218C-3.44,-9.56 -4.256,-8.871 -5.02,-8.131C-6.531,-6.658 -7.975,-5.013 -8.669,-3.035L-8.783,-3.303C-7.797,-2.852 -6.807,-2.408 -5.797,-2.014C-4.788,-1.617 -3.76,-1.275 -2.724,-0.963C-1.686,-0.655 -0.626,-0.421 0.446,-0.284C1.511,-0.155 2.625,-0.07 3.667,-0.407C2.646,0 1.511,-0.011 0.425,-0.072C-0.668,-0.166 -1.75,-0.367 -2.812,-0.639C-3.877,-0.903 -4.913,-1.263 -5.939,-1.643C-6.963,-2.03 -7.968,-2.462 -8.967,-2.908L-9.148,-2.99L-9.081,-3.177C-8.705,-4.216 -8.129,-5.159 -7.464,-6.013C-6.798,-6.87 -6.054,-7.66 -5.247,-8.375C-3.644,-9.817 -1.873,-11.054 0,-12.096" style="fill:rgb(42,108,98);fill-rule:nonzero;"/></g><g transform="matrix(1,0,0,1,231.396,221.093)"><path d="M0,-9.985C-1.447,-9.022 -2.754,-7.877 -3.982,-6.664C-5.191,-5.431 -6.333,-4.132 -7.337,-2.728L-7.414,-3.044C-6.47,-2.595 -5.519,-2.159 -4.538,-1.798C-3.555,-1.439 -2.55,-1.148 -1.533,-0.907C0.5,-0.441 2.613,-0.192 4.708,-0.443C2.635,0 0.471,-0.167 -1.606,-0.566C-3.689,-0.989 -5.703,-1.719 -7.605,-2.662L-7.834,-2.776L-7.682,-2.979C-6.634,-4.378 -5.49,-5.711 -4.205,-6.894C-2.918,-8.073 -1.537,-9.164 0,-9.985" style="fill:rgb(42,108,98);fill-rule:nonzero;"/></g><g transform="matrix(1,0,0,1,246.099,218.036)"><path d="M0,-11C-1.668,-10.015 -3.279,-8.938 -4.8,-7.754C-6.3,-6.554 -7.755,-5.26 -8.825,-3.684L-8.918,-4C-7.159,-3.251 -5.378,-2.549 -3.578,-1.898C-1.783,-1.232 0.029,-0.609 1.85,0C-0.023,-0.427 -1.866,-0.974 -3.692,-1.57C-5.515,-2.178 -7.316,-2.854 -9.086,-3.607L-9.33,-3.71L-9.18,-3.923C-8.035,-5.54 -6.565,-6.864 -4.995,-8.011C-3.418,-9.154 -1.75,-10.164 0,-11" style="fill:rgb(42,108,98);fill-rule:nonzero;"/></g><g transform="matrix(1,0,0,1,257.667,216.855)"><path d="M0,-8.194C-1.594,-7.761 -3.169,-7.264 -4.694,-6.654C-5.453,-6.343 -6.198,-6 -6.903,-5.599C-7.598,-5.195 -8.285,-4.717 -8.698,-4.074L-8.732,-4.338C-8.094,-3.796 -7.31,-3.373 -6.528,-2.983C-5.738,-2.597 -4.928,-2.247 -4.111,-1.914C-2.48,-1.233 -0.819,-0.618 0.844,0C-0.88,-0.426 -2.572,-0.969 -4.244,-1.576C-5.075,-1.892 -5.896,-2.236 -6.707,-2.613C-7.513,-2.998 -8.318,-3.405 -9.018,-4.033L-9.149,-4.152L-9.052,-4.297C-8.549,-5.046 -7.817,-5.519 -7.092,-5.932C-6.36,-6.345 -5.585,-6.661 -4.803,-6.941C-3.239,-7.501 -1.629,-7.912 0,-8.194" style="fill:rgb(42,108,98);fill-rule:nonzero;"/></g><g transform="matrix(-0.981643,0.190728,0.190728,0.981643,198.3,255.165)"><path d="M9.164,-23.262C9.164,-23.262 5.457,-30.384 -0.973,-25.358C-7.402,-20.334 -5.457,-2.85 9.164,7.378C8.473,0.833 8.827,-2.576 13.088,-9.793C17.35,-17.01 14.42,-23.121 9.164,-23.262" style="fill:rgb(68,174,158);fill-rule:nonzero;"/></g><g transform="matrix(1,0,0,1,184.987,261.902)"><path d="M0,-28.243C1.372,-27.899 2.619,-27.301 3.742,-26.48C4.85,-25.653 5.785,-24.555 6.332,-23.27C6.884,-21.988 7.047,-20.572 6.933,-19.209C6.795,-17.883 6.855,-16.565 7.104,-15.258C7.576,-12.65 8.819,-10.161 8.928,-7.425C8.994,-6.068 8.719,-4.712 8.212,-3.465C7.693,-2.22 6.98,-1.069 6.171,0C6.956,-1.088 7.639,-2.253 8.125,-3.499C8.599,-4.748 8.837,-6.087 8.742,-7.415C8.577,-10.093 7.288,-12.526 6.738,-15.184C6.452,-16.508 6.356,-17.894 6.468,-19.243C6.556,-20.55 6.376,-21.875 5.845,-23.056C4.786,-25.441 2.345,-26.998 -0.132,-27.591L0,-28.243Z" style="fill:rgb(52,133,121);fill-rule:nonzero;"/></g><g transform="matrix(1,0,0,1,197.313,240.436)"><path d="M0,-5.885C-1.31,-7.066 -3.104,-7.571 -4.822,-7.566C-6.562,-7.576 -8.261,-7.039 -9.813,-6.279C-10.597,-5.902 -11.327,-5.442 -11.962,-4.852C-12.62,-4.294 -13.2,-3.642 -13.67,-2.917C-14.624,-1.482 -15.234,0.211 -15.333,1.964C-15.391,0.206 -14.864,-1.573 -13.913,-3.075C-13.438,-3.829 -12.85,-4.512 -12.179,-5.098C-11.525,-5.712 -10.747,-6.171 -9.948,-6.552C-8.359,-7.323 -6.605,-7.849 -4.819,-7.78C-3.054,-7.754 -1.251,-7.125 0,-5.885" style="fill:rgb(52,133,121);fill-rule:nonzero;"/></g></g><g transform="matrix(0.999297,0,0,0.999297,-326.849,-23.0811)"><path d="M2649.11,147.336L2571.53,147.336L2571.53,1078C2571.53,1099.5 2567.25,1120.78 2558.94,1140.61C2558.35,1142.04 2557.75,1143.47 2557.15,1144.9C2548.84,1164.73 2544.56,1186.01 2544.56,1207.51L2544.56,2435.53L2674.12,2435.53L2674.12,1209.37C2674.12,1191.22 2671.06,1173.19 2665.09,1156.05C2662.83,1149.56 2660.4,1142.59 2658.14,1136.1C2652.16,1118.96 2649.11,1100.93 2649.11,1082.78L2649.11,147.336Z" style="fill:rgb(54,87,149);"/></g><g transform="matrix(0.999297,0,0,0.999297,-1.66913,0.144597)"><path d="M2252.98,124.094L2252.98,1059.54C2252.98,1077.69 2256.03,1095.72 2262.01,1112.86C2264.27,1119.35 2266.7,1126.32 2268.96,1132.81C2274.94,1149.95 2277.99,1167.98 2277.99,1186.13L2277.99,2412.29L2219.15,2412.29L2348.71,2412.29L2348.71,1186.13C2348.71,1167.98 2345.66,1149.95 2339.68,1132.81C2337.42,1126.32 2334.99,1119.35 2332.73,1112.86C2326.75,1095.72 2323.7,1077.69 2323.7,1059.54L2323.7,124.094L2252.98,124.094Z" style="fill:url(#_Linear2);"/></g><g><g transform="matrix(0.918815,0,0,0.999297,-4.2986,0.144597)"><rect x="-32.672" y="150.688" width="2331.89" height="2263.09" style="fill:rgb(109,127,141);"/></g><g><g transform="matrix(0.999297,0,0,0.999297,-1.66913,0.144597)"><path d="M545.731,342.305C545.731,330.539 536.179,320.987 524.413,320.987L263.231,320.987C251.465,320.987 241.913,330.539 241.913,342.305L241.913,384.941C241.913,396.707 251.465,406.259 263.231,406.259L524.413,406.259C536.179,406.259 545.731,396.707 545.731,384.941L545.731,342.305Z" style="fill:rgb(142,156,167);"/></g><g transform="matrix(0.999297,0,0,0.999297,-1.66913,0.144597)"><path d="M275.658,320.987L263.231,320.987C251.465,320.987 241.913,330.539 241.913,342.305L241.913,384.941C241.913,396.707 251.465,406.259 263.231,406.259L524.413,406.259C524.413,406.259 275.658,406.259 275.658,406.259C263.893,406.259 254.34,396.707 254.34,384.941L254.34,342.305C254.34,330.539 263.893,320.987 275.658,320.987Z" style="fill:rgb(85,98,109);"/></g></g><g transform="matrix(1,0,0,1,827.795,1725.61)"><g transform="matrix(0.999297,0,0,0.999297,-1.66913,0.144597)"><path d="M545.731,342.305C545.731,330.539 536.179,320.987 524.413,320.987L263.231,320.987C251.465,320.987 241.913,330.539 241.913,342.305L241.913,384.941C241.913,396.707 251.465,406.259 263.231,406.259L524.413,406.259C536.179,406.259 545.731,396.707 545.731,384.941L545.731,342.305Z" style="fill:rgb(142,156,167);"/></g><g transform="matrix(0.999297,0,0,0.999297,-1.66913,0.144597)"><path d="M275.658,320.987L263.231,320.987C251.465,320.987 241.913,330.539 241.913,342.305L241.913,384.941C241.913,396.707 251.465,406.259 263.231,406.259L524.413,406.259C524.413,406.259 275.658,406.259 275.658,406.259C263.893,406.259 254.34,396.707 254.34,384.941L254.34,342.305C254.34,330.539 263.893,320.987 275.658,320.987Z" style="fill:rgb(85,98,109);"/></g></g><g transform="matrix(1,0,0,1,-178.576,568.396)"><g transform="matrix(0.999297,0,0,0.999297,-1.66913,0.144597)"><path d="M545.731,342.305C545.731,330.539 536.179,320.987 524.413,320.987L263.231,320.987C251.465,320.987 241.913,330.539 241.913,342.305L241.913,384.941C241.913,396.707 251.465,406.259 263.231,406.259L524.413,406.259C536.179,406.259 545.731,396.707 545.731,384.941L545.731,342.305Z" style="fill:rgb(142,156,167);"/></g><g transform="matrix(0.999297,0,0,0.999297,-1.66913,0.144597)"><path d="M275.658,320.987L263.231,320.987C251.465,320.987 241.913,330.539 241.913,342.305L241.913,384.941C241.913,396.707 251.465,406.259 263.231,406.259L524.413,406.259C524.413,406.259 275.658,406.259 275.658,406.259C263.893,406.259 254.34,396.707 254.34,384.941L254.34,342.305C254.34,330.539 263.893,320.987 275.658,320.987Z" style="fill:rgb(85,98,109);"/></g></g><g transform="matrix(1,0,0,1,1454.58,1731.17)"><g transform="matrix(0.999297,0,0,0.999297,-1.66913,0.144597)"><path d="M545.731,342.305C545.731,330.539 536.179,320.987 524.413,320.987L263.231,320.987C251.465,320.987 241.913,330.539 241.913,342.305L241.913,384.941C241.913,396.707 251.465,406.259 263.231,406.259L524.413,406.259C536.179,406.259 545.731,396.707 545.731,384.941L545.731,342.305Z" style="fill:rgb(142,156,167);"/></g><g transform="matrix(0.999297,0,0,0.999297,-1.66913,0.144597)"><path d="M275.658,320.987L263.231,320.987C251.465,320.987 241.913,330.539 241.913,342.305L241.913,384.941C241.913,396.707 251.465,406.259 263.231,406.259L524.413,406.259C524.413,406.259 275.658,406.259 275.658,406.259C263.893,406.259 254.34,396.707 254.34,384.941L254.34,342.305C254.34,330.539 263.893,320.987 275.658,320.987Z" style="fill:rgb(85,98,109);"/></g></g><g transform="matrix(1,0,0,1,1452.65,270.115)"><g transform="matrix(0.999297,0,0,0.999297,-1.66913,0.144597)"><path d="M545.731,342.305C545.731,330.539 536.179,320.987 524.413,320.987L263.231,320.987C251.465,320.987 241.913,330.539 241.913,342.305L241.913,384.941C241.913,396.707 251.465,406.259 263.231,406.259L524.413,406.259C536.179,406.259 545.731,396.707 545.731,384.941L545.731,342.305Z" style="fill:rgb(142,156,167);"/></g><g transform="matrix(0.999297,0,0,0.999297,-1.66913,0.144597)"><path d="M275.658,320.987L263.231,320.987C251.465,320.987 241.913,330.539 241.913,342.305L241.913,384.941C241.913,396.707 251.465,406.259 263.231,406.259L524.413,406.259C524.413,406.259 275.658,406.259 275.658,406.259C263.893,406.259 254.34,396.707 254.34,384.941L254.34,342.305C254.34,330.539 263.893,320.987 275.658,320.987Z" style="fill:rgb(85,98,109);"/></g></g><g transform="matrix(1,0,0,1,1239.07,1463.16)"><g transform="matrix(0.999297,0,0,0.999297,-1.66913,0.144597)"><path d="M545.731,342.305C545.731,330.539 536.179,320.987 524.413,320.987L263.231,320.987C251.465,320.987 241.913,330.539 241.913,342.305L241.913,384.941C241.913,396.707 251.465,406.259 263.231,406.259L524.413,406.259C536.179,406.259 545.731,396.707 545.731,384.941L545.731,342.305Z" style="fill:rgb(142,156,167);"/></g><g transform="matrix(0.999297,0,0,0.999297,-1.66913,0.144597)"><path d="M275.658,320.987L263.231,320.987C251.465,320.987 241.913,330.539 241.913,342.305L241.913,384.941C241.913,396.707 251.465,406.259 263.231,406.259L524.413,406.259C524.413,406.259 275.658,406.259 275.658,406.259C263.893,406.259 254.34,396.707 254.34,384.941L254.34,342.305C254.34,330.539 263.893,320.987 275.658,320.987Z" style="fill:rgb(85,98,109);"/></g></g><g transform="matrix(1,0,0,1,115.743,94.2984)"><g transform="matrix(0.999297,0,0,0.999297,-1.66913,0.144597)"><path d="M545.731,342.305C545.731,330.539 536.179,320.987 524.413,320.987L263.231,320.987C251.465,320.987 241.913,330.539 241.913,342.305L241.913,384.941C241.913,396.707 251.465,406.259 263.231,406.259L524.413,406.259C536.179,406.259 545.731,396.707 545.731,384.941L545.731,342.305Z" style="fill:rgb(142,156,167);"/></g><g transform="matrix(0.999297,0,0,0.999297,-1.66913,0.144597)"><path d="M275.658,320.987L263.231,320.987C251.465,320.987 241.913,330.539 241.913,342.305L241.913,384.941C241.913,396.707 251.465,406.259 263.231,406.259L524.413,406.259C524.413,406.259 275.658,406.259 275.658,406.259C263.893,406.259 254.34,396.707 254.34,384.941L254.34,342.305C254.34,330.539 263.893,320.987 275.658,320.987Z" style="fill:rgb(85,98,109);"/></g></g><g transform="matrix(1,0,0,1,943.538,1819.91)"><g transform="matrix(0.999297,0,0,0.999297,-1.66913,0.144597)"><path d="M545.731,342.305C545.731,330.539 536.179,320.987 524.413,320.987L263.231,320.987C251.465,320.987 241.913,330.539 241.913,342.305L241.913,384.941C241.913,396.707 251.465,406.259 263.231,406.259L524.413,406.259C536.179,406.259 545.731,396.707 545.731,384.941L545.731,342.305Z" style="fill:rgb(142,156,167);"/></g><g transform="matrix(0.999297,0,0,0.999297,-1.66913,0.144597)"><path d="M275.658,320.987L263.231,320.987C251.465,320.987 241.913,330.539 241.913,342.305L241.913,384.941C241.913,396.707 251.465,406.259 263.231,406.259L524.413,406.259C524.413,406.259 275.658,406.259 275.658,406.259C263.893,406.259 254.34,396.707 254.34,384.941L254.34,342.305C254.34,330.539 263.893,320.987 275.658,320.987Z" style="fill:rgb(85,98,109);"/></g></g><g transform="matrix(1,0,0,1,-62.8327,662.694)"><g transform="matrix(0.999297,0,0,0.999297,-1.66913,0.144597)"><path d="M545.731,342.305C545.731,330.539 536.179,320.987 524.413,320.987L263.231,320.987C251.465,320.987 241.913,330.539 241.913,342.305L241.913,384.941C241.913,396.707 251.465,406.259 263.231,406.259L524.413,406.259C536.179,406.259 545.731,396.707 545.731,384.941L545.731,342.305Z" style="fill:rgb(142,156,167);"/></g><g transform="matrix(0.999297,0,0,0.999297,-1.66913,0.144597)"><path d="M275.658,320.987L263.231,320.987C251.465,320.987 241.913,330.539 241.913,342.305L241.913,384.941C241.913,396.707 251.465,406.259 263.231,406.259L524.413,406.259C524.413,406.259 275.658,406.259 275.658,406.259C263.893,406.259 254.34,396.707 254.34,384.941L254.34,342.305C254.34,330.539 263.893,320.987 275.658,320.987Z" style="fill:rgb(85,98,109);"/></g></g><g transform="matrix(1,0,0,1,-172.73,1369.34)"><g transform="matrix(0.999297,0,0,0.999297,-1.66913,0.144597)"><path d="M545.731,342.305C545.731,330.539 536.179,320.987 524.413,320.987L263.231,320.987C251.465,320.987 241.913,330.539 241.913,342.305L241.913,384.941C241.913,396.707 251.465,406.259 263.231,406.259L524.413,406.259C536.179,406.259 545.731,396.707 545.731,384.941L545.731,342.305Z" style="fill:rgb(142,156,167);"/></g><g transform="matrix(0.999297,0,0,0.999297,-1.66913,0.144597)"><path d="M275.658,320.987L263.231,320.987C251.465,320.987 241.913,330.539 241.913,342.305L241.913,384.941C241.913,396.707 251.465,406.259 263.231,406.259L524.413,406.259C524.413,406.259 275.658,406.259 275.658,406.259C263.893,406.259 254.34,396.707 254.34,384.941L254.34,342.305C254.34,330.539 263.893,320.987 275.658,320.987Z" style="fill:rgb(85,98,109);"/></g></g><g transform="matrix(1,0,0,1,1573.91,-11.4038)"><g transform="matrix(0.999297,0,0,0.999297,-1.66913,0.144597)"><path d="M545.731,342.305C545.731,330.539 536.179,320.987 524.413,320.987L263.231,320.987C251.465,320.987 241.913,330.539 241.913,342.305L241.913,384.941C241.913,396.707 251.465,406.259 263.231,406.259L524.413,406.259C536.179,406.259 545.731,396.707 545.731,384.941L545.731,342.305Z" style="fill:rgb(142,156,167);"/></g><g transform="matrix(0.999297,0,0,0.999297,-1.66913,0.144597)"><path d="M275.658,320.987L263.231,320.987C251.465,320.987 241.913,330.539 241.913,342.305L241.913,384.941C241.913,396.707 251.465,406.259 263.231,406.259L524.413,406.259C524.413,406.259 275.658,406.259 275.658,406.259C263.893,406.259 254.34,396.707 254.34,384.941L254.34,342.305C254.34,330.539 263.893,320.987 275.658,320.987Z" style="fill:rgb(85,98,109);"/></g></g><g transform="matrix(1,0,0,1,1575.61,1012.66)"><g transform="matrix(0.999297,0,0,0.999297,-1.66913,0.144597)"><path d="M545.731,342.305C545.731,330.539 536.179,320.987 524.413,320.987L263.231,320.987C251.465,320.987 241.913,330.539 241.913,342.305L241.913,384.941C241.913,396.707 251.465,406.259 263.231,406.259L524.413,406.259C536.179,406.259 545.731,396.707 545.731,384.941L545.731,342.305Z" style="fill:rgb(142,156,167);"/></g><g transform="matrix(0.999297,0,0,0.999297,-1.66913,0.144597)"><path d="M275.658,320.987L263.231,320.987C251.465,320.987 241.913,330.539 241.913,342.305L241.913,384.941C241.913,396.707 251.465,406.259 263.231,406.259L524.413,406.259C524.413,406.259 275.658,406.259 275.658,406.259C263.893,406.259 254.34,396.707 254.34,384.941L254.34,342.305C254.34,330.539 263.893,320.987 275.658,320.987Z" style="fill:rgb(85,98,109);"/></g></g><g transform="matrix(1,0,0,1,355.782,1723.25)"><g transform="matrix(0.999297,0,0,0.999297,-1.66913,0.144597)"><path d="M545.731,342.305C545.731,330.539 536.179,320.987 524.413,320.987L263.231,320.987C251.465,320.987 241.913,330.539 241.913,342.305L241.913,384.941C241.913,396.707 251.465,406.259 263.231,406.259L524.413,406.259C536.179,406.259 545.731,396.707 545.731,384.941L545.731,342.305Z" style="fill:rgb(142,156,167);"/></g><g transform="matrix(0.999297,0,0,0.999297,-1.66913,0.144597)"><path d="M275.658,320.987L263.231,320.987C251.465,320.987 241.913,330.539 241.913,342.305L241.913,384.941C241.913,396.707 251.465,406.259 263.231,406.259L524.413,406.259C524.413,406.259 275.658,406.259 275.658,406.259C263.893,406.259 254.34,396.707 254.34,384.941L254.34,342.305C254.34,330.539 263.893,320.987 275.658,320.987Z" style="fill:rgb(85,98,109);"/></g></g><g transform="matrix(1,0,0,1,1570.33,1825.47)"><g transform="matrix(0.999297,0,0,0.999297,-1.66913,0.144597)"><path d="M545.731,342.305C545.731,330.539 536.179,320.987 524.413,320.987L263.231,320.987C251.465,320.987 241.913,330.539 241.913,342.305L241.913,384.941C241.913,396.707 251.465,406.259 263.231,406.259L524.413,406.259C536.179,406.259 545.731,396.707 545.731,384.941L545.731,342.305Z" style="fill:rgb(142,156,167);"/></g><g transform="matrix(0.999297,0,0,0.999297,-1.66913,0.144597)"><path d="M275.658,320.987L263.231,320.987C251.465,320.987 241.913,330.539 241.913,342.305L241.913,384.941C241.913,396.707 251.465,406.259 263.231,406.259L524.413,406.259C524.413,406.259 275.658,406.259 275.658,406.259C263.893,406.259 254.34,396.707 254.34,384.941L254.34,342.305C254.34,330.539 263.893,320.987 275.658,320.987Z" style="fill:rgb(85,98,109);"/></g></g><g transform="matrix(1,0,0,1,1568.39,364.413)"><g transform="matrix(0.999297,0,0,0.999297,-1.66913,0.144597)"><path d="M545.731,342.305C545.731,330.539 536.179,320.987 524.413,320.987L263.231,320.987C251.465,320.987 241.913,330.539 241.913,342.305L241.913,384.941C241.913,396.707 251.465,406.259 263.231,406.259L524.413,406.259C536.179,406.259 545.731,396.707 545.731,384.941L545.731,342.305Z" style="fill:rgb(142,156,167);"/></g><g transform="matrix(0.999297,0,0,0.999297,-1.66913,0.144597)"><path d="M275.658,320.987L263.231,320.987C251.465,320.987 241.913,330.539 241.913,342.305L241.913,384.941C241.913,396.707 251.465,406.259 263.231,406.259L524.413,406.259C524.413,406.259 275.658,406.259 275.658,406.259C263.893,406.259 254.34,396.707 254.34,384.941L254.34,342.305C254.34,330.539 263.893,320.987 275.658,320.987Z" style="fill:rgb(85,98,109);"/></g></g><g transform="matrix(1,0,0,1,1354.81,1557.45)"><g transform="matrix(0.999297,0,0,0.999297,-1.66913,0.144597)"><path d="M545.731,342.305C545.731,330.539 536.179,320.987 524.413,320.987L263.231,320.987C251.465,320.987 241.913,330.539 241.913,342.305L241.913,384.941C241.913,396.707 251.465,406.259 263.231,406.259L524.413,406.259C536.179,406.259 545.731,396.707 545.731,384.941L545.731,342.305Z" style="fill:rgb(142,156,167);"/></g><g transform="matrix(0.999297,0,0,0.999297,-1.66913,0.144597)"><path d="M275.658,320.987L263.231,320.987C251.465,320.987 241.913,330.539 241.913,342.305L241.913,384.941C241.913,396.707 251.465,406.259 263.231,406.259L524.413,406.259C524.413,406.259 275.658,406.259 275.658,406.259C263.893,406.259 254.34,396.707 254.34,384.941L254.34,342.305C254.34,330.539 263.893,320.987 275.658,320.987Z" style="fill:rgb(85,98,109);"/></g></g><g transform="matrix(1,0,0,1,-59.7496,479.443)"><g transform="matrix(0.999297,0,0,0.999297,-1.66913,0.144597)"><path d="M545.731,342.305C545.731,330.539 536.179,320.987 524.413,320.987L263.231,320.987C251.465,320.987 241.913,330.539 241.913,342.305L241.913,384.941C241.913,396.707 251.465,406.259 263.231,406.259L524.413,406.259C536.179,406.259 545.731,396.707 545.731,384.941L545.731,342.305Z" style="fill:rgb(142,156,167);"/></g><g transform="matrix(0.999297,0,0,0.999297,-1.66913,0.144597)"><path d="M275.658,320.987L263.231,320.987C251.465,320.987 241.913,330.539 241.913,342.305L241.913,384.941C241.913,396.707 251.465,406.259 263.231,406.259L524.413,406.259C524.413,406.259 275.658,406.259 275.658,406.259C263.893,406.259 254.34,396.707 254.34,384.941L254.34,342.305C254.34,330.539 263.893,320.987 275.658,320.987Z" style="fill:rgb(85,98,109);"/></g></g><g transform="matrix(1,0,0,1,1573.41,1642.21)"><g transform="matrix(0.999297,0,0,0.999297,-1.66913,0.144597)"><path d="M545.731,342.305C545.731,330.539 536.179,320.987 524.413,320.987L263.231,320.987C251.465,320.987 241.913,330.539 241.913,342.305L241.913,384.941C241.913,396.707 251.465,406.259 263.231,406.259L524.413,406.259C536.179,406.259 545.731,396.707 545.731,384.941L545.731,342.305Z" style="fill:rgb(142,156,167);"/></g><g transform="matrix(0.999297,0,0,0.999297,-1.66913,0.144597)"><path d="M275.658,320.987L263.231,320.987C251.465,320.987 241.913,330.539 241.913,342.305L241.913,384.941C241.913,396.707 251.465,406.259 263.231,406.259L524.413,406.259C524.413,406.259 275.658,406.259 275.658,406.259C263.893,406.259 254.34,396.707 254.34,384.941L254.34,342.305C254.34,330.539 263.893,320.987 275.658,320.987Z" style="fill:rgb(85,98,109);"/></g></g><g transform="matrix(1,0,0,1,1571.48,181.162)"><g transform="matrix(0.999297,0,0,0.999297,-1.66913,0.144597)"><path d="M545.731,342.305C545.731,330.539 536.179,320.987 524.413,320.987L263.231,320.987C251.465,320.987 241.913,330.539 241.913,342.305L241.913,384.941C241.913,396.707 251.465,406.259 263.231,406.259L524.413,406.259C536.179,406.259 545.731,396.707 545.731,384.941L545.731,342.305Z" style="fill:rgb(142,156,167);"/></g><g transform="matrix(0.999297,0,0,0.999297,-1.66913,0.144597)"><path d="M275.658,320.987L263.231,320.987C251.465,320.987 241.913,330.539 241.913,342.305L241.913,384.941C241.913,396.707 251.465,406.259 263.231,406.259L524.413,406.259C524.413,406.259 275.658,406.259 275.658,406.259C263.893,406.259 254.34,396.707 254.34,384.941L254.34,342.305C254.34,330.539 263.893,320.987 275.658,320.987Z" style="fill:rgb(85,98,109);"/></g></g><g transform="matrix(1,0,0,1,1357.89,1374.2)"><g transform="matrix(0.999297,0,0,0.999297,-1.66913,0.144597)"><path d="M545.731,342.305C545.731,330.539 536.179,320.987 524.413,320.987L263.231,320.987C251.465,320.987 241.913,330.539 241.913,342.305L241.913,384.941C241.913,396.707 251.465,406.259 263.231,406.259L524.413,406.259C536.179,406.259 545.731,396.707 545.731,384.941L545.731,342.305Z" style="fill:rgb(142,156,167);"/></g><g transform="matrix(0.999297,0,0,0.999297,-1.66913,0.144597)"><path d="M275.658,320.987L263.231,320.987C251.465,320.987 241.913,330.539 241.913,342.305L241.913,384.941C241.913,396.707 251.465,406.259 263.231,406.259L524.413,406.259C524.413,406.259 275.658,406.259 275.658,406.259C263.893,406.259 254.34,396.707 254.34,384.941L254.34,342.305C254.34,330.539 263.893,320.987 275.658,320.987Z" style="fill:rgb(85,98,109);"/></g></g><g transform="matrix(0.999297,0,0,0.999297,-53.7154,77.6305)"><path d="M1772.81,492.634C1772.81,467.41 1752.33,446.931 1727.11,446.931L527.075,446.931C501.851,446.931 481.372,467.41 481.372,492.634L481.372,1927.56C481.372,1952.78 501.851,1973.26 527.075,1973.26L1727.11,1973.26C1752.33,1973.26 1772.81,1952.78 1772.81,1927.56L1772.81,492.634Z" style="fill-opacity:0.09;"/></g><g transform="matrix(0.999297,0,0,0.999297,-1.66913,0.144597)"><path d="M1772.81,492.634C1772.81,467.41 1752.33,446.931 1727.11,446.931L527.075,446.931C501.851,446.931 481.372,467.41 481.372,492.634L481.372,1927.56C481.372,1952.78 501.851,1973.26 527.075,1973.26L1727.11,1973.26C1752.33,1973.26 1772.81,1952.78 1772.81,1927.56L1772.81,492.634Z" style="fill:rgb(85,98,109);"/></g><g transform="matrix(0.999297,0,0,0.999297,-1.66913,0.144597)"><circle cx="569.151" cy="502.224" r="16.502" style="fill:rgb(237,244,251);fill-opacity:0.28;"/></g><g transform="matrix(0.999297,0,0,0.999297,-1.66913,1412.48)"><circle cx="569.151" cy="502.224" r="16.502" style="fill:rgb(237,244,251);fill-opacity:0.28;"/></g><g transform="matrix(0.999297,0,0,0.999297,1157.23,0.144597)"><circle cx="569.151" cy="502.224" r="16.502" style="fill:rgb(237,244,251);fill-opacity:0.28;"/></g><g transform="matrix(0.999297,0,0,0.999297,1157.23,1412.48)"><circle cx="569.151" cy="502.224" r="16.502" style="fill:rgb(237,244,251);fill-opacity:0.28;"/></g><g transform="matrix(0.999297,0,0,0.999297,-1.66913,0.144597)"><path d="M555.461,446.931L527.075,446.931C501.851,446.931 481.372,467.41 481.372,492.634L481.372,1927.56C481.372,1952.78 501.851,1973.26 527.075,1973.26L1727.11,1973.26C1727.11,1973.26 555.461,1973.26 555.461,1973.26C530.811,1973.26 510.799,1952.78 510.799,1927.56L510.799,492.634C510.799,467.41 530.811,446.931 555.461,446.931ZM1772.81,492.634C1772.81,492.634 1772.81,1927.56 1772.81,1927.56L1772.81,492.634Z" style="fill:rgb(67,78,87);"/></g><g transform="matrix(1.53733,1.68238e-16,1.68238e-16,1.45689,-445.283,54.0645)"><g transform="matrix(0.665131,0,0,0.632686,235.375,121.741)"><path d="M954.064,354.141C954.064,341.61 943.89,331.436 931.359,331.436L725.592,331.436C713.06,331.436 702.887,341.61 702.887,354.141L702.887,471.788C702.887,484.319 713.06,494.493 725.592,494.493L931.359,494.493C943.89,494.493 954.064,484.319 954.064,471.788L954.064,354.141Z" style="fill:rgb(237,244,251);fill-opacity:0.28;"/></g><g transform="matrix(0.665131,0,0,0.632686,235.375,260.661)"><path d="M954.064,354.141C954.064,341.61 943.89,331.436 931.359,331.436L725.592,331.436C713.06,331.436 702.887,341.61 702.887,354.141L702.887,471.788C702.887,484.319 713.06,494.493 725.592,494.493L931.359,494.493C943.89,494.493 954.064,484.319 954.064,471.788L954.064,354.141Z" style="fill:rgb(237,244,251);fill-opacity:0.28;"/></g><g transform="matrix(0.665131,0,0,0.632686,235.375,399.58)"><path d="M954.064,354.141C954.064,341.61 943.89,331.436 931.359,331.436L725.592,331.436C713.06,331.436 702.887,341.61 702.887,354.141L702.887,471.788C702.887,484.319 713.06,494.493 725.592,494.493L931.359,494.493C943.89,494.493 954.064,484.319 954.064,471.788L954.064,354.141Z" style="fill:rgb(237,244,251);fill-opacity:0.28;"/></g><g transform="matrix(0.665131,0,0,0.632686,235.375,538.5)"><path d="M954.064,354.141C954.064,341.61 943.89,331.436 931.359,331.436L725.592,331.436C713.06,331.436 702.887,341.61 702.887,354.141L702.887,471.788C702.887,484.319 713.06,494.493 725.592,494.493L931.359,494.493C943.89,494.493 954.064,484.319 954.064,471.788L954.064,354.141Z" style="fill:rgb(237,244,251);fill-opacity:0.28;"/></g><g transform="matrix(0.665131,0,0,0.632686,235.375,677.42)"><path d="M954.064,354.141C954.064,341.61 943.89,331.436 931.359,331.436L725.592,331.436C713.06,331.436 702.887,341.61 702.887,354.141L702.887,471.788C702.887,484.319 713.06,494.493 725.592,494.493L931.359,494.493C943.89,494.493 954.064,484.319 954.064,471.788L954.064,354.141Z" style="fill:rgb(237,244,251);fill-opacity:0.28;"/></g><g transform="matrix(0.665131,0,0,0.632686,235.375,816.339)"><path d="M954.064,354.141C954.064,341.61 943.89,331.436 931.359,331.436L725.592,331.436C713.06,331.436 702.887,341.61 702.887,354.141L702.887,471.788C702.887,484.319 713.06,494.493 725.592,494.493L931.359,494.493C943.89,494.493 954.064,484.319 954.064,471.788L954.064,354.141Z" style="fill:rgb(237,244,251);fill-opacity:0.28;"/></g><g transform="matrix(0.665131,0,0,0.632686,235.375,950.694)"><path d="M954.064,354.141C954.064,341.61 943.89,331.436 931.359,331.436L725.592,331.436C713.06,331.436 702.887,341.61 702.887,354.141L702.887,471.788C702.887,484.319 713.06,494.493 725.592,494.493L931.359,494.493C943.89,494.493 954.064,484.319 954.064,471.788L954.064,354.141Z" style="fill:rgb(237,244,251);fill-opacity:0.28;"/></g><g transform="matrix(0.48999,0,0,0.48999,304.848,228.033)"><g transform="matrix(1,0,0,1,-360.494,12.0204)"><path d="M1352.16,353.845C1360.59,353.845 1366.12,349.444 1368.75,340.642C1371.37,331.84 1372.68,319.135 1372.68,302.527C1372.68,285.122 1371.37,272.235 1368.75,263.864C1366.12,255.494 1360.59,251.309 1352.16,251.309C1343.72,251.309 1338.14,255.494 1335.42,263.864C1332.69,272.235 1331.33,285.122 1331.33,302.527C1331.33,319.135 1332.69,331.84 1335.42,340.642C1338.14,349.444 1343.72,353.845 1352.16,353.845ZM1401.98,302.527C1401.98,326.376 1398.28,344.744 1390.87,357.632C1383.46,370.52 1370.56,376.963 1352.16,376.963C1333.76,376.963 1320.85,370.52 1313.44,357.632C1306.04,344.744 1302.33,326.376 1302.33,302.527C1302.33,278.678 1306.04,260.277 1313.44,247.323C1320.85,234.369 1333.76,227.892 1352.16,227.892C1370.56,227.892 1383.46,234.369 1390.87,247.323C1398.28,260.277 1401.98,278.678 1401.98,302.527Z" style="fill:rgb(54,87,149);fill-rule:nonzero;"/></g><g transform="matrix(1,0,0,1,-538.735,298.943)"><path d="M1480.3,273.729L1480.3,254.398C1489.27,253.999 1495.55,253.401 1499.14,252.604C1504.85,251.342 1509.5,248.818 1513.09,245.031C1515.55,242.44 1517.4,238.986 1518.67,234.668C1519.4,232.077 1519.76,230.15 1519.76,228.888L1543.38,228.888L1543.38,373.376L1514.28,373.376L1514.28,273.729L1480.3,273.729Z" style="fill:rgb(54,87,149);fill-rule:nonzero;"/></g><g transform="matrix(1,0,0,1,-710.431,588.698)"><path d="M1649.4,344.977C1653.46,335.344 1663.02,325.147 1678.1,314.385C1691.19,305.018 1699.66,298.309 1703.51,294.257C1709.42,287.946 1712.38,281.037 1712.38,273.53C1712.38,267.418 1710.69,262.336 1707.3,258.284C1703.91,254.232 1699.06,252.206 1692.75,252.206C1684.11,252.206 1678.24,255.428 1675.11,261.871C1673.32,265.592 1672.26,271.504 1671.92,279.609L1644.32,279.609C1644.79,267.319 1647.01,257.387 1651,249.814C1658.57,235.399 1672.02,228.191 1691.36,228.191C1706.63,228.191 1718.79,232.426 1727.83,240.896C1736.86,249.366 1741.38,260.576 1741.38,274.527C1741.38,285.222 1738.19,294.722 1731.81,303.026C1727.63,308.539 1720.75,314.684 1711.18,321.46L1699.83,329.532C1692.72,334.58 1687.85,338.234 1685.23,340.493C1682.6,342.751 1680.39,345.375 1678.6,348.365L1741.68,348.365L1741.68,373.376L1642.73,373.376C1642.99,363.013 1645.22,353.546 1649.4,344.977Z" style="fill:rgb(54,87,149);fill-rule:nonzero;"/></g><g transform="matrix(1,0,0,1,-882.588,864.135)"><path d="M1839.83,329.033C1839.83,334.813 1840.76,339.596 1842.62,343.382C1846.07,350.358 1852.35,353.845 1861.45,353.845C1867.03,353.845 1871.9,351.935 1876.05,348.116C1880.2,344.296 1882.28,338.799 1882.28,331.624C1882.28,322.124 1878.42,315.78 1870.72,312.592C1866.34,310.798 1859.43,309.901 1849.99,309.901L1849.99,289.573C1859.23,289.44 1865.67,288.544 1869.32,286.883C1875.63,284.093 1878.79,278.446 1878.79,269.943C1878.79,264.429 1877.18,259.945 1873.96,256.49C1870.74,253.036 1866.2,251.309 1860.36,251.309C1853.65,251.309 1848.71,253.435 1845.56,257.686C1842.4,261.938 1840.89,267.618 1841.03,274.726L1814.52,274.726C1814.78,267.551 1816.01,260.742 1818.2,254.298C1820.53,248.652 1824.18,243.437 1829.17,238.654C1832.89,235.266 1837.3,232.675 1842.42,230.881C1847.54,229.088 1853.81,228.191 1861.25,228.191C1875.07,228.191 1886.21,231.761 1894.68,238.903C1903.15,246.044 1907.39,255.627 1907.39,267.651C1907.39,276.154 1904.87,283.329 1899.82,289.175C1896.63,292.828 1893.31,295.319 1889.85,296.648C1892.44,296.648 1896.16,298.874 1901.01,303.324C1908.25,310.034 1911.87,319.201 1911.87,330.827C1911.87,343.05 1907.64,353.796 1899.17,363.063C1890.7,372.33 1878.16,376.963 1861.55,376.963C1841.09,376.963 1826.88,370.287 1818.9,356.934C1814.72,349.826 1812.39,340.526 1811.93,329.033L1839.83,329.033Z" style="fill:rgb(54,87,149);fill-rule:nonzero;"/></g><g transform="matrix(1,0,0,1,-1058.99,1142.9)"><path d="M2083.47,342.286L2067.12,342.286L2067.12,373.376L2039.32,373.376L2039.32,342.286L1982.12,342.286L1982.12,317.474L2035.24,229.785L2067.12,229.785L2067.12,320.065L2083.47,320.065L2083.47,342.286ZM2039.32,320.065L2039.32,257.686L2003.15,320.065L2039.32,320.065Z" style="fill:rgb(54,87,149);fill-rule:nonzero;"/></g><g transform="matrix(1,0,0,1,-1218.94,1433.41)"><path d="M2254.56,253.003C2250.31,257.188 2244.39,264.645 2236.82,275.374C2229.25,286.102 2222.9,297.18 2217.79,308.606C2213.74,317.574 2210.08,328.535 2206.83,341.489C2203.57,354.443 2201.95,365.072 2201.95,373.376L2172.45,373.376C2173.31,347.468 2181.82,320.53 2197.96,292.563C2208.39,275.224 2217.12,263.134 2224.17,256.291L2152.12,256.291L2152.52,230.782L2254.56,230.782L2254.56,253.003Z" style="fill:rgb(54,87,149);fill-rule:nonzero;"/></g><g transform="matrix(1,0,0,1,-1396.45,1703.68)"><path d="M2372.84,353.845C2379.35,353.845 2384.45,351.886 2388.14,347.966C2391.82,344.047 2393.67,338.533 2393.67,331.425C2393.67,324.051 2391.79,318.454 2388.04,314.634C2384.28,310.815 2379.22,308.905 2372.84,308.905C2366.46,308.905 2361.4,310.815 2357.64,314.634C2353.89,318.454 2352.01,324.051 2352.01,331.425C2352.01,338.533 2353.86,344.047 2357.54,347.966C2361.23,351.886 2366.33,353.845 2372.84,353.845ZM2344.24,296.449C2337.26,291.799 2332.73,286.766 2330.64,281.352C2328.55,275.938 2327.5,270.873 2327.5,266.156C2327.5,255.66 2331.45,246.708 2339.36,239.301C2347.26,231.894 2358.42,228.191 2372.84,228.191C2387.26,228.191 2398.41,231.894 2406.32,239.301C2414.23,246.708 2418.18,255.66 2418.18,266.156C2418.18,270.873 2417.13,275.938 2415.04,281.352C2412.95,286.766 2408.41,291.466 2401.44,295.452C2408.55,299.438 2413.89,304.72 2417.48,311.296C2421.07,317.873 2422.86,325.214 2422.86,333.318C2422.86,345.475 2418.36,355.822 2409.36,364.358C2400.36,372.895 2387.79,377.163 2371.64,377.163C2355.5,377.163 2343.28,372.895 2334.97,364.358C2326.67,355.822 2322.52,345.475 2322.52,333.318C2322.52,325.214 2324.36,317.873 2328.05,311.296C2331.74,304.72 2337.13,299.77 2344.24,296.449ZM2372.84,287.182C2378.62,287.182 2383.09,285.521 2386.24,282.199C2389.4,278.878 2390.97,274.593 2390.97,269.345C2390.97,263.632 2389.4,259.164 2386.24,255.942C2383.09,252.72 2378.62,251.11 2372.84,251.11C2367.13,251.11 2362.66,252.72 2359.44,255.942C2356.22,259.164 2354.6,263.632 2354.6,269.345C2354.6,274.593 2356.22,278.878 2359.44,282.199C2362.66,285.521 2367.13,287.182 2372.84,287.182Z" style="fill:rgb(54,87,149);fill-rule:nonzero;"/></g></g></g><g transform="matrix(1.53733,1.68238e-16,1.68238e-16,1.45689,-445.283,54.0645)"><g transform="matrix(0.665131,0,0,0.632686,527.448,121.741)"><path d="M1247.41,354.141C1247.41,341.61 1237.24,331.436 1224.71,331.436L725.592,331.436C713.06,331.436 702.887,341.61 702.887,354.141L702.887,471.788C702.887,484.319 713.06,494.493 725.592,494.493L1224.71,494.493C1237.24,494.493 1247.41,484.319 1247.41,471.788L1247.41,354.141Z" style="fill:rgb(237,244,251);fill-opacity:0.89;"/></g><g transform="matrix(0.665131,0,0,0.632686,527.448,260.661)"><path d="M1247.41,354.141C1247.41,341.61 1237.24,331.436 1224.71,331.436L725.592,331.436C713.06,331.436 702.887,341.61 702.887,354.141L702.887,471.788C702.887,484.319 713.06,494.493 725.592,494.493L1224.71,494.493C1237.24,494.493 1247.41,484.319 1247.41,471.788L1247.41,354.141Z" style="fill:rgb(237,244,251);fill-opacity:0.89;"/></g><g transform="matrix(0.665131,0,0,0.632686,527.448,399.58)"><path d="M1247.41,354.141C1247.41,341.61 1237.24,331.436 1224.71,331.436L725.592,331.436C713.06,331.436 702.887,341.61 702.887,354.141L702.887,471.788C702.887,484.319 713.06,494.493 725.592,494.493L1224.71,494.493C1237.24,494.493 1247.41,484.319 1247.41,471.788L1247.41,354.141Z" style="fill:rgb(237,244,251);fill-opacity:0.89;"/></g><g transform="matrix(0.665131,0,0,0.632686,527.448,538.5)"><path d="M1247.41,354.141C1247.41,341.61 1237.24,331.436 1224.71,331.436L725.592,331.436C713.06,331.436 702.887,341.61 702.887,354.141L702.887,471.788C702.887,484.319 713.06,494.493 725.592,494.493L1224.71,494.493C1237.24,494.493 1247.41,484.319 1247.41,471.788L1247.41,354.141Z" style="fill:rgb(237,244,251);fill-opacity:0.89;"/></g><g transform="matrix(0.665131,0,0,0.632686,527.448,677.42)"><path d="M1247.41,354.141C1247.41,341.61 1237.24,331.436 1224.71,331.436L725.592,331.436C713.06,331.436 702.887,341.61 702.887,354.141L702.887,471.788C702.887,484.319 713.06,494.493 725.592,494.493L1224.71,494.493C1237.24,494.493 1247.41,484.319 1247.41,471.788L1247.41,354.141Z" style="fill:rgb(237,244,251);fill-opacity:0.89;"/></g><g transform="matrix(0.665131,0,0,0.632686,527.448,816.339)"><path d="M1247.41,354.141C1247.41,341.61 1237.24,331.436 1224.71,331.436L725.592,331.436C713.06,331.436 702.887,341.61 702.887,354.141L702.887,471.788C702.887,484.319 713.06,494.493 725.592,494.493L1224.71,494.493C1237.24,494.493 1247.41,484.319 1247.41,471.788L1247.41,354.141Z" style="fill:rgb(237,244,251);fill-opacity:0.89;"/></g><g transform="matrix(0.665131,0,0,0.632686,527.448,950.694)"><path d="M1247.41,354.141C1247.41,341.61 1237.24,331.436 1224.71,331.436L725.592,331.436C713.06,331.436 702.887,341.61 702.887,354.141L702.887,471.788C702.887,484.319 713.06,494.493 725.592,494.493L1224.71,494.493C1237.24,494.493 1247.41,484.319 1247.41,471.788L1247.41,354.141Z" style="fill:rgb(237,244,251);fill-opacity:0.89;"/></g><g transform="matrix(0.493802,0,0,0.493802,742.026,66.372)"><g transform="matrix(1,0,0,1,447.337,462.256)"><path d="M423.246,222.621C431.682,222.621 437.213,218.22 439.837,209.418C442.461,200.616 443.773,187.911 443.773,171.303C443.773,153.898 442.461,141.01 439.837,132.64C437.213,124.27 431.682,120.085 423.246,120.085C414.809,120.085 409.229,124.27 406.505,132.64C403.781,141.01 402.419,153.898 402.419,171.303C402.419,187.911 403.781,200.616 406.505,209.418C409.229,218.22 414.809,222.621 423.246,222.621ZM473.069,171.303C473.069,195.152 469.365,213.52 461.958,226.408C454.551,239.295 441.647,245.739 423.246,245.739C404.844,245.739 391.94,239.295 384.533,226.408C377.126,213.52 373.422,195.152 373.422,171.303C373.422,147.454 377.126,129.053 384.533,116.099C391.94,103.145 404.844,96.668 423.246,96.668C441.647,96.668 454.551,103.145 461.958,116.099C469.365,129.053 473.069,147.454 473.069,171.303Z" style="fill:rgb(54,87,149);fill-opacity:0.89;fill-rule:nonzero;"/></g><g transform="matrix(1,0,0,1,292.655,749.984)"><path d="M551.391,142.505L551.391,123.174C560.359,122.775 566.637,122.177 570.225,121.38C575.938,120.118 580.588,117.593 584.175,113.807C586.633,111.216 588.493,107.762 589.755,103.444C590.486,100.853 590.851,98.926 590.851,97.664L614.468,97.664L614.468,242.152L585.371,242.152L585.371,142.505L551.391,142.505Z" style="fill:rgb(54,87,149);fill-opacity:0.89;fill-rule:nonzero;"/></g><g transform="matrix(1,0,0,1,51.544,1029.06)"><path d="M721.588,142.505L721.588,123.174C730.556,122.775 736.834,122.177 740.421,121.38C746.134,120.118 750.784,117.593 754.372,113.807C756.83,111.216 758.69,107.762 759.952,103.444C760.683,100.853 761.048,98.926 761.048,97.664L784.664,97.664L784.664,242.152L755.568,242.152L755.568,142.505L721.588,142.505Z" style="fill:rgb(54,87,149);fill-opacity:0.89;fill-rule:nonzero;"/></g><g transform="matrix(1,0,0,1,51.544,1029.06)"><path d="M877.137,222.621C885.573,222.621 891.104,218.22 893.728,209.418C896.352,200.616 897.664,187.911 897.664,171.303C897.664,153.898 896.352,141.01 893.728,132.64C891.104,124.27 885.573,120.085 877.137,120.085C868.7,120.085 863.12,124.27 860.396,132.64C857.672,141.01 856.31,153.898 856.31,171.303C856.31,187.911 857.672,200.616 860.396,209.418C863.12,218.22 868.7,222.621 877.137,222.621ZM926.96,171.303C926.96,195.152 923.256,213.52 915.849,226.408C908.442,239.295 895.538,245.739 877.137,245.739C858.735,245.739 845.831,239.295 838.424,226.408C831.017,213.52 827.313,195.152 827.313,171.303C827.313,147.454 831.017,129.053 838.424,116.099C845.831,103.145 858.735,96.668 877.137,96.668C895.538,96.668 908.442,103.145 915.849,116.099C923.256,129.053 926.96,147.454 926.96,171.303Z" style="fill:rgb(54,87,149);fill-opacity:0.89;fill-rule:nonzero;"/></g><g transform="matrix(1,0,0,1,-225.318,1319.98)"><path d="M1005.28,142.505L1005.28,123.174C1014.25,122.775 1020.53,122.177 1024.12,121.38C1029.83,120.118 1034.48,117.593 1038.07,113.807C1040.52,111.216 1042.38,107.762 1043.65,103.444C1044.38,100.853 1044.74,98.926 1044.74,97.664L1068.36,97.664L1068.36,242.152L1039.26,242.152L1039.26,142.505L1005.28,142.505Z" style="fill:rgb(54,87,149);fill-opacity:0.89;fill-rule:nonzero;"/></g><g transform="matrix(1,0,0,1,-225.318,1319.98)"><path d="M1118.78,142.505L1118.78,123.174C1127.75,122.775 1134.03,122.177 1137.61,121.38C1143.33,120.118 1147.98,117.593 1151.56,113.807C1154.02,111.216 1155.88,107.762 1157.14,103.444C1157.88,100.853 1158.24,98.926 1158.24,97.664L1181.86,97.664L1181.86,242.152L1152.76,242.152L1152.76,142.505L1118.78,142.505Z" style="fill:rgb(54,87,149);fill-opacity:0.89;fill-rule:nonzero;"/></g><g transform="matrix(1,0,0,1,-573.887,1592.41)"><path d="M1288.98,142.505L1288.98,123.174C1297.94,122.775 1304.22,122.177 1307.81,121.38C1313.52,120.118 1318.17,117.593 1321.76,113.807C1324.22,111.216 1326.08,107.762 1327.34,103.444C1328.07,100.853 1328.44,98.926 1328.44,97.664L1352.05,97.664L1352.05,242.152L1322.96,242.152L1322.96,142.505L1288.98,142.505Z" style="fill:rgb(54,87,149);fill-opacity:0.89;fill-rule:nonzero;"/></g><g transform="matrix(1,0,0,1,-573.887,1592.41)"><path d="M1444.53,222.621C1452.96,222.621 1458.49,218.22 1461.12,209.418C1463.74,200.616 1465.05,187.911 1465.05,171.303C1465.05,153.898 1463.74,141.01 1461.12,132.64C1458.49,124.27 1452.96,120.085 1444.53,120.085C1436.09,120.085 1430.51,124.27 1427.79,132.64C1425.06,141.01 1423.7,153.898 1423.7,171.303C1423.7,187.911 1425.06,200.616 1427.79,209.418C1430.51,218.22 1436.09,222.621 1444.53,222.621ZM1494.35,171.303C1494.35,195.152 1490.64,213.52 1483.24,226.408C1475.83,239.295 1462.93,245.739 1444.53,245.739C1426.12,245.739 1413.22,239.295 1405.81,226.408C1398.41,213.52 1394.7,195.152 1394.7,171.303C1394.7,147.454 1398.41,129.053 1405.81,116.099C1413.22,103.145 1426.12,96.668 1444.53,96.668C1462.93,96.668 1475.83,103.145 1483.24,116.099C1490.64,129.053 1494.35,147.454 1494.35,171.303Z" style="fill:rgb(54,87,149);fill-opacity:0.89;fill-rule:nonzero;"/></g><g transform="matrix(1,0,0,1,-573.887,1592.41)"><path d="M1558.02,222.621C1566.46,222.621 1571.99,218.22 1574.61,209.418C1577.24,200.616 1578.55,187.911 1578.55,171.303C1578.55,153.898 1577.24,141.01 1574.61,132.64C1571.99,124.27 1566.46,120.085 1558.02,120.085C1549.59,120.085 1544.01,124.27 1541.28,132.64C1538.56,141.01 1537.2,153.898 1537.2,171.303C1537.2,187.911 1538.56,200.616 1541.28,209.418C1544.01,218.22 1549.59,222.621 1558.02,222.621ZM1607.85,171.303C1607.85,195.152 1604.14,213.52 1596.74,226.408C1589.33,239.295 1576.42,245.739 1558.02,245.739C1539.62,245.739 1526.72,239.295 1519.31,226.408C1511.9,213.52 1508.2,195.152 1508.2,171.303C1508.2,147.454 1511.9,129.053 1519.31,116.099C1526.72,103.145 1539.62,96.668 1558.02,96.668C1576.42,96.668 1589.33,103.145 1596.74,116.099C1604.14,129.053 1607.85,147.454 1607.85,171.303Z" style="fill:rgb(54,87,149);fill-opacity:0.89;fill-rule:nonzero;"/></g><g transform="matrix(1,0,0,1,-972.44,1877.37)"><path d="M1686.17,142.505L1686.17,123.174C1695.14,122.775 1701.41,122.177 1705,121.38C1710.72,120.118 1715.37,117.593 1718.95,113.807C1721.41,111.216 1723.27,107.762 1724.53,103.444C1725.26,100.853 1725.63,98.926 1725.63,97.664L1749.25,97.664L1749.25,242.152L1720.15,242.152L1720.15,142.505L1686.17,142.505Z" style="fill:rgb(54,87,149);fill-opacity:0.89;fill-rule:nonzero;"/></g><g transform="matrix(1,0,0,1,-972.44,1877.37)"><path d="M1799.67,142.505L1799.67,123.174C1808.63,122.775 1814.91,122.177 1818.5,121.38C1824.21,120.118 1828.86,117.593 1832.45,113.807C1834.91,111.216 1836.77,107.762 1838.03,103.444C1838.76,100.853 1839.13,98.926 1839.13,97.664L1862.74,97.664L1862.74,242.152L1833.65,242.152L1833.65,142.505L1799.67,142.505Z" style="fill:rgb(54,87,149);fill-opacity:0.89;fill-rule:nonzero;"/></g><g transform="matrix(1,0,0,1,-972.44,1877.37)"><path d="M1913.16,142.505L1913.16,123.174C1922.13,122.775 1928.41,122.177 1932,121.38C1937.71,120.118 1942.36,117.593 1945.95,113.807C1948.41,111.216 1950.27,107.762 1951.53,103.444C1952.26,100.853 1952.62,98.926 1952.62,97.664L1976.24,97.664L1976.24,242.152L1947.14,242.152L1947.14,142.505L1913.16,142.505Z" style="fill:rgb(54,87,149);fill-opacity:0.89;fill-rule:nonzero;"/></g><g transform="matrix(1,0,0,1,-1441.6,2145.83)"><path d="M2083.36,142.505L2083.36,123.174C2092.33,122.775 2098.61,122.177 2102.19,121.38C2107.91,120.118 2112.56,117.593 2116.14,113.807C2118.6,111.216 2120.46,107.762 2121.72,103.444C2122.46,100.853 2122.82,98.926 2122.82,97.664L2146.44,97.664L2146.44,242.152L2117.34,242.152L2117.34,142.505L2083.36,142.505Z" style="fill:rgb(54,87,149);fill-opacity:0.89;fill-rule:nonzero;"/></g><g transform="matrix(1,0,0,1,-1441.6,2145.83)"><path d="M2238.91,222.621C2247.35,222.621 2252.88,218.22 2255.5,209.418C2258.12,200.616 2259.44,187.911 2259.44,171.303C2259.44,153.898 2258.12,141.01 2255.5,132.64C2252.88,124.27 2247.35,120.085 2238.91,120.085C2230.47,120.085 2224.89,124.27 2222.17,132.64C2219.45,141.01 2218.08,153.898 2218.08,171.303C2218.08,187.911 2219.45,200.616 2222.17,209.418C2224.89,218.22 2230.47,222.621 2238.91,222.621ZM2288.73,171.303C2288.73,195.152 2285.03,213.52 2277.62,226.408C2270.22,239.295 2257.31,245.739 2238.91,245.739C2220.51,245.739 2207.6,239.295 2200.2,226.408C2192.79,213.52 2189.09,195.152 2189.09,171.303C2189.09,147.454 2192.79,129.053 2200.2,116.099C2207.6,103.145 2220.51,96.668 2238.91,96.668C2257.31,96.668 2270.22,103.145 2277.62,116.099C2285.03,129.053 2288.73,147.454 2288.73,171.303Z" style="fill:rgb(54,87,149);fill-opacity:0.89;fill-rule:nonzero;"/></g><g transform="matrix(1,0,0,1,-1441.6,2145.83)"><path d="M2352.41,222.621C2360.84,222.621 2366.37,218.22 2369,209.418C2371.62,200.616 2372.93,187.911 2372.93,171.303C2372.93,153.898 2371.62,141.01 2369,132.64C2366.37,124.27 2360.84,120.085 2352.41,120.085C2343.97,120.085 2338.39,124.27 2335.67,132.64C2332.94,141.01 2331.58,153.898 2331.58,171.303C2331.58,187.911 2332.94,200.616 2335.67,209.418C2338.39,218.22 2343.97,222.621 2352.41,222.621ZM2402.23,171.303C2402.23,195.152 2398.53,213.52 2391.12,226.408C2383.71,239.295 2370.81,245.739 2352.41,245.739C2334.01,245.739 2321.1,239.295 2313.69,226.408C2306.29,213.52 2302.58,195.152 2302.58,171.303C2302.58,147.454 2306.29,129.053 2313.69,116.099C2321.1,103.145 2334.01,96.668 2352.41,96.668C2370.81,96.668 2383.71,103.145 2391.12,116.099C2398.53,129.053 2402.23,147.454 2402.23,171.303Z" style="fill:rgb(54,87,149);fill-opacity:0.89;fill-rule:nonzero;"/></g><g transform="matrix(1,0,0,1,-1441.6,2145.83)"><path d="M2465.91,222.621C2474.34,222.621 2479.87,218.22 2482.5,209.418C2485.12,200.616 2486.43,187.911 2486.43,171.303C2486.43,153.898 2485.12,141.01 2482.5,132.64C2479.87,124.27 2474.34,120.085 2465.91,120.085C2457.47,120.085 2451.89,124.27 2449.16,132.64C2446.44,141.01 2445.08,153.898 2445.08,171.303C2445.08,187.911 2446.44,200.616 2449.16,209.418C2451.89,218.22 2457.47,222.621 2465.91,222.621ZM2515.73,171.303C2515.73,195.152 2512.03,213.52 2504.62,226.408C2497.21,239.295 2484.31,245.739 2465.91,245.739C2447.5,245.739 2434.6,239.295 2427.19,226.408C2419.78,213.52 2416.08,195.152 2416.08,171.303C2416.08,147.454 2419.78,129.053 2427.19,116.099C2434.6,103.145 2447.5,96.668 2465.91,96.668C2484.31,96.668 2497.21,103.145 2504.62,116.099C2512.03,129.053 2515.73,147.454 2515.73,171.303Z" style="fill:rgb(54,87,149);fill-opacity:0.89;fill-rule:nonzero;"/></g></g></g></g><g transform="matrix(0.999297,0,0,0.999297,-1.66913,0.144597)"><path d="M1955.65,2220.27C1944.79,2203.16 1865.68,2279.65 1881.37,2319.88C1913.39,2401.99 2124.21,2399.57 2134.27,2307.74" style="fill:rgb(255,171,101);"/></g><g transform="matrix(0.999297,0,0,0.999297,-1.66913,0.144597)"><path d="M1888.7,2132.8C1871.27,2136.87 1824.88,2222.37 1839.54,2244.8C1856.6,2270.88 1938.15,2265.82 1961.68,2249.94C1971.12,2243.57 1986.97,2209.04 1995.04,2197.81" style="fill:rgb(255,171,101);"/></g><g transform="matrix(0.999297,0,0,0.999297,-1.66913,0.144597)"><path d="M1999.79,1633.73L1634.53,557.997L1097.63,535.721L1083,1935.49L1645.4,1922.46L1941.53,1782.68L1999.79,1633.73Z" style="fill:url(#_Linear3);"/></g><g transform="matrix(0.999297,0,0,0.999297,-1.66913,0.144597)"><path d="M1999.79,1633.73L1634.53,557.997L1097.63,535.721L1083,1935.49L1645.4,1922.46L1941.53,1782.68L1999.79,1633.73Z" style="fill:url(#_Linear4);"/></g><g transform="matrix(0.999297,0,0,0.999297,-1.66913,0.144597)"><path d="M1904.16,1663.51L1400.25,620.557L1863.2,1702.4L1904.16,1663.51Z" style="fill:url(#_Linear5);"/></g><g transform="matrix(1.41062,0,0,0.753237,-784.894,419.038)"><path d="M1904.16,1663.51L1400.25,620.557L1863.2,1702.4L1904.16,1663.51Z" style="fill:url(#_Linear6);"/></g><g transform="matrix(-1.25828,-0.250287,-0.346733,1.18959,4150.11,1215.96)"><path d="M199.087,1267.67C199.087,1267.67 168.28,1287.44 138.32,1306.67C128.017,1313.28 122.427,1325.22 123.949,1337.37C125.47,1349.52 133.832,1359.71 145.447,1363.57C309.454,1418.16 745.882,1563.42 881.354,1608.51C906.793,1616.98 934.778,1612.24 956.011,1595.87C1083.51,1497.57 1645.63,996.514 1645.63,996.514C1645.63,996.514 1637.12,989.901 1632.4,990.787C1391.31,1035.98 199.087,1267.67 199.087,1267.67Z" style="fill:url(#_Linear7);"/><path d="M1688.12,875.483L199.087,1267.67C199.087,1267.67 168.28,1287.44 138.32,1306.67C135.805,1308.28 133.571,1310.21 131.652,1312.39C131.652,1312.39 674.575,1497.64 860.252,1561C898.522,1574.06 940.805,1566.77 972.498,1541.66C1141.36,1407.86 1640.71,995.872 1640.71,995.872L1689.75,884.483L1688.12,875.483Z" style="fill:url(#_Linear8);"/><path d="M1745.2,695.129C1745.2,695.129 1748.61,719.198 1751.08,736.661C1752.72,748.249 1751.03,760.065 1746.21,770.73C1726.63,814.076 1673.5,931.654 1654.1,974.596C1649.36,985.09 1642.13,994.273 1633.05,1001.36C1550.57,1065.69 1121.83,1400.08 971.023,1517.7C938.257,1543.26 894.784,1550.5 855.504,1536.94C702.362,1484.09 313.212,1356.2 185.336,1312.06C159.926,1303.29 138.105,1273.61 134.699,1246.94C132.326,1228.37 131.458,1210.83 131.458,1210.83L1745.2,695.129Z" style="fill:rgb(188,66,115);"/><g transform="matrix(-0.634627,-0.133524,-0.184977,0.671271,2296.57,-203.824)"><path d="M1028.5,2531.47L1034.56,2538.7L1060.69,2533.33C1049.68,2533.27 1038.98,2532.62 1028.5,2531.47ZM466.054,1807.44L473.24,1849.64C475.995,1865.82 482.983,1880.89 493.6,1893.56L1021.18,2522.74C1006.4,2495.71 997.851,2465.31 987.074,2436.6C968.648,2387.52 943.078,2330.84 911.445,2288.93C857.557,2217.53 796.056,2149.23 732.989,2085.69C684.334,2036.68 630.257,2000.94 584.554,1947.09C566.196,1925.46 514.872,1848.63 466.054,1807.44Z" style="fill:rgb(153,54,93);"/></g><g transform="matrix(1.04368,0.341631,-0.811344,0.635318,873.386,-87.2912)"><g transform="matrix(0.675691,-0.363341,0.862903,1.11,-504.237,423.395)"><path d="M795.726,673.702C793.373,677.24 790.468,680.379 787.123,682.998C733.591,724.916 269.989,1087.94 140.085,1189.66C133.442,1194.86 130.205,1203.3 131.666,1211.61C133.126,1219.92 139.046,1226.75 147.065,1229.37C287.139,1275.22 747.644,1425.96 872.265,1466.75C891.847,1473.16 913.336,1469.38 929.558,1456.68C1054.69,1358.7 1589.65,939.801 1589.65,939.801L1589.8,939.848C1589.8,939.848 1697.38,778.08 1740.94,712.567C1745.22,706.142 1746.24,698.087 1743.71,690.797C1741.18,683.507 1735.38,677.821 1728.04,675.428C1601.2,634.061 1121.13,477.497 992.704,435.615C973.933,429.493 953.384,436.632 942.451,453.072C903.397,511.796 814.565,645.373 795.726,673.702Z" style="fill:rgb(255,172,205);"/></g><g transform="matrix(0.675691,-0.363341,0.862903,1.11,-514.816,414.231)"><path d="M795.726,673.702C793.373,677.24 790.468,680.379 787.123,682.998C733.591,724.916 269.989,1087.94 140.085,1189.66C133.442,1194.86 130.205,1203.3 131.666,1211.61C133.126,1219.92 139.046,1226.75 147.065,1229.37C287.139,1275.22 747.644,1425.96 872.265,1466.75C891.847,1473.16 913.336,1469.38 929.558,1456.68C1054.69,1358.7 1589.65,939.801 1589.65,939.801L1589.8,939.848C1589.8,939.848 1697.38,778.08 1740.94,712.567C1745.22,706.142 1746.24,698.087 1743.71,690.797C1741.18,683.507 1735.38,677.821 1728.04,675.428C1601.2,634.061 1121.13,477.497 992.704,435.615C973.933,429.493 953.384,436.632 942.451,453.072C903.397,511.796 814.565,645.373 795.726,673.702Z" style="fill:rgb(236,97,152);"/></g><g transform="matrix(-0.54403,0.0823739,0.454254,0.812323,861.075,-646.454)"><path d="M875.703,1367.35L1679.51,1286.66C1709.98,1283.6 1737.66,1299.74 1747.19,1326.12C1781.26,1420.38 1858.74,1634.79 1875.17,1680.26C1877.23,1685.94 1880.26,1691.22 1884.17,1695.9L2614.74,2570.85C2547.58,2611.34 2436.49,2492.24 2399.24,2452.93C2297.11,2345.11 2204.36,2228.99 2112.37,2112.59C2048.93,2032.33 1999.39,1920.28 1913.32,1861.18C1825.14,1800.62 1330.07,1869.28 1193.27,1869.28C1157.9,1869.28 991.713,1884.47 970.175,1854.44C969.903,1854.06 969.991,1853.5 970.069,1853.04C973.879,1830.63 1189.01,1810.4 1216.36,1807.93C1312.19,1799.28 1790.66,1795.81 1836.16,1707.61C1846.83,1686.95 1830.2,1646.38 1822.13,1627.1C1744.37,1441.37 1471.38,1429.51 1303.9,1448.86C1214.17,1459.23 1122.25,1486.01 1031.62,1465.65C993.013,1456.98 944.745,1443.72 913.604,1417.98C903.816,1409.89 888.897,1390.37 875.703,1367.35Z" style="fill:url(#_Linear9);"/></g><g transform="matrix(-0.564832,0.0440017,0.428112,0.815302,933.424,-607.542)"><ellipse cx="1157.42" cy="1846.53" rx="220.398" ry="34.936" style="fill:url(#_Linear10);"/></g><g transform="matrix(0.658681,-0.354194,0.830313,1.06808,-463.336,469.223)"><path d="M957.979,1363.72C962.667,1360.04 961.64,1355.48 955.685,1353.53L874.861,1327.08C868.907,1325.13 860.266,1326.53 855.578,1330.2L838.589,1343.5C833.9,1347.17 834.928,1351.73 840.883,1353.68L921.707,1380.14C927.661,1382.09 936.301,1380.69 940.99,1377.02L957.979,1363.72ZM821.97,1319.19C826.658,1315.52 825.63,1310.96 819.676,1309.01L738.852,1282.56C732.898,1280.61 724.257,1282.01 719.569,1285.68L702.579,1298.98C697.891,1302.65 698.919,1307.21 704.873,1309.16L785.697,1335.62C791.652,1337.57 800.292,1336.17 804.98,1332.5L821.97,1319.19ZM1074.19,1278.14C1082.65,1271.51 1080.8,1263.28 1070.06,1259.76L924.226,1212.03C913.482,1208.51 897.892,1211.03 889.433,1217.66L858.779,1241.66C850.32,1248.29 852.174,1256.52 862.918,1260.03L1008.75,1307.77C1019.49,1311.29 1035.08,1308.76 1043.54,1302.14L1074.19,1278.14ZM828.793,1197.81C837.252,1191.18 835.398,1182.95 824.654,1179.43L678.823,1131.7C668.08,1128.18 652.49,1130.7 644.031,1137.33L613.377,1161.33C604.917,1167.96 606.772,1176.19 617.516,1179.71L763.346,1227.44C774.09,1230.96 789.68,1228.43 798.139,1221.81L828.793,1197.81ZM1183.85,1192.27C1192.31,1185.65 1190.46,1177.41 1179.71,1173.9L1033.88,1126.16C1023.14,1122.64 1007.55,1125.17 999.09,1131.79L968.436,1155.79C959.977,1162.42 961.831,1170.65 972.575,1174.17L1118.41,1221.9C1129.15,1225.42 1144.74,1222.9 1153.2,1216.27L1183.85,1192.27ZM583.391,1117.48C591.85,1110.86 589.995,1102.62 579.252,1099.11L433.421,1051.37C422.678,1047.85 407.087,1050.38 398.628,1057L367.974,1081C359.515,1087.63 361.37,1095.86 372.113,1099.38L517.944,1147.11C528.688,1150.63 544.278,1148.11 552.737,1141.48L583.391,1117.48ZM938.45,1111.94C946.909,1105.32 945.055,1097.09 934.311,1093.57L788.481,1045.83C777.737,1042.32 762.147,1044.84 753.688,1051.46L723.034,1075.47C714.575,1082.09 716.429,1090.32 727.173,1093.84L873.003,1141.58C883.747,1145.09 899.337,1142.57 907.796,1135.94L938.45,1111.94ZM1293.51,1106.4C1301.97,1099.78 1300.11,1091.55 1289.37,1088.03L1143.54,1040.3C1132.8,1036.78 1117.21,1039.3 1108.75,1045.92L1078.09,1069.93C1069.63,1076.55 1071.49,1084.79 1082.23,1088.3L1228.06,1136.04C1238.81,1139.55 1254.4,1137.03 1262.86,1130.41L1293.51,1106.4ZM693.048,1031.61C701.507,1024.99 699.652,1016.76 688.909,1013.24L543.078,965.505C532.335,961.988 516.744,964.51 508.285,971.134L477.631,995.138C469.172,1001.76 471.027,1009.99 481.77,1013.51L627.601,1061.25C638.345,1064.76 653.935,1062.24 662.394,1055.62L693.048,1031.61ZM1048.11,1026.08C1056.57,1019.45 1054.71,1011.22 1043.97,1007.7L898.138,959.967C887.394,956.45 871.804,958.972 863.345,965.596L832.691,989.6C824.232,996.224 826.086,1004.46 836.83,1007.97L982.66,1055.71C993.404,1059.22 1008.99,1056.7 1017.45,1050.08L1048.11,1026.08ZM1388.35,1029.09C1392.43,1025.9 1391.87,1022.03 1387.1,1020.47L1279.35,985.202C1274.58,983.639 1267.39,984.965 1263.31,988.161L1248.52,999.742C1244.43,1002.94 1245,1006.8 1249.77,1008.36L1357.52,1043.63C1362.29,1045.2 1369.48,1043.87 1373.56,1040.67L1388.35,1029.09ZM1207.38,969.856C1211.46,966.66 1210.9,962.797 1206.13,961.235L1098.38,925.965C1093.61,924.403 1086.42,925.729 1082.34,928.925L1067.55,940.506C1063.47,943.702 1064.03,947.565 1068.8,949.128L1176.55,984.397C1181.32,985.959 1188.51,984.633 1192.59,981.437L1207.38,969.856ZM802.705,945.747C811.164,939.123 809.309,930.89 798.566,927.373L652.735,879.638C641.992,876.122 626.401,878.644 617.942,885.268L587.288,909.271C578.829,915.895 580.684,924.128 591.428,927.645L737.258,975.38C748.002,978.897 763.592,976.374 772.051,969.75L802.705,945.747ZM1026.42,910.62C1030.5,907.424 1029.94,903.561 1025.16,901.998L917.416,866.729C912.642,865.166 905.453,866.492 901.372,869.688L886.582,881.269C882.501,884.465 883.063,888.328 887.836,889.891L995.583,925.16C1000.36,926.723 1007.55,925.397 1011.63,922.201L1026.42,910.62ZM845.45,851.383C849.531,848.187 848.969,844.324 844.195,842.761L736.449,807.492C731.675,805.93 724.486,807.256 720.405,810.452L705.615,822.033C701.533,825.229 702.096,829.092 706.869,830.654L814.616,865.923C819.39,867.486 826.579,866.16 830.66,862.964L845.45,851.383Z" style="fill-opacity:0.16;"/></g><g transform="matrix(0.650172,-0.349619,0.830313,1.06808,-468.301,448.823)"><path d="M957.979,1363.72C962.667,1360.04 964.827,1340.02 958.873,1338.08L874.861,1327.08C868.907,1325.13 860.266,1326.53 855.578,1330.2L838.159,1329.21C833.471,1332.88 834.928,1351.73 840.883,1353.68L921.707,1380.14C927.661,1382.09 936.301,1380.69 940.99,1377.02L957.979,1363.72ZM821.97,1319.19C826.658,1315.52 828.805,1296.07 822.851,1294.12L738.852,1282.56C732.898,1280.61 724.257,1282.01 719.569,1285.68L701.772,1284.63C697.084,1288.3 698.919,1307.21 704.873,1309.16L785.697,1335.62C791.652,1337.57 800.292,1336.17 804.98,1332.5L821.97,1319.19ZM1074.19,1278.14C1082.65,1271.51 1084.52,1249.22 1073.78,1245.7L924.226,1212.03C913.482,1208.51 897.892,1211.03 889.433,1217.66L857.93,1228.94C849.471,1235.57 852.174,1256.52 862.918,1260.03L1008.75,1307.77C1019.49,1311.29 1035.08,1308.76 1043.54,1302.14L1074.19,1278.14ZM828.793,1197.81C837.252,1191.18 835.398,1182.95 824.654,1179.43L678.823,1131.7C668.08,1128.18 652.49,1130.7 644.031,1137.33L610.919,1150.08C602.46,1156.7 606.772,1176.19 617.516,1179.71L763.346,1227.44C774.09,1230.96 789.68,1228.43 798.139,1221.81L828.793,1197.81ZM1183.85,1192.27C1192.31,1185.65 1194.31,1163.39 1183.56,1159.88L1033.88,1126.16C1023.14,1122.64 1007.55,1125.17 999.09,1131.79L968.094,1141.08C959.634,1147.7 961.831,1170.65 972.575,1174.17L1118.41,1221.9C1129.15,1225.42 1144.74,1222.9 1153.2,1216.27L1183.85,1192.27ZM583.391,1117.48C591.85,1110.86 593.665,1089.13 582.921,1085.62L433.421,1051.37C422.678,1047.85 407.087,1050.38 398.628,1057L366.216,1067.93C357.757,1074.56 361.37,1095.86 372.113,1099.38L517.944,1147.11C528.688,1150.63 544.278,1148.11 552.737,1141.48L583.391,1117.48ZM938.45,1111.94C946.909,1105.32 945.055,1097.09 934.311,1093.57L788.481,1045.83C777.737,1042.32 762.147,1044.84 753.688,1051.46L722.731,1061.86C714.272,1068.49 716.429,1090.32 727.173,1093.84L873.003,1141.58C883.747,1145.09 899.337,1142.57 907.796,1135.94L938.45,1111.94ZM1293.51,1106.4C1301.97,1099.78 1303.28,1074.89 1292.54,1071.37L1143.54,1040.3C1132.8,1036.78 1117.21,1039.3 1108.75,1045.92L1076.59,1056.94C1068.13,1063.56 1071.49,1084.79 1082.23,1088.3L1228.06,1136.04C1238.81,1139.55 1254.4,1137.03 1262.86,1130.41L1293.51,1106.4ZM693.048,1031.61C701.507,1024.99 703.321,1002.7 692.578,999.179L543.078,965.505C532.335,961.988 516.744,964.51 508.285,971.134L475.324,982.172C466.865,988.796 471.027,1009.99 481.77,1013.51L627.601,1061.25C638.345,1064.76 653.935,1062.24 662.394,1055.62L693.048,1031.61ZM1048.11,1026.08C1056.57,1019.45 1058.98,997.556 1048.23,994.039L898.138,959.967C887.394,956.45 871.804,958.972 863.345,965.596L832.195,975.785C823.736,982.409 826.086,1004.46 836.83,1007.97L982.66,1055.71C993.404,1059.22 1008.99,1056.7 1017.45,1050.08L1048.11,1026.08ZM1388.35,1029.09C1392.43,1025.9 1394.37,1006.69 1389.6,1005.13L1279.35,985.202C1274.58,983.639 1267.39,984.965 1263.31,988.161L1248.26,984.763C1244.18,987.959 1245,1006.8 1249.77,1008.36L1357.52,1043.63C1362.29,1045.2 1369.48,1043.87 1373.56,1040.67L1388.35,1029.09ZM1207.38,969.856C1211.46,966.66 1213.52,947.92 1208.75,946.358L1098.38,925.965C1093.61,924.403 1086.42,925.729 1082.34,928.925L1066.99,926.368C1062.91,929.564 1064.03,947.565 1068.8,949.128L1176.55,984.397C1181.32,985.959 1188.51,984.633 1192.59,981.437L1207.38,969.856ZM802.705,945.747C811.164,939.123 813.191,916.003 802.447,912.486L652.735,879.638C641.992,876.122 626.401,878.644 617.942,885.268L585.431,896.044C576.972,902.668 580.684,924.128 591.428,927.645L737.258,975.38C748.002,978.897 763.592,976.374 772.051,969.75L802.705,945.747ZM1026.42,910.62C1030.5,907.424 1032.44,888.339 1027.66,886.776L917.416,866.729C912.642,865.166 905.453,866.492 901.372,869.688L885.663,867.076C881.582,870.272 883.063,888.328 887.836,889.891L995.583,925.16C1000.36,926.723 1007.55,925.397 1011.63,922.201L1026.42,910.62ZM845.45,851.383C849.531,848.187 851.617,828.802 846.843,827.239L736.449,807.492C731.675,805.93 724.486,807.256 720.405,810.452L705.007,807.308C700.926,810.504 702.096,829.092 706.869,830.654L814.616,865.923C819.39,867.486 826.579,866.16 830.66,862.964L845.45,851.383Z" style="fill:rgb(188,66,115);"/></g><g transform="matrix(0.650172,-0.349619,0.830313,1.06808,-481.842,430.517)"><path d="M957.979,1363.72C962.667,1360.04 961.64,1355.48 955.685,1353.53L874.861,1327.08C868.907,1325.13 860.266,1326.53 855.578,1330.2L838.589,1343.5C833.9,1347.17 834.928,1351.73 840.883,1353.68L921.707,1380.14C927.661,1382.09 936.301,1380.69 940.99,1377.02L957.979,1363.72ZM821.97,1319.19C826.658,1315.52 825.63,1310.96 819.676,1309.01L738.852,1282.56C732.898,1280.61 724.257,1282.01 719.569,1285.68L702.579,1298.98C697.891,1302.65 698.919,1307.21 704.873,1309.16L785.697,1335.62C791.652,1337.57 800.292,1336.17 804.98,1332.5L821.97,1319.19ZM1074.19,1278.14C1082.65,1271.51 1080.8,1263.28 1070.06,1259.76L924.226,1212.03C913.482,1208.51 897.892,1211.03 889.433,1217.66L858.779,1241.66C850.32,1248.29 852.174,1256.52 862.918,1260.03L1008.75,1307.77C1019.49,1311.29 1035.08,1308.76 1043.54,1302.14L1074.19,1278.14ZM828.793,1197.81C837.252,1191.18 835.398,1182.95 824.654,1179.43L678.823,1131.7C668.08,1128.18 652.49,1130.7 644.031,1137.33L613.377,1161.33C604.917,1167.96 606.772,1176.19 617.516,1179.71L763.346,1227.44C774.09,1230.96 789.68,1228.43 798.139,1221.81L828.793,1197.81ZM1183.85,1192.27C1192.31,1185.65 1190.46,1177.41 1179.71,1173.9L1033.88,1126.16C1023.14,1122.64 1007.55,1125.17 999.09,1131.79L968.436,1155.79C959.977,1162.42 961.831,1170.65 972.575,1174.17L1118.41,1221.9C1129.15,1225.42 1144.74,1222.9 1153.2,1216.27L1183.85,1192.27ZM583.391,1117.48C591.85,1110.86 589.995,1102.62 579.252,1099.11L433.421,1051.37C422.678,1047.85 407.087,1050.38 398.628,1057L367.974,1081C359.515,1087.63 361.37,1095.86 372.113,1099.38L517.944,1147.11C528.688,1150.63 544.278,1148.11 552.737,1141.48L583.391,1117.48ZM938.45,1111.94C946.909,1105.32 945.055,1097.09 934.311,1093.57L788.481,1045.83C777.737,1042.32 762.147,1044.84 753.688,1051.46L723.034,1075.47C714.575,1082.09 716.429,1090.32 727.173,1093.84L873.003,1141.58C883.747,1145.09 899.337,1142.57 907.796,1135.94L938.45,1111.94ZM1293.51,1106.4C1301.97,1099.78 1300.11,1091.55 1289.37,1088.03L1143.54,1040.3C1132.8,1036.78 1117.21,1039.3 1108.75,1045.92L1078.09,1069.93C1069.63,1076.55 1071.49,1084.79 1082.23,1088.3L1228.06,1136.04C1238.81,1139.55 1254.4,1137.03 1262.86,1130.41L1293.51,1106.4ZM693.048,1031.61C701.507,1024.99 699.652,1016.76 688.909,1013.24L543.078,965.505C532.335,961.988 516.744,964.51 508.285,971.134L477.631,995.138C469.172,1001.76 471.027,1009.99 481.77,1013.51L627.601,1061.25C638.345,1064.76 653.935,1062.24 662.394,1055.62L693.048,1031.61ZM1048.11,1026.08C1056.57,1019.45 1054.71,1011.22 1043.97,1007.7L898.138,959.967C887.394,956.45 871.804,958.972 863.345,965.596L832.691,989.6C824.232,996.224 826.086,1004.46 836.83,1007.97L982.66,1055.71C993.404,1059.22 1008.99,1056.7 1017.45,1050.08L1048.11,1026.08ZM1388.35,1029.09C1392.43,1025.9 1391.87,1022.03 1387.1,1020.47L1279.35,985.202C1274.58,983.639 1267.39,984.965 1263.31,988.161L1248.52,999.742C1244.43,1002.94 1245,1006.8 1249.77,1008.36L1357.52,1043.63C1362.29,1045.2 1369.48,1043.87 1373.56,1040.67L1388.35,1029.09ZM1207.38,969.856C1211.46,966.66 1210.9,962.797 1206.13,961.235L1098.38,925.965C1093.61,924.403 1086.42,925.729 1082.34,928.925L1067.55,940.506C1063.47,943.702 1064.03,947.565 1068.8,949.128L1176.55,984.397C1181.32,985.959 1188.51,984.633 1192.59,981.437L1207.38,969.856ZM802.705,945.747C811.164,939.123 809.309,930.89 798.566,927.373L652.735,879.638C641.992,876.122 626.401,878.644 617.942,885.268L587.288,909.271C578.829,915.895 580.684,924.128 591.428,927.645L737.258,975.38C748.002,978.897 763.592,976.374 772.051,969.75L802.705,945.747ZM1026.42,910.62C1030.5,907.424 1029.94,903.561 1025.16,901.998L917.416,866.729C912.642,865.166 905.453,866.492 901.372,869.688L886.582,881.269C882.501,884.465 883.063,888.328 887.836,889.891L995.583,925.16C1000.36,926.723 1007.55,925.397 1011.63,922.201L1026.42,910.62ZM845.45,851.383C849.531,848.187 848.969,844.324 844.195,842.761L736.449,807.492C731.675,805.93 724.486,807.256 720.405,810.452L705.615,822.033C701.533,825.229 702.096,829.092 706.869,830.654L814.616,865.923C819.39,867.486 826.579,866.16 830.66,862.964L845.45,851.383Z" style="fill:rgb(255,172,205);"/></g></g><g transform="matrix(1.0013,0.326549,-0.417131,0.627239,366.339,16.9798)"><path d="M1475.96,402.509C1475.96,379.866 1465.14,361.483 1451.82,361.483L764.253,361.483C750.929,361.483 740.111,379.866 740.111,402.509L740.111,595.524C740.111,618.167 750.929,636.551 764.253,636.551L1451.82,636.551C1465.14,636.551 1475.96,618.167 1475.96,595.524L1475.96,402.509Z" style="fill:rgb(152,212,203);"/></g><g transform="matrix(1.0013,0.326549,-0.417131,0.627239,366.339,16.9798)"><path d="M1475.96,402.509C1475.96,379.866 1465.14,361.483 1451.82,361.483L764.253,361.483C750.929,361.483 740.111,379.866 740.111,402.509L740.111,595.524C740.111,618.167 750.929,636.551 764.253,636.551L1451.82,636.551C1465.14,636.551 1475.96,618.167 1475.96,595.524L1475.96,402.509Z" style="fill:rgb(243,210,223);"/></g><path d="M856.158,658.254C856.387,653.435 858.154,648.18 861.574,643.039L942.086,521.973C951.531,507.77 970.031,499.772 983.372,504.122L1671.83,728.646C1676.3,730.106 1679.63,732.773 1681.73,736.207C1682.13,727.717 1677.76,720.581 1669.25,717.805L980.797,493.282C967.456,488.931 948.957,496.929 939.511,511.132L858.999,632.198C852.724,641.634 852.014,651.451 856.158,658.254Z" style="fill:rgb(188,66,115);"/><path d="M1526.92,671.388L1173.48,766.074L1370.45,830.31L1681.05,729.783C1679.52,724.233 1675.5,719.843 1669.25,717.805L1526.92,671.388ZM1321.39,604.359L921.46,683.883L866.418,665.932L1268.73,587.185L1321.39,604.359ZM893.672,580.06L858.999,632.198C856.619,635.777 855.039,639.411 854.222,642.915L1215.88,569.949L1113.34,536.509L893.672,580.06Z" style="fill:url(#_Linear11);"/><g transform="matrix(-0.750658,-0.157937,-0.218797,0.794002,3384.96,-309.86)"><path d="M2489.86,2144.88C2445.75,2145.88 2413.37,2206.35 2429.63,2246.16C2437,2264.21 2459.35,2276.97 2474.83,2287.27C2546.54,2335 2637.29,2354.46 2720.76,2370.89C2789.64,2384.45 2856.53,2406.74 2925.69,2419.84C2964.49,2427.18 3062.89,2450.96 3084.46,2406.51C3128.71,2315.31 3020.72,2246.5 2957.16,2205.65C2872.01,2150.92 2834.56,2064.75 2717.86,2069.06C2681.33,2070.41 2644.81,2081.69 2609.11,2088.88C2572.86,2096.18 2532.76,2105.01 2503.87,2129.43" style="fill-opacity:0.31;"/></g><g transform="matrix(-0.750658,-0.157937,-0.218797,0.794002,3384.96,-309.86)"><path d="M3557.23,2359.28C3532.74,2325.86 3486.61,2246.51 3459.29,2215.54C3411.52,2161.4 3340.97,2073.77 3294.3,2018.25C3229.72,1941.41 3134.28,1828.62 3051.22,1776.22C3019.57,1756.25 2960.03,1765.7 2924.06,1765.51C2882.09,1765.29 2831.79,1761.98 2799.55,1765.52C2767.86,1769.01 2656.19,1912.07 2619.71,1945.16C2579.04,1982.06 2540,2021.12 2496.72,2055.07C2485.53,2063.85 2442.32,2084.59 2438.44,2099.24C2396.81,2256.55 2611.47,2271.94 2706.48,2220.43C2743.37,2200.44 2774.41,2164.11 2813.2,2148.44C2833.18,2140.37 2914.81,2116.94 2929.18,2149.28C2929.18,2149.28 2940.27,2209.86 2934.83,2273.49C2927.75,2356.27 3004.86,2504.09 3008.38,2502.52" style="fill:rgb(255,199,135);"/></g><g transform="matrix(-0.750658,-0.157937,-0.218797,0.794002,3384.96,-309.86)"><path d="M2566.8,1994.21C2544.09,2015.25 2521.08,2035.97 2496.72,2055.07C2489.54,2060.7 2469.18,2071.26 2454.47,2081.98C2449.62,2093.7 2448.13,2108.93 2456.45,2115.02C2467.88,2123.37 2496.86,2117.3 2507.84,2110.62C2530,2097.13 2560.91,2079.56 2570.75,2053.89C2576.16,2039.77 2568.79,2019.74 2566.93,2005.21C2566.76,2003.95 2567.07,1998.44 2566.8,1994.21Z" style="fill:rgb(255,228,196);"/></g><g transform="matrix(-0.750658,-0.157937,-0.218797,0.794002,3384.96,-309.86)"><path d="M2433.35,2143.83C2517.32,2198.74 2631.04,2193.97 2720.56,2152.01C2743.01,2141.48 2767.12,2135.23 2786.68,2119.23C2819.75,2092.2 2786.91,2054.45 2766.89,2027.75C2758.05,2015.96 2754.6,2002.1 2751.96,1987.93C2751.6,1986.03 2750.91,1982.75 2754.23,1983.56C2768.55,1987.09 2782.2,2011.98 2793.06,2021.53C2806.66,2033.49 2823.64,2050.28 2840.17,2058.27C2875.75,2075.45 2922.66,2061.25 2936.85,2023.64C2937.62,2021.62 2938.35,2027.75 2938.54,2029.91C2938.84,2033.15 2938.78,2036.44 2938.8,2039.7C2938.83,2048.06 2943.25,2053.95 2941.65,2062.89C2936.36,2092.48 2936.58,2114.12 2961.62,2136.52C3003.11,2173.61 3069.45,2169.44 3104.43,2217.54C3139.88,2266.26 3123.14,2323.05 3179.99,2364.89C3203.73,2382.35 3243.74,2395 3287.49,2404.84L3008.38,2502.52C3004.86,2504.09 2927.75,2356.27 2934.83,2273.49C2940.27,2209.86 2929.18,2149.28 2929.18,2149.28C2914.81,2116.94 2833.18,2140.37 2813.2,2148.44C2774.41,2164.11 2743.37,2200.44 2706.48,2220.43C2621.36,2266.57 2440.21,2259.03 2433.35,2143.83Z" style="fill:rgb(255,171,101);"/></g><g transform="matrix(-0.750658,-0.157937,-0.218797,0.794002,3384.96,-309.86)"><path d="M2823.85,2025.38C2806.41,2019.63 2801.91,2009.12 2793.21,1993.62C2788.45,1985.14 2782.79,1978.31 2779.69,1968.91C2778.13,1964.21 2774.09,1949.74 2774.81,1949.03C2775.31,1948.54 2780.8,1955.65 2781.31,1956.19C2789.93,1965.13 2797.14,1974.96 2803.37,1985.71C2811.7,2000.09 2818.89,2013.64 2829.67,2026.35C2834.89,2032.51 2843.48,2039.16 2844.66,2047.7" style="fill:rgb(255,171,101);"/></g></g></g></g></g><defs><linearGradient id="_Linear2" x1="0" y1="0" x2="1" y2="0" gradientUnits="userSpaceOnUse" gradientTransform="matrix(986.236,-361.58,361.58,986.236,2127.59,1221.66)"><stop offset="0" style="stop-color:white;stop-opacity:0"/><stop offset="1" style="stop-color:white;stop-opacity:1"/></linearGradient><linearGradient id="_Linear3" x1="0" y1="0" x2="1" y2="0" gradientUnits="userSpaceOnUse" gradientTransform="matrix(1429.32,1136.02,-1136.02,1429.32,1377.3,1060.98)"><stop offset="0" style="stop-color:white;stop-opacity:0"/><stop offset="1" style="stop-color:white;stop-opacity:1"/></linearGradient><linearGradient id="_Linear4" x1="0" y1="0" x2="1" y2="0" gradientUnits="userSpaceOnUse" gradientTransform="matrix(1226.31,1278.83,-1278.83,1226.31,1520.2,1081.67)"><stop offset="0" style="stop-color:rgb(180,145,1);stop-opacity:0"/><stop offset="1" style="stop-color:rgb(180,145,1);stop-opacity:1"/></linearGradient><linearGradient id="_Linear5" x1="0" y1="0" x2="1" y2="0" gradientUnits="userSpaceOnUse" gradientTransform="matrix(-697.658,-1583.04,1583.04,-697.658,1989.3,1517.31)"><stop offset="0" style="stop-color:white;stop-opacity:0"/><stop offset="1" style="stop-color:white;stop-opacity:1"/></linearGradient><linearGradient id="_Linear6" x1="0" y1="0" x2="1" y2="0.298517" gradientUnits="userSpaceOnUse" gradientTransform="matrix(-697.658,-1583.04,1583.04,-697.658,1989.3,1517.31)"><stop offset="0" style="stop-color:white;stop-opacity:0"/><stop offset="1" style="stop-color:white;stop-opacity:1"/></linearGradient><linearGradient id="_Linear7" x1="0" y1="0" x2="1" y2="0.0906118" gradientUnits="userSpaceOnUse" gradientTransform="matrix(-121.204,-1242.79,1242.79,-121.204,1137.51,1675.68)"><stop offset="0" style="stop-color:black;stop-opacity:0"/><stop offset="1" style="stop-color:black;stop-opacity:1"/></linearGradient><linearGradient id="_Linear8" x1="0" y1="0" x2="1" y2="0.0906118" gradientUnits="userSpaceOnUse" gradientTransform="matrix(-121.204,-1242.79,1242.79,-121.204,1137.51,1675.68)"><stop offset="0" style="stop-color:black;stop-opacity:0"/><stop offset="1" style="stop-color:black;stop-opacity:1"/></linearGradient><linearGradient id="_Linear9" x1="0" y1="0" x2="1" y2="0" gradientUnits="userSpaceOnUse" gradientTransform="matrix(926.139,-1139.65,1139.65,926.139,1529.89,2221.56)"><stop offset="0" style="stop-color:white;stop-opacity:0"/><stop offset="1" style="stop-color:white;stop-opacity:1"/></linearGradient><linearGradient id="_Linear10" x1="0" y1="0" x2="1" y2="0" gradientUnits="userSpaceOnUse" gradientTransform="matrix(414.436,-287.878,287.878,414.436,1092.01,1939.55)"><stop offset="0" style="stop-color:white;stop-opacity:0"/><stop offset="1" style="stop-color:white;stop-opacity:1"/></linearGradient><linearGradient id="_Linear11" x1="0" y1="0" x2="1" y2="-0.253955" gradientUnits="userSpaceOnUse" gradientTransform="matrix(826.83,0,0,293.801,854.222,683.409)"><stop offset="0" style="stop-color:white;stop-opacity:0"/><stop offset="1" style="stop-color:white;stop-opacity:1"/></linearGradient></defs></svg>